<svg width="496" height="529" viewBox="0 0 496 529" fill="none" xmlns="http://www.w3.org/2000/svg">
<g opacity="0.2">
<path d="M159.122 456.379C160.068 454.591 168.446 442.558 169.51 440.858C172.247 436.473 174.725 431.919 177.305 427.443C177.845 424.762 180.018 422.844 180.543 420.154C180.583 419.938 180.743 419.771 180.855 419.576C182.217 417.031 183.208 414.331 184.421 411.719C185.211 410.02 185.954 408.295 186.642 406.557C187.596 404.175 188.575 401.787 189.45 399.359C190.173 397.342 191.007 395.35 191.739 393.318C192.577 391.028 193.343 388.717 194.22 386.47C195.186 383.995 195.937 381.456 196.816 378.95C198.077 375.309 199.244 371.613 200.418 367.941C201.198 365.498 201.915 363.019 202.695 360.576C203.464 358.187 204.281 355.826 205.066 353.446C205.715 351.485 206.356 349.501 207.004 347.541C207.952 344.697 208.869 341.834 209.889 339.011C210.727 336.722 211.724 334.484 212.633 332.216C213.187 330.819 213.709 329.405 214.175 327.978C214.585 326.758 215.194 325.593 215.714 324.437C216.507 322.66 217.254 320.857 218.047 319.08C219.302 316.213 221.052 313.613 222.258 310.757C223.98 306.644 226.519 303.002 228.602 299.097C229.314 297.753 229.996 296.351 230.92 295.148C232.988 292.432 234.461 289.332 236.45 286.57C237.598 284.979 238.433 283.166 239.742 281.767C241.387 280.004 242.349 277.826 243.861 275.966C245.119 274.437 246.271 272.729 247.414 271.074C248.625 269.299 249.82 267.516 251.297 265.934C252.17 265.002 252.747 263.819 253.614 262.823C255.314 260.892 256.657 258.634 258.372 256.712C260.786 253.976 263.122 251.195 265.552 248.469C268.697 244.938 271.888 241.473 275.288 238.19C275.681 237.798 275.826 237.183 276.49 236.868C276.853 238.236 277.173 239.498 277.517 240.754C278.729 245.226 280.833 249.315 283.196 253.354C285.476 257.246 288.42 260.603 291.68 263.704C293.399 265.335 295.113 267.084 297.32 268.16C298.234 268.608 298.697 269.514 299.618 269.986C301.571 270.995 303.607 271.712 305.778 272.488C306.971 273.796 307.269 275.604 308.025 277.199C311.398 284.136 315.761 290.408 321.495 295.756C325.679 299.651 330.389 302.851 335.522 305.317C339.362 307.157 343.377 308.619 347.539 309.646C354.079 311.27 360.672 311.567 367.304 311.687C369.993 311.744 372.678 311.699 375.349 311.825C381.324 312.104 387.292 312.14 393.241 312.864C393.985 312.954 394.711 313.075 395.446 313.18C396.852 313.393 398.297 313.61 399.659 312.92C401.117 311.408 401.186 309.652 400.51 307.665C399.869 305.798 398.815 304.211 397.4 302.815C393.363 298.846 389.276 294.928 385.281 290.924C381.912 287.541 378.676 284.035 375.315 280.676C373.522 278.882 371.696 277.108 369.617 275.628C369.289 275.399 369.042 275.136 369.015 274.602C369.77 274.419 370.495 274.759 371.223 274.84C375.927 275.362 380.625 275.423 385.291 275.066C391.295 274.604 397.136 273.408 402.849 271.78C408.822 270.063 414.567 267.835 420.009 264.933C423.998 262.808 427.621 260.191 431.276 257.593C436.328 253.987 441.082 249.989 446.562 246.949C447.786 246.279 448.672 245.395 448.564 243.875C448.526 243.215 448.366 242.584 447.833 242.056C446.766 241.001 445.688 239.999 444.512 239.06C442.113 237.155 439.286 235.921 436.884 234.094C434.63 232.373 432.167 231.05 429.758 229.598C428.456 228.806 427.474 227.64 426.095 226.943C424.836 226.295 423.527 225.659 422.552 224.516C422.176 224.079 421.525 223.863 420.991 223.555C418.556 222.148 416.105 220.732 413.498 219.225C414.114 218.883 414.502 218.609 414.959 218.434C418.849 216.989 422.223 214.768 425.478 212.319C428.998 209.663 431.96 206.485 434.846 203.224C436.031 201.893 436.993 200.334 438.07 198.901C441.01 195.072 443.117 190.762 445.555 186.642C446.811 184.535 447.281 182.012 448.817 180.146C448.826 179.732 448.805 179.441 448.864 179.156C449.462 176.049 447.229 174.619 445.036 173.99C442.732 173.338 440.375 172.994 438.019 172.65C433.225 171.956 428.432 171.262 423.652 170.436C418.848 169.615 414.066 168.828 409.201 169.131C409.008 169.139 408.79 168.973 408.537 168.866C408.782 166.733 409.043 164.609 409.28 162.491C409.608 159.488 409.888 156.457 410.216 153.454C410.566 150.304 410.996 147.16 411.266 144.003C411.443 141.771 411.643 139.571 412.41 137.44C413.042 135.69 412.941 135.393 412.028 133.089C409.059 130.575 405.469 130.337 402.005 129.952C396.66 129.378 391.323 128.829 386.036 127.83C383.707 127.402 381.426 126.563 379.097 126.135C375.722 125.523 372.342 124.847 368.708 124.722C369.101 122.914 369.458 121.205 369.806 119.51C370.494 116.136 370.808 112.686 371.193 109.257C371.693 104.756 371.133 100.242 371.255 95.7429C371.272 94.9145 371.014 94.1268 370.698 93.366C370.238 92.2022 369.411 91.385 368.087 91.1389C366.97 90.9327 365.879 90.9007 364.763 90.8746C361.583 90.8332 358.558 91.54 355.469 92.0303C354.087 92.2492 352.793 92.8587 351.518 93.3992C350.962 93.6369 350.417 93.8205 349.85 93.932C349.436 93.2337 349.698 92.4875 349.55 91.7634C348.885 88.4854 347.345 87.1967 344.211 87.2216C341.831 87.2438 339.468 87.6744 337.097 87.9008C335.411 88.0643 333.727 88.1887 331.832 88.3512C332.946 84.7842 335.196 81.7536 334.512 77.9262C334.133 76.7298 333.159 76.1671 332.149 75.7033C328.187 74.9109 324.356 75.4909 320.529 75.9539C317.348 76.3507 314.175 76.7326 311.049 77.3608C308.505 77.8867 305.978 78.6016 303.556 79.4972C299.845 80.8852 296.275 82.5741 293.067 84.8709C291.603 85.9209 290.178 87.0131 288.791 88.1475C288.434 88.4401 288.127 88.6818 287.572 88.7003C288.109 83.2636 287.345 77.7939 287.022 72.3593C286.857 69.4498 286.844 66.529 286.758 63.6259C286.736 62.7553 286.739 61.8788 286.613 61.0077C286.384 59.4788 285.746 58.1521 284.161 57.5956C281.125 57.1587 278.887 58.6794 276.856 60.2792C272.012 64.1055 267.267 68.0494 262.254 71.6978C259.581 73.6459 256.923 75.6421 254.289 77.6323C251.133 80.0195 248.217 82.6448 245.624 85.6168C243.646 87.8862 241.747 90.201 239.971 92.6274C238.935 94.0245 237.956 95.4339 237.108 96.94C236.632 97.8023 236.819 98.9679 235.826 99.7108C233.898 97.0605 232.298 94.2406 230.945 91.2838C229.436 88.017 228.308 84.632 227.223 81.211C225.517 75.8152 223.697 70.4338 221.82 65.0791C221.206 63.3473 220.515 61.5311 218.166 60.9922C217.609 61.6681 217.226 62.4048 216.979 63.3792C216.36 66.015 215.731 68.7047 214.685 71.1734C213.816 73.2257 213.105 75.3688 211.849 77.2572C210.567 79.1905 209.69 81.4379 208.253 83.2414C206.079 85.9962 204.486 89.0868 202.783 92.1139C201.313 94.7368 200.189 97.5594 198.923 100.3C197.876 102.589 197.011 104.962 196.162 107.306C194.91 110.713 194.039 114.26 193.549 117.908C193.222 120.254 192.904 122.624 192.785 125.01C192.55 129.923 193.136 134.791 194.309 139.66C193.569 139.671 193.129 139.018 192.434 138.916C191.999 138.944 191.601 139.053 191.32 139.469C190.322 140.908 189.744 142.53 189.387 144.239C188.357 149.151 188.287 154.14 188.594 159.166C188.753 161.652 188.968 164.112 189.336 166.599C190.083 171.66 191.349 176.622 193.524 181.35C196.312 187.412 200.398 192.566 205.167 197.337C207.563 199.719 210.053 201.975 212.729 203.981C215.561 206.116 218.481 208.242 221.723 209.776C228.38 212.904 235.075 215.894 242.366 217.232C248.531 218.38 254.671 218.735 260.833 218.144C262.785 217.955 264.659 217.501 266.49 217.122C267.192 217.249 267.646 217.551 267.935 218.177C268.607 219.662 269.361 221.116 270.082 222.59C271.251 224.922 272.921 226.964 274.344 229.183C274.791 229.86 275.417 230.482 275.383 231.34C272.454 234.277 269.534 237.2 266.676 240.198C264.018 242.992 261.539 245.95 258.849 248.726C257.358 250.26 256.123 252.04 254.763 253.709C253.218 255.59 251.65 257.438 250.074 259.301C249.247 260.3 248.537 261.386 247.773 262.421C246.711 263.863 245.632 265.335 244.501 266.717C243.176 268.326 242.397 270.331 240.752 271.695C240.636 271.788 240.574 271.931 240.521 272.06C239.425 274.361 237.741 276.301 236.216 278.293C234.419 280.648 233.319 283.464 231.172 285.556C231.021 285.708 230.925 285.912 230.828 286.116C227.711 291.778 223.62 296.877 220.794 302.688C219.149 306.088 217.221 309.324 215.569 312.699C214.878 314.116 214.393 315.612 213.2 317.317C214.057 314.56 214.687 312.23 215.492 309.961C216.938 305.928 218.209 301.833 219.322 297.686C220.557 293.072 221.888 288.474 222.695 283.732C223.911 276.572 224.267 269.414 223.223 262.106C222.643 258.099 222.005 254.119 221.021 250.158C220.549 248.289 220.199 246.39 219.556 244.562C217.302 238.191 214.9 231.895 211.921 225.764C208.111 217.915 203.642 210.444 198.534 203.322C194.72 197.986 190.674 192.834 186.388 187.844C183.724 184.728 181.009 181.663 178.178 178.691C174.938 175.302 171.623 171.97 168.217 168.725C165.732 166.351 163.354 163.9 160.878 161.511C156.908 157.681 152.846 153.937 149.211 149.782C146.582 146.786 144.315 143.561 142.057 140.321C140.688 138.372 139.172 136.498 137.836 134.529C137.145 133.511 136.1 133.107 135.245 132.593C134.385 132.595 133.938 132.936 133.919 133.623C133.918 134.641 133.934 135.667 134.103 136.683C134.624 139.738 135.154 142.778 135.798 145.804C136.414 148.694 136.636 151.616 136.995 154.517C137.564 159.016 138.093 163.512 138.419 168.031C138.708 172.109 138.851 176.183 138.955 180.254C139.099 186.144 139.155 192.043 139.114 197.926C139.074 201.774 139.145 205.647 139.821 209.489C140.182 211.514 140.487 213.566 141.09 215.57C141.888 218.147 142.572 220.737 143.394 223.307C145.258 229.193 147.93 234.768 151.067 240.152C153.805 244.847 157.128 249.182 160.633 253.382C163.118 256.374 165.429 259.485 167.765 262.591C171.696 267.796 175.331 273.188 178.957 278.596C181.407 282.266 183.619 286.058 185.78 289.901C188.063 293.934 189.986 298.118 191.942 302.281C192.587 303.632 193.045 305.054 193.536 306.455C194.952 310.466 196.481 314.462 197.474 318.588C199.391 326.56 200.857 334.591 200.694 342.758C200.635 345.438 200.593 348.127 200.295 350.789C200.11 352.418 199.644 354.025 199.14 355.589C197.872 359.606 196.461 363.58 195.312 367.645C194.2 371.572 192.628 375.353 191.444 379.259C190.64 381.927 189.573 384.504 188.816 387.199C188.171 389.481 186.971 391.561 186.255 393.821C185.501 396.219 184.431 398.475 183.575 400.833C183.042 402.302 182.421 403.779 181.793 405.232C181.086 406.859 180.14 408.427 179.82 410.218C179.798 410.365 179.705 410.491 179.62 410.601C178.263 412.591 177.853 415.048 176.512 417.047C175.709 418.259 175.577 419.759 174.781 420.995C174.045 422.127 173.18 423.264 173.074 424.719C170.417 429.33 167.759 433.94 165.102 438.551C164.051 440.317 156.246 451.356 155.224 453.02C155.617 453.247 156.586 453.179 156.979 453.406C157.891 451.678 165.219 440.854 166.233 439.205C170.13 432.915 173.847 426.503 176.975 419.769C177.028 419.64 177.161 419.517 177.175 419.385C177.243 418.068 178.03 417.066 178.665 416.036C179.318 414.976 179.409 413.692 180.069 412.656C181.072 411.061 181.555 409.205 182.346 407.507C182.89 406.345 183.53 405.198 183.893 403.951C184.653 401.397 185.856 399.019 186.711 396.519C187.164 395.224 187.751 393.987 188.211 392.717C188.968 390.64 189.663 388.527 190.404 386.441C191.093 384.484 191.892 382.551 192.549 380.576C193.369 378.136 194.086 375.657 194.85 373.205C195.861 369.998 196.872 366.791 197.899 363.592C198.907 360.463 199.955 357.337 201.003 354.211C201.807 351.762 202.611 349.313 203.447 346.883C204.419 344.032 205.383 341.197 206.428 338.368C207.209 336.285 208.047 334.215 208.828 332.132C209.907 329.243 211.191 326.434 212.254 323.536C212.866 321.893 213.847 320.445 214.394 318.806C215.297 316.114 216.64 313.638 217.966 311.191C222.016 303.693 226.411 296.395 230.665 289.015C230.881 288.64 231.028 288.167 231.352 287.895C232.55 286.871 233.23 285.508 233.918 284.17C234.642 282.732 235.967 281.741 236.691 280.304C237.815 278.1 239.525 276.294 240.876 274.241C241.697 272.999 242.489 271.661 243.474 270.534C245.577 268.157 247.241 265.487 249.212 263.013C250.818 260.988 252.425 258.963 254.017 256.929C254.719 256.038 255.344 255.062 256.109 254.207C257.496 252.674 258.859 251.107 260.246 249.573C262.011 247.6 263.753 245.633 265.534 243.669C267.171 241.881 268.841 240.112 270.494 238.333C270.645 238.181 270.756 238.205 270.823 238.343C271.183 238.99 270.821 239.619 270.889 240.118C269.059 242.094 267.283 243.941 265.599 245.881C263.764 247.974 261.968 250.109 260.172 252.245C258.755 253.94 257.244 255.581 255.905 257.322C254.245 259.476 252.545 261.627 250.885 263.78C248.961 266.281 247.07 268.8 245.225 271.346C243.704 273.44 241.986 275.441 240.809 277.774C240.712 277.978 240.631 278.19 240.465 278.334C238.526 280.027 237.945 282.705 236.006 284.398C233.776 288.557 230.715 292.197 228.517 296.374C225.806 301.513 222.467 306.289 220.158 311.639C219.158 313.955 217.859 316.138 216.772 318.423C215.904 320.256 215.194 322.141 214.31 323.965C213.075 326.544 212.274 329.314 211.133 331.948C210.727 332.87 210.511 333.863 210.105 334.786C209.186 336.889 208.33 339.028 207.585 341.192C206.415 344.567 205.347 347.981 204.224 351.383C203.42 353.832 202.585 356.262 201.796 358.72C200.841 361.721 200.061 364.782 198.988 367.734C197.59 371.576 196.55 375.524 195.152 379.366C194.16 382.105 193.284 384.932 192.323 387.689C191.354 390.461 190.297 393.203 189.256 395.954C187.802 399.784 186.255 403.559 184.754 407.362C184.208 408.782 183.448 410.099 182.91 411.505C181.96 413.989 180.986 416.479 179.688 418.802C179.507 419.117 179.23 419.416 179.176 419.764C178.949 421.248 178.121 422.466 177.358 423.682C176.577 424.927 176.327 426.379 175.602 427.636C173.534 431.151 171.529 434.702 169.493 438.235C169.096 438.923 168.799 439.729 168.231 440.279C166.793 441.684 158.886 453.719 157.872 455.369C158.262 455.674 158.713 456.143 159.122 456.379ZM259.44 164.539C259.54 164.656 259.906 164.748 259.504 164.935C259.502 164.794 259.515 164.662 259.513 164.521C259.27 164.361 259.198 164.159 259.32 163.911C258.527 162.235 257.782 160.548 256.965 158.878C254.785 154.486 252.686 150.061 249.876 145.963C246.17 140.549 241.744 135.657 237.822 130.398C235.038 126.654 232.556 122.786 230.338 118.75C228.757 115.861 227.527 112.836 226.273 109.817C224.808 106.256 223.747 102.61 222.912 98.9349C221.927 94.6139 221.802 90.2518 222.089 85.8675C222.413 80.9461 222.64 76.0093 221.897 71.05C221.854 70.7256 221.992 70.4861 222.17 70.2497C222.021 70.144 221.856 70.0682 222.001 69.8527C222.262 69.944 222.143 70.1145 222.097 70.2674C223.525 73.5668 224.214 77.058 225.544 80.381C226.475 82.6545 227.071 85.0346 227.903 87.3707C229.631 92.2204 232.145 96.6864 234.929 101.049C237.001 104.321 238.998 107.65 240.889 111.017C244.138 116.825 246.905 122.814 249.272 128.991C250.903 133.246 252.421 137.515 253.866 141.802C255.733 147.391 257.348 153.053 258.583 158.795C258.903 160.238 259.199 161.686 259.52 163.128C259.588 163.447 259.45 163.686 259.271 163.923C259.547 164.062 259.587 164.284 259.44 164.539ZM197.02 148.689C197.326 148.886 197.845 148.966 197.63 149.52C198.01 149.66 198.191 149.964 198.419 150.295C201.698 154.924 205.864 158.668 210.73 161.599C217.157 165.452 223.673 169.117 230.161 172.865C230.695 173.174 231.288 173.417 231.721 173.827C233.832 175.724 236.271 177.233 238.431 179.08C240.188 180.574 242.109 181.964 243.85 183.448C245.878 185.198 247.93 186.943 249.857 188.795C251.73 190.595 253.603 192.396 255.491 194.205C253.108 193.108 250.799 191.993 248.453 190.977C247.9 190.737 247.403 190.29 246.823 190.135C244.278 189.463 241.976 188.153 239.504 187.283C236.96 186.392 234.571 185.051 232.035 184.145C230.886 183.741 229.863 183.01 228.716 182.746C226.765 182.317 225.281 180.822 223.325 180.51C220.165 178.544 216.771 177.022 213.852 174.637C211.276 172.531 208.947 170.287 207.004 167.627C203.932 163.438 201.483 158.93 199.337 154.298C198.649 152.803 197.583 151.309 197.677 149.548C197.347 149.357 196.943 149.223 197.116 148.705C196.992 148.593 196.81 148.508 196.971 148.302C197.193 148.39 197.106 148.539 197.02 148.689ZM364.241 203.318C364.139 203.459 364.028 203.615 363.803 203.424C363.931 203.239 364.104 203.339 364.254 203.405C364.383 203.181 364.583 203.197 364.824 203.216C368.898 203.595 372.958 204.144 376.99 204.997C382.471 206.168 387.72 208.143 392.922 210.271C394.401 210.866 395.756 211.749 397.231 212.242C399.895 213.142 402.297 214.57 404.796 215.794C408.154 217.415 411.353 219.423 414.554 221.352C417.536 223.155 420.578 224.853 423.472 226.844C426.843 229.171 430.143 231.656 433.83 233.507C434.444 233.822 435.131 234.119 435.774 234.929C430.767 233.733 425.945 233.381 421.161 232.633C416.434 231.897 411.849 230.406 407.545 228.318C402.965 226.091 398.69 223.262 394.507 220.346C394.39 220.259 394.258 220.162 394.141 220.074C392.093 218.432 390.136 216.703 388.012 215.157C386.239 213.873 384.278 212.88 382.524 211.527C379.982 209.579 376.758 208.814 374.071 207.082C372.31 206.903 370.928 205.705 369.27 205.166C367.596 204.618 365.819 204.25 364.241 203.318ZM201.664 331.046C201.132 330.699 201.17 330.122 201.125 329.657C200.699 325.999 199.935 322.384 198.862 318.831C197.522 314.326 196.336 309.809 194.622 305.406C193.543 302.628 192.398 299.891 191.123 297.199C189.952 294.726 188.65 292.298 187.332 289.86C185.289 286.066 183.14 282.31 180.679 278.733C176.882 273.186 173.249 267.535 169.105 262.228C165.885 258.113 162.881 253.842 159.57 249.814C155.683 245.114 152.436 240.065 149.651 234.724C147.567 230.747 146.037 226.57 144.434 222.412C144.202 221.798 143.889 221.178 144.028 220.501C143.977 220.371 143.562 220.291 143.979 220.113C143.966 220.245 143.968 220.386 143.955 220.518C144.189 220.694 144.472 220.857 144.649 221.059C146.037 222.719 147.384 224.415 148.79 226.045C151.647 229.372 154.686 232.565 157.969 235.479C160.638 237.86 163.256 240.33 166.168 242.472C168.682 244.323 170.957 246.516 173.36 248.523C176.338 251.022 179.2 253.613 181.893 256.426C185.843 260.544 189.381 264.943 192.355 269.774C194.959 274.012 196.87 278.509 198.527 283.118C199.916 286.993 200.705 291.001 201.334 294.997C202.398 301.797 202.697 308.655 202.61 315.489C202.569 318.977 202.422 322.465 202.18 325.937C202.072 327.65 202.107 329.406 201.575 331.055C201.724 331.161 201.888 331.275 201.687 331.479C201.507 331.355 201.594 331.205 201.664 331.046ZM140.799 141.45C141.284 141.59 141.451 142.026 141.726 142.384C143.633 144.962 145.524 147.532 147.636 149.97C150.526 153.276 153.6 156.408 156.798 159.434C160.168 162.598 163.454 165.833 166.757 169.078C169.525 171.795 172.269 174.518 174.946 177.322C177.677 180.177 180.343 183.074 182.982 186.016C187.676 191.242 192.038 196.716 196.144 202.381C199.436 206.916 202.553 211.571 205.366 216.429C207.832 220.687 210.118 225.041 212.11 229.505C213.585 232.831 214.97 236.206 216.364 239.565C216.649 240.269 216.78 241.023 217.033 241.927C216.238 241.528 216.036 240.932 215.717 240.469C214.203 238.336 212.704 236.213 210.909 234.278C207.782 230.875 204.429 227.681 200.883 224.714C197.61 221.965 194.201 219.377 190.775 216.819C188.488 215.119 186.319 213.287 184.126 211.461C180.089 208.11 176.286 204.536 172.683 200.759C165.949 193.695 159.869 186.151 154.995 177.748C150.898 170.651 147.763 163.193 145.191 155.521C144.027 152.054 143.001 148.529 142.04 145C141.711 143.792 140.714 142.797 140.871 141.471C140.747 141.359 140.549 141.265 140.726 141.068C140.965 141.126 140.87 141.291 140.799 141.45ZM326.092 252.975C325.976 253.068 325.882 253.412 325.688 253.021C325.833 253.025 325.969 253.043 326.113 253.047C326.287 252.928 326.453 252.785 326.641 252.713C329.58 251.538 332.328 250.113 334.585 247.904C336.842 245.696 338.453 243.155 339.44 240.134C340.32 237.409 340.518 234.63 340.334 231.79C340.213 229.964 339.877 228.114 339.118 226.378C337.183 221.888 334.159 218.125 330.614 214.72C328.594 212.775 326.557 210.859 324.528 208.929C324.696 208.747 324.782 208.597 324.888 208.558C328.463 207.152 332.271 206.359 335.962 205.259C337.361 204.83 338.891 204.756 340.343 204.417C343.741 203.607 347.241 203.274 350.75 203.146C354.467 203.019 358.14 203.585 361.813 204.37C365.334 205.127 368.704 206.256 372.003 207.763C373.448 208.418 374.824 209.373 376.303 209.749C379.104 210.449 381.066 212.421 383.189 214.006C385.343 215.61 387.454 217.289 389.565 218.967C390.803 219.942 392.1 220.891 393.323 221.857C395.582 223.641 397.801 225.422 400.316 226.835C401.974 227.773 403.648 228.72 405.298 229.673C407.529 230.962 409.984 231.643 412.43 232.377C416.035 233.462 419.762 233.68 423.443 234.27C427.339 234.885 431.3 235.098 435.153 236.007C436.522 236.32 437.906 236.68 439.219 237.199C441.505 238.101 443.284 239.847 445.228 241.27C446.11 241.919 447.169 242.77 447.221 244.097C446.906 245.153 446.128 245.741 445.222 246.295C441.274 248.603 437.646 251.336 434.019 254.07C431.268 256.152 428.41 258.133 425.576 260.107C418.57 264.959 410.661 268.072 402.448 270.551C397.837 271.938 393.09 272.907 388.232 273.452C382.235 274.118 376.244 274.268 370.176 273.496C367.778 273.188 365.392 272.967 363.733 270.832C363.604 270.657 363.349 270.59 363.145 270.472C361.708 269.622 360.41 268.532 359.157 267.509C357.032 265.782 354.675 264.421 352.454 262.898C349.162 260.617 345.535 258.88 341.725 257.497C338.557 256.345 335.391 255.334 332.139 254.473C330.146 253.861 328.054 253.749 326.092 252.975ZM264.443 187.903C262.912 168.76 258.609 150.43 252.131 132.459C252.142 131.967 252.557 131.647 252.63 131.23C253.194 128.144 254.407 125.313 255.991 122.636C257.222 120.574 258.203 118.327 259.699 116.458C261.687 113.954 263.884 111.632 266.207 109.382C270.47 105.22 275.333 101.904 280.541 99.0456C286.479 95.7916 293.038 93.8941 299.616 92.1468C302.473 91.4033 305.447 90.9665 308.417 90.6467C314.47 89.9537 320.588 89.8763 326.705 89.7989C330.886 89.7398 335.059 89.6566 339.181 89.0449C341.007 88.783 342.858 88.5152 344.748 88.6498C346.664 88.7786 347.41 89.4093 347.94 91.2518C348.073 91.7477 348.117 92.2522 348.128 92.7775C348.28 96.4374 348.763 100.069 349.27 103.694C350.047 109.431 350.711 115.182 351.463 120.925C352.006 125.07 352.227 129.228 352.392 133.375C352.598 138.902 352.741 144.432 351.603 149.821C350.729 154.025 349.911 158.242 348.33 162.257C347.632 164.049 346.941 165.865 346.275 167.675C345.375 170.109 344.262 172.439 343.102 174.742C341.637 177.647 339.538 180.126 337.563 182.717C335.953 184.82 334.218 186.85 332.307 188.639C327.267 193.35 321.704 197.48 315.468 200.96C314.31 199.772 313.146 198.521 311.915 197.351C308.183 193.798 305.277 189.685 302.744 185.288C300.879 182.055 299.22 178.722 296.952 175.716C295.127 173.324 293.116 171.145 290.378 169.683C287.499 168.139 284.535 167.903 281.484 168.475C279.679 168.809 278.341 169.931 276.941 170.979C273.397 173.64 270.52 176.887 267.93 180.399C266.294 182.547 265.62 185.171 264.443 187.903ZM386.818 206.584C376.378 202.608 365.66 201.584 354.866 201.673C343.911 201.749 333.447 204.065 323.448 208.006C321.229 206.005 319.026 204.014 316.722 201.945C317.447 201.486 317.999 201.146 318.551 200.806C322.133 198.625 325.532 196.179 328.77 193.54C331.833 191.06 334.587 188.28 337.179 185.308C339.376 182.806 341.164 180.067 343.108 177.42C344.289 175.807 345.095 173.937 345.893 172.044C346.834 169.794 347.75 167.55 348.691 165.3C350.182 161.731 351.294 158.023 352.173 154.281C353.777 147.465 354.287 140.476 353.765 133.39C353.607 131.303 353.601 129.205 353.533 127.289C353.931 126.781 354.331 126.813 354.666 126.667C355.735 126.267 356.873 126.326 357.979 126.187C361.305 125.794 364.637 125.463 368.006 125.794C373.265 126.298 378.435 127.21 383.604 128.56C388.662 129.886 393.888 130.411 399.077 130.854C401.751 131.083 404.44 131.359 407.05 131.989C408.666 132.384 410.753 132.432 411.484 134.651C411.515 135.287 411.48 135.965 411.266 136.7C410.875 138.07 410.42 139.404 410.29 140.865C409.686 147.181 409.042 153.494 408.326 159.785C407.502 166.992 406.486 174.167 404.411 181.11C403.66 183.649 402.748 186.175 401.444 188.475C399.984 191.044 398.603 193.658 396.726 196.006C394.884 198.294 393.159 200.67 391.099 202.752C389.721 204.091 388.41 205.529 386.818 206.584ZM202.176 345.49C202.009 343.418 202.398 341.508 202.547 339.578C202.905 334.816 203.398 330.072 203.676 325.304C204.046 319.212 204.151 313.107 203.863 306.994C203.568 301.076 202.999 295.16 201.663 289.34C200.54 284.421 198.981 279.569 196.729 274.975C194.046 269.494 190.59 264.444 186.616 259.713C181.897 254.094 176.417 249.251 170.744 244.597C168.145 242.457 165.555 240.302 162.998 238.126C158.707 234.489 154.69 230.632 150.884 226.517C148.758 224.211 146.651 221.836 144.953 219.259C142.724 215.896 141.744 212.037 141.095 208.15C140.499 204.533 140.492 200.877 140.515 197.239C140.561 190.62 140.438 184.004 140.259 177.375C140.084 171.029 139.531 164.723 138.826 158.389C138.049 151.235 136.964 144.143 135.493 137.067C135.31 136.223 135.074 135.288 135.534 134.017C136.269 135.14 136.915 135.873 137.283 136.724C138.304 139.13 139.301 141.542 140.095 144.016C141.863 149.487 143.281 155.056 145.325 160.447C146.27 162.949 147.207 165.466 148.315 167.902C150.311 172.288 152.551 176.575 155.127 180.717C157.566 184.661 160.219 188.449 163.113 192.076C166.274 196.038 169.602 199.856 173.22 203.424C175.664 205.833 178.098 208.258 180.751 210.449C182.37 211.783 183.803 213.329 185.482 214.559C187.246 215.857 188.825 217.368 190.608 218.598C191.993 219.538 193.319 220.544 194.588 221.576C197.087 223.598 199.645 225.555 202.059 227.688C206.831 231.942 211.332 236.378 214.874 241.677C217.301 245.315 219.364 249.001 220.245 253.322C221.007 257.014 221.681 260.676 222.103 264.412C222.737 270.107 222.617 275.764 221.674 281.325C221.033 285.126 220.343 288.938 219.248 292.655C217.719 297.778 216.443 303.008 214.796 308.082C213.434 312.224 212.033 316.363 210.513 320.454C209.073 324.332 208.014 328.349 206.892 332.331C205.909 335.853 204.561 339.245 203.325 342.662C202.999 343.591 203.027 344.704 202.176 345.49ZM295.049 247.212C293.136 246.027 291.775 245.081 290.415 244.135C287.365 242.014 284.758 239.49 282.186 236.867C278.479 233.089 275.515 228.822 272.816 224.349C269.415 218.733 266.713 212.921 265.334 206.557C264.399 202.185 263.968 197.846 264.622 193.514C265.253 189.369 266.423 185.375 268.607 181.768C269.286 180.664 270.113 179.665 270.845 178.612C273.127 175.38 276.154 172.998 279.473 170.945C282.579 169.008 286.432 169.299 289.692 171.381C292.545 173.189 294.807 175.514 296.692 178.239C298.531 180.898 300.059 183.697 301.717 186.451C303.472 189.4 305.319 192.263 307.56 194.915C311.958 200.11 317.352 204.304 322.319 208.91C325.83 212.156 329.402 215.297 332.603 218.862C335.265 221.837 337.232 225.109 338.288 228.872C339.514 233.212 339.114 237.431 337.501 241.428C336.12 244.841 333.583 247.426 330.375 249.323C325.659 252.127 320.427 253.174 314.827 252.972C307.591 252.702 300.936 250.334 295.049 247.212ZM218.504 62.1854C219.075 62.3951 219.363 62.6216 219.492 63.0154C219.819 64.0825 220.251 65.1501 220.425 66.2285C221.275 71.5484 221.13 76.8129 220.136 82.0255C219.04 87.7779 218.289 93.5499 219.547 99.5051C220.543 104.171 222.045 108.651 224.261 112.944C226.82 117.915 230.021 122.498 233.352 127.037C237.156 132.208 241.383 137.045 245.312 142.109C246.956 144.235 248.705 146.323 250.086 148.578C253.527 154.198 256.525 160.041 258.74 166.189C260.644 171.46 261.859 176.872 262.419 182.404C262.795 186.113 262.921 189.817 262.943 193.522C262.961 195.887 262.916 198.255 262.903 200.603C262.548 200.637 262.434 200.471 262.297 200.273C260.081 196.997 257.374 194.136 254.511 191.364C251.517 188.457 248.372 185.702 245.236 182.932C242.1 180.162 238.787 177.59 235.508 174.997C233.271 173.245 230.878 171.584 228.33 170.191C223.369 167.464 218.545 164.498 213.592 161.756C209.92 159.734 206.585 157.308 203.615 154.395C199.771 150.638 196.841 146.311 195.754 141.113C195.349 139.163 194.847 137.237 194.564 135.257C193.8 130.007 193.772 124.822 194.54 119.639C195.184 115.361 196.096 111.199 197.582 107.168C198.295 105.205 199.061 103.294 199.837 101.367C200.993 98.5626 202.218 95.8186 203.65 93.1535C205.652 89.4613 207.843 85.8781 210.222 82.4038C212.312 79.3605 214.111 76.1298 215.415 72.6326C215.856 71.4309 216.282 70.2201 216.644 68.973C217.302 66.7787 217.874 64.5149 218.504 62.1854ZM318.911 254.533C321.894 255.898 323.981 257.582 325.971 259.47C327.559 260.966 328.831 262.719 330.27 264.329C334.393 268.946 338.26 273.754 342.825 277.968C344.701 279.691 346.527 281.464 348.749 282.768C351.073 284.15 353.379 285.563 355.737 286.885C358.393 288.38 361.236 289.443 364.041 290.426C367.488 291.639 370.889 293.005 374.382 294.065C377.16 294.913 379.884 295.927 382.625 296.912C384.456 297.551 386.345 298.124 388.08 298.966C390.271 300.033 392.458 301.216 394.418 302.648C397.12 304.609 399.677 306.784 399.429 310.592C399.132 310.999 399.066 311.659 398.145 311.985C397.393 311.91 396.353 311.788 395.32 311.691C392.649 311.384 389.982 310.961 387.313 310.796C383.441 310.574 379.554 310.524 375.694 310.428C371.359 310.318 367.048 310.242 362.722 310.117C359.736 310.029 356.763 309.847 353.8 309.392C349.975 308.799 346.206 307.998 342.524 306.649C339.776 305.64 337.01 304.661 334.439 303.235C332.066 301.904 329.709 300.542 327.51 298.872C325.099 297.06 322.754 295.207 320.653 293.075C314.182 286.463 309.627 278.743 306.624 270.183C305.196 266.085 304.181 261.887 303.304 257.669C302.947 255.926 302.529 254.108 302.791 252.164C308.208 253.957 313.674 254.501 318.911 254.533ZM192.416 140.401C192.829 141.319 193.235 142.032 193.517 142.814C195.102 147.222 196.711 151.623 198.678 155.913C201.075 161.129 203.545 166.288 207.098 170.915C209.749 174.382 212.818 177.412 216.633 179.696C219.042 181.148 221.647 182.114 224.242 183.134C227.525 184.413 230.901 185.386 234.185 186.664C236.543 187.588 238.916 188.52 241.281 189.467C242.744 190.053 244.215 190.663 245.652 191.294C247.926 192.289 250.237 193.185 252.424 194.368C253.691 195.041 254.802 195.982 255.976 196.78C257.932 198.11 259.647 199.639 261.126 201.432C262.499 203.083 263.969 204.711 263.981 207.052C263.974 207.827 264.368 208.633 264.602 209.426C265.249 211.537 265.912 213.656 266.574 215.814C263.089 216.774 259.521 217.007 255.957 217.123C252.61 217.225 249.271 217.132 245.918 216.591C242.102 215.982 238.319 215.134 234.633 213.862C232.644 213.172 230.715 212.377 228.77 211.573C226.186 210.498 223.677 209.328 221.189 208.05C219.165 207.021 217.33 205.661 215.444 204.392C213.183 202.866 211.006 201.229 209.037 199.413C205.734 196.388 202.699 193.117 199.955 189.556C196.546 185.152 194.168 180.306 192.525 175.126C190.867 169.938 190.29 164.616 189.924 159.256C189.624 154.872 189.7 150.526 190.297 146.221C190.577 144.208 190.938 142.202 192.416 140.401ZM388.37 207.162C393.704 202.122 398.389 196.827 401.794 190.593C405.2 184.319 406.997 177.496 407.977 170.419C408.657 170.293 409.171 170.091 409.676 170.123C412.808 170.357 415.954 170.458 419.044 170.946C426.396 172.141 433.73 173.405 441.098 174.429C442.648 174.646 444.176 175.01 445.613 175.641C447.722 176.56 447.985 178.428 446.569 179.905C442.496 184.137 438.016 187.914 432.989 191.076C427.789 194.357 423.044 198.121 419.019 202.78C416.771 205.372 414.601 208.01 412.432 210.648C410.954 212.448 409.582 214.429 407.306 215.508C401.186 212.611 395.106 209.498 388.37 207.162ZM251.409 130.805C247.594 120.239 242.577 110.596 236.78 101.579C237.001 99.2328 238.192 97.5662 239.186 95.8057C239.93 94.4793 240.892 93.3189 241.784 92.0983C243.177 90.1894 244.658 88.311 246.229 86.5651C250.457 81.8835 255.509 78.0581 260.715 74.4405C263.854 72.2634 266.871 69.9357 269.827 67.5326C271.869 65.8789 273.965 64.2764 276.429 62.3274C275.059 65.0679 273.768 67.2353 272.752 69.5421C271.48 72.439 270.344 75.3546 269.278 78.3305C267.896 82.1815 266.976 86.1397 266.103 90.1251C264.893 95.7119 263.882 101.354 262.195 106.824C261.22 109.933 260.143 112.963 258.474 115.75C257.131 118.007 255.741 120.237 254.548 122.561C253.757 124.079 253.241 125.737 252.631 127.34C252.227 128.404 251.888 129.465 251.409 130.805ZM391.663 299.181C391.249 299.281 391.008 299.082 390.741 298.927C388.527 297.609 386.038 296.949 383.656 296.032C381.013 295.023 378.299 294.173 375.636 293.234C373.743 292.559 371.861 291.791 369.941 291.161C367.309 290.278 364.785 289.099 362.257 287.998C360.598 287.279 359.169 286.054 357.353 285.644C357.003 285.561 356.586 285.34 356.388 285.066C355.571 283.976 354.311 283.547 353.245 282.851C352.666 282.476 351.993 282.227 351.489 281.757C349.216 279.705 346.8 277.83 344.477 275.83C340.965 272.803 337.628 269.618 334.392 266.331C332.407 264.326 330.64 262.088 328.595 260.149C326.343 257.989 324.059 255.811 321.24 254.163C321.461 254.071 321.526 254.029 321.582 254.041C325.731 254.363 329.824 255.111 333.896 256.147C338.422 257.305 342.664 259.138 346.903 261.048C350.589 262.719 353.586 265.548 357.143 267.443C357.268 267.516 357.418 267.582 357.518 267.7C359.577 269.687 361.998 271.226 364.243 272.962C366.675 274.846 369.073 276.79 371.339 278.818C374.442 281.608 377.285 284.668 380.146 287.698C382.19 289.856 384.208 292.06 386.435 294.045C388.218 295.674 389.9 297.444 391.663 299.181ZM263.513 110.24C263.266 109.798 263.174 109.485 263.305 109.222C264.167 107.545 264.481 105.691 264.874 103.883C266.555 96.1337 267.703 88.2562 269.886 80.6176C270.923 76.9661 272.246 73.4 273.788 69.961C274.943 67.3757 276.501 64.9633 277.995 62.5537C279.24 60.5391 280.939 59.0069 283.605 58.8509C283.966 59.0596 284.343 59.2775 284.673 59.4681C285.272 60.5724 285.187 61.7007 285.257 62.7786C285.485 67.3603 285.376 71.9466 285.893 76.5356C286.452 81.488 286.488 86.4381 286.156 91.3745C286.07 92.7219 286.063 94.1147 285.565 95.3432C278.893 97.6544 268.202 104.867 263.513 110.24ZM369.394 93.231C370.191 97.443 370.113 101.648 370.01 105.859C369.847 112.21 369.068 118.465 367.271 124.491C362.571 124.469 357.97 124.605 353.328 125.974C352.42 115.631 350.87 105.496 349.582 95.4137C355.291 92.6659 361.302 92.0477 367.367 92.0601C368.027 92.4414 368.561 92.7499 369.394 93.231ZM305.493 271.166C303.351 270.267 301.564 269.734 299.925 268.727C299.125 268.225 298.633 267.481 297.84 267.003C294.7 265.149 292.141 262.613 289.755 259.958C284.052 253.649 280.07 246.46 278.119 238.328C278.002 237.842 277.99 237.316 277.93 236.803C277.87 236.289 277.553 235.786 277.722 235.166C284.61 242.398 292.43 248.014 301.482 251.747C301.338 258.428 303.691 264.518 305.493 271.166ZM445.72 182.068C445.574 182.902 445.601 183.437 445.391 183.874C444.095 186.377 442.523 188.742 441.589 191.415C441.282 192.275 440.415 192.653 439.959 193.407C438.962 195.065 437.901 196.688 436.737 198.27C434.962 200.697 433.101 203.054 431.014 205.22C426.204 210.224 420.859 214.519 414.268 217.236C413.37 217.595 412.519 217.981 411.737 218.029C410.669 217.412 409.758 216.885 408.627 216.232C410.099 215.386 411.146 214.295 412.067 213.17C414.464 210.246 416.808 207.269 419.292 204.414C421.875 201.457 424.622 198.654 427.816 196.309C431.127 193.871 434.574 191.633 437.907 189.228C440.695 187.227 443.198 184.882 445.72 182.068ZM287.435 90.3176C288.72 89.3239 289.949 88.3179 291.231 87.4021C296.342 83.7301 302.008 81.0571 308.136 79.2898C309.347 78.9321 310.581 78.6074 311.842 78.418C314.858 77.9454 317.886 77.5599 320.892 77.1412C322.095 76.9786 323.283 76.8068 324.798 76.9037C324.411 77.1391 324.311 77.2407 324.205 77.2793C318.973 79.1257 315.125 82.5693 312.113 86.9953C311.532 87.8572 310.878 88.5566 310.041 89.2102C307.058 89.2628 304.149 89.877 301.234 90.4281C297.284 91.1787 293.468 92.3862 289.71 93.747C288.919 94.0286 288.101 94.3941 287.014 94.2451C287.387 92.944 287.364 91.7131 287.435 90.3176ZM329.814 88.4022C324.32 88.3413 318.919 88.593 313.504 88.7966C313.456 87.9709 313.815 87.4202 314.237 87.125C315.04 86.5312 315.38 85.6503 315.963 84.9295C317.721 82.7522 319.562 80.6833 322.207 79.4375C325.023 78.1115 327.962 77.1552 331.08 76.722C331.766 77.0583 332.486 77.3348 333.135 77.9891C333.537 81.8332 331.827 85.0553 329.814 88.4022ZM256.467 195.347C256.134 195.415 255.899 195.279 255.791 194.957C256.123 194.889 256.326 195.046 256.467 195.347Z" fill="#CBC8C1"/>
<path d="M141.665 153.06C139.953 152.07 138.665 151.326 137.376 150.582C138.613 152.434 140.181 153.819 142.102 154.809C142.485 155.489 142.757 156.145 142.664 157.069C141.189 155.958 139.903 154.736 138.207 154.155C138.126 154.767 138.546 155.129 138.941 155.497C139.779 156.26 140.52 157.228 141.496 157.751C144.178 159.201 144.309 161.772 145.264 164.439C142.682 163.286 140.416 162.276 138.103 161.239C138.786 163.071 141.312 164.61 145.808 165.93C147.82 170.905 150.055 175.968 152.477 181.139C148.018 180.119 144.217 177.883 139.852 176.918C139.967 178.062 140.761 178.321 141.394 178.567C144.868 179.916 148.287 181.432 151.891 182.337C152.719 182.536 153.428 182.906 153.844 183.745C156.087 188.174 158.576 192.505 161.22 196.747C160.726 197.24 160.231 196.974 159.744 196.873C153.799 195.633 147.941 194.024 142.387 191.414C141.527 191.017 140.611 190.608 139.551 190.594C139.457 191.338 140.012 191.539 140.436 191.784C143.741 193.753 147.341 194.955 150.986 196.043C154.623 197.147 158.299 198.073 162.101 198.234C164.795 202.245 167.427 206.181 170.273 210.4C168.33 210.574 166.635 210.752 164.944 210.853C157.598 211.279 150.34 210.318 143.161 208.385C141.785 208.01 141.778 207.986 140.587 208.235C141.033 208.952 141.766 209.096 142.497 209.319C151.214 212 160.006 212.989 168.941 211.985C169.457 211.924 169.983 211.848 170.505 211.851C171.14 211.839 171.139 211.878 172.156 213.164C166.723 214.016 161.351 214.106 155.967 213.709C150.623 213.315 145.496 211.71 140.237 210.587C140.873 211.554 141.9 211.808 142.852 212.118C152.612 215.243 162.461 216.104 172.365 214.183C172.511 214.147 172.663 214.175 173.025 214.165C175.712 217.932 178.452 221.79 181.413 225.956C175.8 226.645 170.555 227.206 165.22 227.197C159.885 227.188 154.62 226.401 149.321 225.495C150.134 226.264 151.073 226.707 152.115 226.969C158.452 228.655 164.852 228.781 171.247 228.404C174.847 228.189 178.411 227.674 182.107 227.076C184.276 230.145 186.271 233.333 188.295 236.797C182.717 237.246 177.34 237.273 171.91 236.81C166.48 236.347 161.183 235.182 155.911 233.573C156.423 234.248 157.067 234.62 157.813 234.852C158.543 235.074 159.238 235.396 159.96 235.633C169.046 238.508 178.253 239.177 187.53 238.052C187.974 238.009 188.403 237.918 188.944 237.851C189.754 239.317 190.541 240.749 191.418 242.353C182.341 243.894 173.512 242.824 164.671 241.448C168.972 243.434 173.554 243.986 178.159 244.391C182.787 244.791 187.362 244.52 191.81 243.598C193.484 245.962 197.242 254.34 198.421 258.254C198.07 258.79 197.486 258.532 197.013 258.518C193.696 258.458 190.366 258.349 187.053 257.992C186.069 257.883 185.092 257.797 183.907 258.11C186.445 259.337 188.956 259.451 191.441 259.609C193.926 259.767 196.418 259.731 199.108 259.788C201.029 265.248 202.656 270.819 203.938 276.588C201.169 276.924 198.59 275.693 195.614 276.169C198.54 277.56 201.369 277.738 204.101 278.159C204.371 278.635 204.434 279.07 204.351 279.541C204.148 279.603 203.917 279.749 203.726 279.718C201.64 279.412 199.566 278.832 197.276 279.026C198.53 279.83 199.788 280.118 201.031 280.397C202.218 280.663 203.406 280.891 204.601 281.142C205.716 284.84 206.903 297.679 206.514 302.024C205.12 301.898 203.988 301.064 202.691 300.554C202.739 301.161 203.183 301.517 203.547 301.867C203.98 302.277 204.556 302.55 205.073 302.888C205.574 303.218 206.1 303.541 206.648 303.898C206.927 319.765 204.022 335.089 200.947 350.416C202.07 350.067 202.273 349.206 202.477 348.306C203.919 342.354 205.034 336.313 206.045 330.271C206.804 325.721 207.371 321.139 207.682 316.529C207.748 315.47 208.079 314.643 208.802 313.824C211.746 310.496 214.457 306.993 216.636 303.103C217.354 301.821 217.951 300.53 218.161 298.895C216.57 301.328 214.868 303.518 213.377 305.85C211.938 308.092 210.178 310.128 208.601 312.211C208.346 312.143 208.266 312.137 208.203 312.101C208.141 312.064 208.079 311.989 208.081 311.95C208.095 306.73 208.262 301.498 207.921 296.312C212.975 291.069 217.124 285.324 220.507 279.017C221.228 277.657 221.625 276.17 222.234 274.786C222.367 274.483 222.246 274.075 222.086 273.663C220.317 277.53 218.142 281.123 215.691 284.576C213.316 287.934 210.81 291.155 208.033 294.301C207.852 293.997 207.798 293.946 207.793 293.883C207.345 289.573 207.43 289.642 210.23 286.31C212.272 283.858 214.253 281.33 215.943 278.615C216.793 277.25 217.737 275.939 218.522 274.577C219.963 272.077 221.406 269.538 221.932 266.589C217.816 274.13 213.005 281.169 207.261 287.828C206.481 281.769 205.418 275.947 203.925 270.215C209.137 265.243 213.021 259.485 216.217 253.249C217.114 251.512 217.885 249.702 218.363 247.783C218.468 247.345 218.533 246.943 218.14 246.497C217.36 247.343 216.91 248.341 216.47 249.324C214.42 254.007 211.891 258.393 208.843 262.519C207.501 264.338 205.997 266.003 204.617 267.78C204.345 268.142 204.028 268.438 203.513 268.46C203.158 267.876 203.007 267.23 202.955 266.521C207.092 262.286 210.402 257.453 213.117 252.196C214.345 249.812 215.525 247.401 216.327 244.811C216.457 244.367 216.553 243.983 216.229 243.418C215.397 244.353 214.826 245.38 214.415 246.42C212.903 250.316 210.596 253.773 208.556 257.384C206.967 260.178 204.855 262.57 202.683 265.286C201.663 263.24 201.31 261.2 200.482 259.365C201.201 257.864 202.428 256.897 203.375 255.728C206.164 252.27 208.921 248.794 210.934 244.828C211.85 243.022 212.805 241.219 213.255 239.204C213.345 238.757 213.457 238.343 213.104 237.94C212.509 237.736 212.325 238.128 212.163 238.554C211.209 241.155 210.097 243.666 208.676 246.058C206.627 249.504 204.179 252.66 201.646 255.747C201.157 256.342 200.884 257.142 199.915 257.66C197.851 252.556 195.775 247.585 193.295 242.839C196.648 237.712 200.154 232.792 201.581 226.792C201.668 226.423 201.832 225.919 201.167 225.475C199.812 227.027 199.829 229.212 198.839 230.895C197.805 232.653 197.432 234.752 196.163 236.374C194.91 237.965 193.861 239.714 192.646 241.566C189.775 236.156 186.671 231.149 183.352 226.298C184.937 222.784 187.31 219.684 187.532 215.702C186.61 215.448 186.329 215.864 186.211 216.395C185.718 218.704 184.466 220.695 183.719 222.898C183.5 223.57 183.223 224.268 182.345 224.738C179.186 220.299 176.034 215.883 172.883 211.468C173.173 209.401 175.113 208.107 175.036 205.987C175.027 205.822 174.784 205.662 174.593 205.412C173.14 206.588 172.923 208.418 172.116 209.928C171.37 209.477 171.039 208.926 170.772 208.153C172.267 206.722 173.167 204.907 173.471 202.309C171.579 203.81 171.164 205.766 170.14 207.469C167.613 203.933 165.235 200.464 163.118 196.906C163.501 195.152 164.613 193.659 163.929 191.647C162.336 192.303 163.006 194.048 161.985 195.094C161.418 194.187 160.832 193.35 160.328 192.48C152.96 179.901 147.011 166.785 143.135 152.871C141.659 147.548 140.012 142.266 138 137.072C137.526 135.86 136.722 134.857 135.96 133.818C135.693 133.444 135.326 133.173 134.829 133.344C134.472 134.036 135.153 134.31 135.428 134.668C136.772 136.442 137.773 138.338 138.29 140.493C139.175 144.118 140.206 147.707 141.164 151.313C141.342 151.695 141.429 152.125 141.665 153.06Z" fill="#CBC8C1"/>
<path d="M312.214 281.49C313.917 282.934 315.396 284.547 317.16 285.886C319.486 287.629 321.882 289.214 324.449 290.576C327.825 292.387 331.26 293.952 334.93 295.034C341.025 296.818 347.263 297.445 353.518 297.823C353.703 297.83 353.899 297.744 354.143 297.685C353.558 297.027 352.817 297.258 352.185 297.192C346.844 296.644 341.545 295.88 336.321 294.439C330.373 292.801 324.918 290.089 319.88 286.618C314.371 282.836 310.096 277.969 307.594 271.769C307.434 271.357 307.2 270.962 307.015 270.556C306.868 270.231 306.728 269.891 306.566 269.518C306.122 269.78 306.367 270.082 306.431 270.298C308.559 277.401 311.802 283.949 317.18 289.413C320.865 293.16 325.302 295.784 330.071 297.94C337.637 301.352 345.64 302.441 353.709 303.307C362.738 304.289 371.753 305.402 380.781 306.423C382.237 306.585 383.711 306.937 385.197 306.358C381.723 305.769 378.251 305.141 374.759 304.622C366.065 303.314 357.339 302.388 348.606 301.438C342.635 300.784 336.768 299.552 331.212 297.161C323.34 293.771 316.578 288.966 312.214 281.49Z" fill="#CBC8C1"/>
<path d="M338.335 197.583C342.471 194.765 346.416 192.096 350.33 189.409C360.61 182.359 370.896 175.334 381.131 168.218C389.267 162.563 396.773 156.185 403.454 148.952C406.258 145.903 408.836 142.664 410.947 139.075C411.119 138.775 411.269 138.443 411.557 137.871C409.697 138.991 408.861 140.623 407.779 141.993C400.699 150.971 392.192 158.467 382.915 165.158C371.678 173.251 360.266 181.103 348.977 189.106C345.63 191.462 342.382 193.975 339.097 196.407C338.783 196.624 338.439 196.785 338.335 197.583Z" fill="#CBC8C1"/>
<path d="M344.378 93.1813C343.903 93.0265 343.669 93.2506 343.515 93.481C341.437 96.47 338.847 99.0432 336.366 101.68C330.857 107.575 325.519 113.608 320.22 119.684C316.401 124.062 312.668 128.508 309.036 133.033C305.851 136.999 302.768 141.044 299.716 145.106C294.215 152.402 289.928 160.419 285.492 168.37C285.457 168.43 285.47 168.517 285.442 168.601C286.043 168.429 286.129 167.88 286.371 167.461C288.803 163.061 291.689 158.923 294.426 154.718C296.486 151.579 298.658 148.465 301.054 145.54C303.435 142.606 305.636 139.548 307.985 136.596C310.513 133.408 313.047 130.244 315.676 127.134C319.196 122.983 322.756 118.875 326.346 114.784C330.072 110.533 333.86 106.317 337.632 102.092C339.724 99.7694 341.628 97.2987 343.517 94.8189C343.922 94.3345 344.32 93.826 344.378 93.1813Z" fill="#CBC8C1"/>
<path d="M234.706 174.895C234.261 173.74 233.363 173.081 232.587 172.393C226.634 167.098 222.657 160.59 219.687 153.426C216.481 145.726 214.862 137.707 214.173 129.565C213.199 117.847 213.085 106.127 213.805 94.4502C213.963 91.8873 214.544 89.3893 214.559 86.7837C213.981 86.7691 214.013 87.1865 213.969 87.4805C211.606 102.699 211.68 118.048 213.343 133.476C214.317 142.54 216.799 151.278 221.157 159.523C223.309 163.601 225.774 167.499 229.33 170.631C231.016 172.104 232.632 173.696 234.706 174.895Z" fill="#CBC8C1"/>
<path d="M332.439 248.313C336.446 247.793 339.93 247.272 343.44 246.924C355.768 245.704 368.141 244.769 380.512 243.874C390.482 243.147 400.436 242.231 410.453 241.932C413.76 241.826 417.062 241.838 420.415 241.8C420.122 240.891 419.429 241.33 418.98 241.31C410.972 240.994 403.007 241.222 395.04 241.709C380.475 242.594 365.921 243.606 351.416 245.006C345.889 245.545 340.367 246.187 334.953 247.33C334.24 247.477 333.483 247.519 332.439 248.313Z" fill="#CBC8C1"/>
<path d="M301.732 116.11C298.615 119.018 296.225 122.405 293.704 125.657C292.274 127.484 291.148 129.547 289.703 131.366C287.744 133.824 286.198 136.542 284.457 139.128C281.82 143.051 279.378 147.106 277.453 151.46C277.303 151.793 277.184 152.143 277.003 152.458C274.586 156.687 272.743 161.188 270.923 165.723C269.067 170.317 267.577 175.002 266.553 179.857C266.336 180.849 266.15 181.859 266.005 182.872C265.928 183.367 265.851 183.9 266.358 184.432C266.937 183.79 266.939 182.953 267.105 182.231C268.352 176.447 270.191 170.866 272.409 165.425C273.896 161.795 275.595 158.268 277.287 154.717C279.981 149.03 283.197 143.667 286.461 138.33C288.196 135.502 290.041 132.698 292.019 129.99C293.386 128.127 294.77 126.233 296.035 124.291C297.232 122.468 298.599 120.784 299.874 119.007C300.506 118.055 301.1 117.062 301.732 116.11Z" fill="#CBC8C1"/>
<path d="M268.078 216.648C268.608 200.253 275.55 187.702 289.663 179.454C289.456 178.796 289.13 179.107 288.904 179.136C288.605 179.182 288.343 179.31 288.072 179.453C284.181 181.336 280.68 183.742 277.885 186.956C275.73 189.423 273.716 192.01 272.202 194.927C269.018 201.069 266.811 207.476 267.275 214.628C267.298 214.841 267.233 215.063 267.194 215.459C259.537 211.015 253.224 205.113 246.662 198.987C249.638 204.178 260.877 214.284 268.078 216.648Z" fill="#CBC8C1"/>
<path d="M379.287 165.456C378.232 165.325 377.912 165.699 377.558 165.913C362.631 175.286 348.001 185.051 333.959 195.613C330.092 198.507 326.457 201.655 323.014 205.013C322.195 205.817 321.437 206.696 320.727 207.602C321.921 207.055 322.97 206.324 323.935 205.485C331.212 199.035 339.278 193.539 347.129 187.799C356.825 180.711 367.016 174.288 376.787 167.323C377.54 166.78 378.261 166.219 379.287 165.456Z" fill="#CBC8C1"/>
<path d="M392.416 299.874C390.549 298.935 388.791 298.459 387.058 297.977C378.327 295.569 369.481 293.834 360.52 292.952C354.651 292.377 348.774 291.778 343.025 290.195C337.491 288.675 332.18 286.585 327.362 283.422C324.503 281.551 321.679 279.58 319.058 277.366C317.845 276.346 316.522 275.442 315.183 274.568C316.241 276.258 317.8 277.478 319.32 278.656C322.33 280.995 325.366 283.288 328.606 285.299C336.105 289.952 344.265 292.369 352.858 293.379C360.3 294.243 367.761 294.818 375.148 296.25C380.35 297.257 385.548 298.343 390.631 299.882C391.172 300.034 391.643 300.307 392.416 299.874Z" fill="#CBC8C1"/>
<path d="M216.236 113.882C215.737 124.631 217.07 135.22 220.824 145.532C222.693 150.683 224.579 155.805 227.117 160.704C231.536 169.244 237.545 176.588 244.971 182.855C245.143 182.994 245.373 183.067 245.901 183.312C244.823 182.13 243.969 181.178 243.106 180.24C242.173 179.242 241.232 178.259 240.299 177.261C233.394 169.799 228.175 161.375 224.609 152.01C222.237 145.769 219.937 139.511 218.604 132.993C217.669 128.401 217.001 123.784 216.687 119.132C216.588 117.378 216.4 115.633 216.236 113.882Z" fill="#CBC8C1"/>
<path d="M415.521 231.334C413.83 231.396 412.516 231.495 411.207 231.477C406.524 231.426 401.864 230.969 397.199 230.45C389.23 229.558 381.265 228.55 373.266 228.219C365.386 227.898 357.607 228.494 349.887 229.603C348.837 229.755 347.797 230.032 346.848 230.661C349.129 230.483 351.432 230.376 353.692 230.125C364.42 228.957 375.188 229.39 385.976 230.553C392.666 231.264 399.359 232.117 406.064 232.478C408.253 232.605 410.436 232.669 412.615 232.45C413.558 232.376 414.524 232.336 415.521 231.334Z" fill="#CBC8C1"/>
<path d="M213.487 75.6022C212.387 76.6028 212.254 77.9229 211.88 79.0437C209.722 85.4393 207.826 91.926 206.708 98.6234C204.327 113.071 205.497 127.315 211.054 141.321C211.821 143.26 212.448 145.259 213.49 147.158C214.107 146.776 213.667 146.342 213.559 146.021C212.771 143.61 211.967 141.19 211.106 138.797C207.44 128.558 206.498 118.096 207.006 107.515C207.351 100.232 208.956 93.1977 210.815 86.2306C211.728 82.867 212.529 79.4789 213.744 76.2097C213.771 76.1258 213.633 75.9661 213.487 75.6022Z" fill="#CBC8C1"/>
<path d="M282.21 162.167C282.624 161.848 282.779 161.798 282.848 161.678C284.939 157.759 287.602 154.19 289.983 150.458C291.534 148.022 293.25 145.662 294.926 143.298C296.814 140.639 298.75 138.006 300.786 135.452C303.931 131.483 307.17 127.568 310.758 123.955C317.399 117.258 324.087 110.588 330.712 103.881C331.465 103.119 332.366 102.463 332.979 101.181C329.076 104.253 325.791 107.522 322.405 110.713C316.692 116.091 311.078 121.586 305.922 127.486C303.054 130.756 300.334 134.133 297.722 137.612C294.195 142.317 290.878 147.165 287.757 152.145C285.939 155.045 283.989 157.848 282.619 160.987C282.512 161.245 282.445 161.505 282.21 162.167Z" fill="#CBC8C1"/>
<path d="M295.904 248.937C296.409 249.369 296.765 249.695 297.207 250.09C295.916 255.09 296.678 259.98 298.736 264.801C299.949 267.636 300.903 269.105 302.989 270.789C301.982 268.831 301.101 267.344 300.425 265.757C299.749 264.169 299.252 262.525 298.779 260.875C298.285 259.153 298.002 257.393 298.009 255.601C298.011 253.926 297.998 252.242 298.263 250.62C299.192 250.279 299.808 250.954 300.5 251.134C303.892 252.077 307.24 251.935 310.589 251.356C318.621 249.951 325.467 246.464 330.913 240.611C333.356 237.972 335.226 234.982 336.54 231.611C335.643 232.769 334.714 233.908 333.864 235.093C327.53 244.084 318.792 249.292 307.485 250.421C303.604 250.833 299.811 250.077 295.904 248.937Z" fill="#CBC8C1"/>
<path d="M294.376 173.839C295.01 174.664 295.519 174.36 295.975 174.224C297.704 173.727 299.241 172.839 300.74 171.909C310.317 166.11 318.997 159.254 326.294 150.84C329.828 146.777 332.925 142.421 335.843 137.902C338.427 133.928 340.876 129.896 343.184 125.783C343.643 124.951 344.125 124.152 344.474 123.256C342.626 126.498 340.175 129.371 338.343 132.622C336.735 135.484 334.822 138.15 332.933 140.81C327.687 148.133 321.524 154.688 314.501 160.447C309.695 164.394 304.668 168.034 299.251 171.189C297.713 172.115 296.075 172.925 294.376 173.839Z" fill="#CBC8C1"/>
<path d="M351.038 262.561C352.124 263.548 353.464 263.803 354.752 264.148C361.391 265.968 368.164 266.608 374.957 266.96C385.311 267.493 395.433 266.356 405.28 263.663C410.472 262.251 415.421 260.241 420.185 257.863C420.832 257.539 421.51 257.272 421.933 256.538C399.391 266.867 375.714 268.336 351.038 262.561Z" fill="#CBC8C1"/>
<path d="M225.906 169.77C224.789 168.147 223.155 167.202 221.906 165.882C215.912 159.565 211.936 152.219 209.12 144.205C205.076 132.689 203.526 120.916 203.799 108.96C203.814 108.389 203.974 107.784 203.651 107.218C203.128 107.435 203.206 107.918 203.189 108.348C202.679 117.553 202.894 126.737 205.32 135.863C207.32 143.405 209.784 150.756 213.968 157.524C216.332 161.344 219.079 164.827 222.58 167.728C223.583 168.567 224.652 169.185 225.906 169.77Z" fill="#CBC8C1"/>
<path d="M406.91 131.637C405.075 131.914 403.537 132.622 402.029 133.386C393.959 137.363 386.236 141.9 379.005 147.18C370.733 153.216 362.938 159.766 355.596 166.837C355.179 167.235 354.693 167.533 354.658 168.211C361.644 162.629 368.333 156.797 375.462 151.439C385.133 144.176 395.487 137.907 406.364 132.439C406.586 132.308 406.925 132.265 406.91 131.637Z" fill="#CBC8C1"/>
<path d="M377.466 238.904C399.746 238.662 421.981 237.297 444.571 239.171C444.05 238.331 443.387 238.427 442.876 238.331C438.307 237.428 433.715 237.29 429.11 237.104C412.017 236.451 395.067 237.476 378.13 238.769C377.888 238.789 377.685 238.851 377.466 238.904Z" fill="#CBC8C1"/>
<path d="M308.009 179.955C310.52 178.792 312.525 177.237 314.605 175.805C323.075 169.964 330.537 163.043 337.257 155.374C340.025 152.205 342.591 148.879 344.884 145.336C347.604 141.161 349.644 136.714 351.411 132.088C351.85 130.965 352.739 130.002 352.531 128.585C352.004 128.919 351.808 129.404 351.605 129.866C350.584 132.109 349.61 134.379 348.557 136.604C347.084 139.704 345.43 142.718 343.457 145.489C341.271 148.555 338.937 151.516 336.463 154.357C329.978 161.762 322.861 168.484 314.966 174.417C312.98 175.903 310.978 177.38 308.961 178.848C308.621 179.111 308.212 179.313 308.009 179.955Z" fill="#CBC8C1"/>
<path d="M223.037 106.126C222.31 107.641 222.456 111.058 223.015 117.608C224.446 134.42 230.235 149.957 239.094 164.635C238.682 163.679 238.287 162.692 237.851 161.742C235.641 156.892 233.291 152.103 231.326 147.155C228.118 139.096 226.132 130.804 224.941 122.333C224.231 117.353 223.658 112.352 223.447 107.34C223.415 106.923 223.449 106.464 223.037 106.126Z" fill="#CBC8C1"/>
<path d="M349.109 98.1451C348.467 101.904 347.544 105.101 346.256 108.168C345.528 109.902 344.926 111.709 344.032 113.367C341.491 118.103 338.799 122.773 335.592 127.105C331.571 132.523 327.224 137.672 322.396 142.424C320.475 144.307 318.64 146.259 316.773 148.193C316.572 148.396 316.488 148.687 316.16 149.256C319.444 146.604 322.129 143.866 324.844 141.185C327.677 138.373 330.534 135.554 333.002 132.432C335.073 129.817 337.222 127.249 338.896 124.345C339.517 123.267 340.387 122.374 341.047 121.338C343.351 117.702 345.207 113.866 346.836 109.88C347.967 107.121 348.97 104.329 349.499 101.383C349.65 100.433 349.872 99.5035 349.109 98.1451Z" fill="#CBC8C1"/>
<path d="M332.43 114.966C328.762 118.792 325.555 122.725 322.333 126.609C319.357 130.177 316.428 133.772 313.702 137.523C311.103 141.089 308.356 144.55 305.679 148.071C303.358 151.119 301.043 154.191 298.691 157.221C296.407 160.131 294.07 162.99 291.779 165.876C291.509 166.199 291.184 166.51 291.228 167.014C292.57 166.752 292.966 165.485 293.698 164.651C296.422 161.556 298.968 158.299 301.569 155.093C303.941 152.174 306.337 149.249 308.64 146.27C310.544 143.799 312.317 141.232 314.19 138.743C315.979 136.365 317.844 134.071 319.664 131.711C321.213 129.713 322.739 127.682 324.312 125.678C326.503 122.893 328.717 120.103 330.954 117.345C331.487 116.675 331.909 115.942 332.43 114.966Z" fill="#CBC8C1"/>
<path d="M406.088 164.195C404.104 165.023 403.467 166.491 402.547 167.615C396.598 174.813 389.817 181.131 382.054 186.463C375.506 190.96 368.589 194.825 361.19 197.893C360.414 198.223 359.675 198.633 359.034 199.201C368.462 196.208 377.058 191.717 384.949 185.98C393.162 180.011 400.073 172.851 406.088 164.195Z" fill="#CBC8C1"/>
<path d="M253.655 183.313C254.771 179.268 251.22 160.612 247.528 150.557C244.373 141.968 239.725 133.136 237.221 131.231C241.752 139.576 245.656 147.918 248.142 156.759C250.616 165.512 252.167 174.411 253.655 183.313Z" fill="#CBC8C1"/>
<path d="M441.033 243.949C419.811 253.661 397.489 259.105 373.205 257.887C377.147 259.406 391.551 259.087 402.981 256.989C416.402 254.525 429.38 250.867 441.033 243.949Z" fill="#CBC8C1"/>
<path d="M337.304 226.169C338.537 226.502 339.188 226.099 339.902 225.913C350.552 223.064 361.387 221.2 372.628 222.085C380.399 222.703 388.022 224.413 395.601 226.237C395.405 225.704 394.822 225.627 394.33 225.462C393.822 225.289 393.33 225.124 392.806 224.981C384.94 222.892 376.976 221.264 368.897 220.708C363.19 220.325 357.589 220.922 352.038 221.866C348.114 222.533 344.233 223.306 340.477 224.589C339.49 224.957 338.433 225.264 337.304 226.169Z" fill="#CBC8C1"/>
<path d="M331.522 216.487C322.502 232.645 309.089 242.295 289.36 242.669C292.104 243.357 294.839 243.48 297.583 243.15C303.637 242.418 309.108 240.191 314.186 237.119C318.803 234.339 322.789 230.876 326.106 226.646C328.238 223.928 329.734 220.861 331.48 217.939C331.738 217.529 331.998 217.041 331.522 216.487Z" fill="#CBC8C1"/>
<path d="M410.341 133.359C402.811 135.454 366.977 160.542 363.279 166.267C378.32 154.446 394.109 143.615 410.341 133.359Z" fill="#CBC8C1"/>
<path d="M263.442 184.764C264.167 184.305 264.044 183.756 264.065 183.249C264.378 177.265 265.867 171.561 267.713 165.964C269.213 161.404 270.996 156.968 273.072 152.641C274.149 150.41 275.398 148.279 276.42 146.036C278.348 141.783 280.74 137.778 282.857 133.634C280.136 138.028 276.734 142.008 274.812 146.902C274.303 148.184 273.447 149.306 272.82 150.54C268.581 158.764 265.314 167.371 263.636 176.557C263.192 179.213 262.811 181.906 263.442 184.764Z" fill="#CBC8C1"/>
<path d="M260.116 129.285C264.635 121.082 269.35 113.012 276.509 106.654C283.586 100.367 291.519 95.3536 300.32 91.5201C299.77 90.8035 299.359 91.2639 299.032 91.3946C287.972 95.6985 278.564 102.254 270.726 110.914C268.181 113.733 265.907 116.769 264.145 120.081C262.599 123.018 260.759 125.846 260.116 129.285Z" fill="#CBC8C1"/>
<path d="M330.741 212.406C340.01 209.517 349.319 208.667 358.833 209.313C368.292 209.947 377.516 211.824 386.565 215.495C386.454 214.233 385.384 214.054 384.68 213.787C382.487 212.939 380.269 212.136 378.011 211.511C367.136 208.501 356.14 207.299 345.043 208.453C340.54 208.925 336.164 209.83 331.971 211.4C331.58 211.533 331.089 211.549 330.741 212.406Z" fill="#CBC8C1"/>
<path d="M250.499 188.892C250.642 183.666 249.88 178.557 248.675 173.49C245.275 159.113 240.739 145.037 235.521 131.127C235.427 130.853 235.269 130.582 234.988 129.98C234.764 130.769 235.011 131.211 235.132 131.62C237.679 139.518 240.43 147.353 242.726 155.325C245.154 163.793 247.461 172.29 248.926 180.939C249.218 182.684 249.389 184.459 249.633 186.216C249.756 187.166 249.814 188.118 250.499 188.892Z" fill="#CBC8C1"/>
<path d="M323.473 89.1304C322.014 89.2651 320.857 89.8933 319.68 90.4103C313.178 93.3381 307.344 97.25 301.777 101.535C295.926 106.057 290.849 111.343 286.243 117.082C285.137 118.458 284.204 119.895 283.451 121.455C287.411 117.199 291.115 112.734 295.377 108.752C303.244 101.386 311.988 95.1845 321.883 90.546C322.767 90.1387 322.758 90.1536 323.473 89.1304Z" fill="#CBC8C1"/>
<path d="M299.835 182.196C298.623 181.794 298.016 182.122 297.39 182.299C289.955 184.528 283.705 188.439 278.9 194.381C274.272 200.087 271.465 206.626 270.276 213.879C269.85 216.506 269.825 219.126 270.634 221.788C271.348 221.601 271.008 221.066 270.956 220.757C270.309 216.073 271.574 211.736 272.982 207.442C274.251 203.607 276.293 200.137 278.591 196.876C281.971 192.065 286.346 188.249 291.743 185.601C293.601 184.699 295.467 183.822 297.452 183.173C298.127 182.945 298.781 182.644 299.835 182.196Z" fill="#CBC8C1"/>
<path d="M338.169 165.513C340.539 163.65 342.34 161.359 344.179 159.149C346.842 155.98 349.328 152.647 351.234 148.94C351.861 147.707 352.559 146.533 352.998 145.191C353.293 144.244 353.922 143.371 354.5 142.548C358.863 136.25 364.288 131.045 371.131 127.337C371.32 127.226 371.509 127.116 371.675 126.973C371.716 126.937 371.728 126.844 371.869 126.527C371.145 126.767 370.562 126.908 370.031 127.14C364.732 129.585 360.284 133.021 356.597 137.495C354.572 139.956 353.154 142.707 351.805 145.519C349.862 149.544 347.285 153.143 344.693 156.733C342.951 159.138 340.998 161.402 339.101 163.677C338.671 164.207 338.249 164.721 338.169 165.513Z" fill="#CBC8C1"/>
<path d="M379.744 250.671C378.664 250.147 378.008 250.267 377.364 250.294C368.024 250.546 358.683 250.798 349.343 251.05C341.426 251.266 333.522 251.57 325.698 252.498C324.64 252.625 323.467 252.626 322.753 253.392C322.722 253.773 322.815 253.866 323.017 253.843C328.354 253.015 333.772 252.772 339.182 252.544C350.38 252.048 361.6 251.625 372.806 251.153C374.964 251.043 377.109 250.845 379.744 250.671Z" fill="#CBC8C1"/>
<path d="M303.399 121.822C308.291 116.168 312.817 110.603 318.103 105.716C325.307 99.064 333.115 93.1798 342.18 88.9997C343.088 88.5865 344.004 88.1583 344.738 87.2852C343.808 87.047 343.26 87.4888 342.68 87.7324C335.173 90.6979 328.614 95.0689 322.548 100.183C317.903 104.104 313.87 108.558 309.899 113.087C308.267 114.938 306.69 116.839 305.175 118.778C304.532 119.603 304.09 120.624 303.399 121.822Z" fill="#CBC8C1"/>
<path d="M213.068 203.103C210.405 200.128 208.269 196.858 206.363 193.442C200.279 182.523 197.395 170.957 197.46 158.781C197.459 157.583 197.58 156.356 197.179 155.126C192.861 165.923 203.17 197.165 213.068 203.103Z" fill="#CBC8C1"/>
<path d="M248.394 120.764C249.258 120.206 249.085 119.348 249.216 118.685C250.186 113.739 251.29 108.851 253.147 104.178C254.281 101.342 255.682 98.6202 256.705 95.7593C257.672 93.0661 259.417 90.7627 260.258 88.0361C260.424 87.4938 260.789 87.0062 261.082 86.4973C263.492 82.2436 265.909 78.014 268.319 73.7603C268.56 73.3412 268.755 72.8949 269.015 72.4069C268.136 72.3377 267.911 72.9458 267.61 73.4307C264.215 79.0306 260.781 84.6274 257.825 90.4809C255.548 95.0111 253.435 99.6558 251.772 104.461C249.933 109.683 248.665 115.036 248.394 120.764Z" fill="#CBC8C1"/>
<path d="M306.437 95.5901C296.235 99.7913 275.986 117.541 268.864 138.824C270.298 136.699 271.614 134.487 272.671 132.145C274.019 129.153 275.587 126.288 277.601 123.701C278.803 122.161 279.786 120.454 280.965 118.881C285.086 113.401 289.917 108.611 295.074 104.128C298.626 101.013 302.355 98.0999 306.437 95.5901Z" fill="#CBC8C1"/>
<path d="M352.416 148.126C351.383 148.866 351.564 149.968 351.113 150.785C348.79 155.069 346.366 159.275 343.283 163.1C337.726 169.984 331.113 175.76 324.189 181.277C324.031 181.405 323.857 181.563 323.962 181.924C327.052 180.337 329.736 178.257 332.336 176.068C336.906 172.204 341.182 168.051 344.886 163.367C347.338 160.275 349.437 156.959 351.191 153.444C352.369 151.111 352.581 150.017 352.416 148.126Z" fill="#CBC8C1"/>
<path d="M393.336 203.227C407.857 194.237 423.455 187.265 439.973 181.604C432.522 181.27 398.459 197.028 393.336 203.227Z" fill="#CBC8C1"/>
<path d="M284.133 108.005C282.127 108.84 280.747 110.437 279.337 111.977C276.434 115.128 273.781 118.463 271.236 121.9C268.215 125.981 266.004 130.469 263.896 134.997C261.136 140.944 259.231 147.185 258.832 153.857C258.793 154.433 258.785 155.027 258.801 155.615C258.796 155.732 258.911 155.858 258.969 156.011C259.596 155.576 259.568 154.901 259.65 154.25C260.294 149.834 261.113 145.479 262.606 141.294C263.637 138.418 264.659 135.557 266.108 132.863C266.897 131.384 267.569 129.857 268.327 128.36C269.929 125.255 272.007 122.446 274.039 119.61C276.318 116.417 278.876 113.466 281.55 110.602C282.396 109.714 283.28 108.868 284.133 108.005Z" fill="#CBC8C1"/>
<path d="M243.098 104.72C244.409 102.046 245.752 99.3902 246.992 96.695C248.821 92.7242 251.002 88.9766 253.552 85.4223C256.418 81.3923 259.649 77.6725 262.949 74.013C264.746 72.0188 266.636 70.1179 268.534 68.202C269.045 67.679 269.585 67.213 269.87 66.5001C266.725 67.3166 256.867 78.6192 253.325 83.3157C248.451 89.7772 245.324 97.0879 243.098 104.72Z" fill="#CBC8C1"/>
<path d="M341.292 178.186C343.193 177.609 343.51 175.717 344.753 174.54C346.055 173.297 347.01 171.714 348.15 170.317C349.239 168.972 350.376 167.653 351.512 166.334C352.715 164.974 353.924 163.638 355.158 162.296C356.333 161.019 357.539 159.761 358.762 158.512C360.05 157.221 361.345 155.954 362.663 154.72C363.939 153.523 365.238 152.358 366.544 151.217C367.909 150.01 369.296 148.837 370.668 147.654C371.975 146.514 373.296 145.382 374.653 144.19C373.973 143.917 373.69 144.372 373.376 144.59C365.732 150.229 358.536 156.327 352.247 163.427C349.506 166.512 346.874 169.7 344.335 172.942C343.124 174.536 342.301 176.435 341.292 178.186Z" fill="#CBC8C1"/>
<path d="M210.795 177.546C212.573 186.819 216.788 195.024 223.222 202.215C228.47 208.083 234.407 213.011 241.793 216.08C239.287 213.813 236.177 212.376 233.562 210.226C230.915 208.058 228.318 205.839 225.958 203.357C223.642 200.941 221.518 198.376 219.56 195.667C217.556 192.892 215.872 189.963 214.476 186.86C213.095 183.806 212.226 180.588 210.795 177.546Z" fill="#CBC8C1"/>
<path d="M300 180.057C301.086 180.605 301.78 180.128 302.492 179.801C307.803 177.303 312.589 174.082 316.98 170.314C323.6 164.602 329.757 158.422 335.192 151.607C336.173 150.377 337.413 149.278 337.973 147.726C337.365 147.475 337.147 147.888 336.902 148.205C329.087 158.314 319.927 167.089 309.409 174.48C307.377 175.899 305.123 177.051 302.984 178.329C301.974 178.883 300.987 179.47 300 180.057Z" fill="#CBC8C1"/>
<path d="M396.83 208.755C397.905 209.216 398.801 208.896 399.709 208.702C406.331 207.24 412.435 204.641 418.281 201.474C424.512 198.11 430.484 194.397 436.276 190.38C437.044 189.846 437.835 189.345 438.446 188.541C437.661 188.267 437.309 188.842 436.872 189.128C429.203 193.896 421.45 198.555 413.29 202.541C408.972 204.656 404.506 206.445 399.835 207.757C398.82 208.029 397.824 208.411 396.83 208.755Z" fill="#CBC8C1"/>
<path d="M299.089 268.381C293.036 261.511 289.723 254.068 289.481 245.185C287.814 248.513 288.906 253.596 292.791 261.828C292.119 261.939 291.923 261.407 291.617 261.03C288.251 256.73 286.328 251.926 285.701 246.654C285.513 245.128 285.534 243.564 285.104 242.058C284.53 242.145 284.514 242.535 284.509 242.872C284.453 250.564 286.671 257.474 292.546 263.124C292.872 263.432 293.199 263.881 293.581 263.982C294.657 264.224 295.121 265.09 295.792 265.778C296.65 266.653 297.211 267.895 299.089 268.381Z" fill="#CBC8C1"/>
<path d="M378.956 201.308C380.239 201.151 381.162 200.567 382.113 200.079C387.882 197.147 392.81 193.171 397.249 188.593C400.347 185.395 403.189 181.989 405.343 178.106C406.321 176.337 407.127 174.468 407.608 172.472C407.695 172.103 407.765 171.764 407.455 171.466C407.078 171.467 406.963 171.74 406.856 171.997C403.971 179.508 398.838 185.401 393.034 190.787C389.224 194.311 385.131 197.493 380.502 200.006C379.961 200.292 379.287 200.481 378.956 201.308Z" fill="#CBC8C1"/>
<path d="M354.437 151.906C358.22 148.685 361.874 145.469 365.652 142.364C370.974 137.997 376.624 134.078 382.754 130.816C384.117 130.086 385.486 129.381 386.991 128.914C387.3 128.813 387.766 128.803 387.731 128.065C386.441 127.978 385.262 128.354 384.151 128.829C382.532 129.53 380.935 130.303 379.375 131.158C370.891 135.853 363.48 141.847 356.858 148.796C355.986 149.728 354.979 150.603 354.437 151.906Z" fill="#CBC8C1"/>
<path d="M278.146 233.683C277.772 232.409 277.979 231.252 278.224 230.136C279.136 226.015 281.077 222.428 283.502 219.02C287.825 212.899 293.847 208.657 299.862 204.391C300.25 204.117 300.863 204.032 300.959 203.249C299.894 203.791 298.913 204.222 298.008 204.777C292.873 207.915 287.936 211.327 284.074 215.959C281.021 219.622 278.574 223.615 277.296 228.263C276.928 229.627 276.849 230.998 277.001 232.403C277.081 233.027 277.309 233.538 278.146 233.683Z" fill="#CBC8C1"/>
<path d="M318.124 204.662C315.72 204.73 313.824 205.949 311.962 207.108C302.222 213.113 292.649 219.334 286.131 228.936C289.575 226.157 292.363 222.7 295.8 219.897C299.254 217.064 302.935 214.563 306.587 212.004C310.321 209.412 314.191 207.019 318.124 204.662Z" fill="#CBC8C1"/>
<path d="M273.149 227.088C273.623 219.481 276.79 212.971 280.767 206.869C284.754 200.714 290.379 196.143 297.01 192.692C296.911 192.575 296.811 192.457 296.711 192.34C296.525 192.372 296.31 192.347 296.154 192.437C290.929 195.044 286.088 198.073 282.403 202.688C278.508 207.56 275.58 212.93 273.744 218.873C272.956 221.51 272.54 224.262 273.149 227.088Z" fill="#CBC8C1"/>
<path d="M305.977 253.68C306.38 255.852 307.25 257.613 308.122 259.335C311.342 265.67 315.858 270.957 321.691 275.266C325.329 277.967 329.279 280.129 333.23 282.252C336.575 284.045 340.139 285.385 343.729 286.68C344.14 286.838 344.607 286.828 345.142 286.917C344.055 285.75 342.599 285.587 341.371 285.137C335.914 283.083 330.909 280.172 325.965 277.156C322.362 274.974 319.173 272.292 316.271 269.258C312.668 265.478 309.872 261.205 307.86 256.447C307.515 255.628 307.081 254.818 306.663 254.017C306.617 253.951 306.425 253.92 305.977 253.68Z" fill="#CBC8C1"/>
<path d="M407.916 183.462C422.323 178.015 424.224 175.481 445.346 174.772C445.2 174.189 444.715 174.268 444.283 174.218C439.592 173.563 434.947 173.773 430.382 174.608C422.749 176.006 415.687 178.811 409.031 182.509C408.613 182.726 408.021 182.844 407.916 183.462Z" fill="#CBC8C1"/>
<path d="M232.136 185.343C236.017 195.872 249.684 210.977 257.773 212.935C257.594 212.373 257.047 212.196 256.647 211.945C249.764 207.749 244.256 202.15 239.567 195.747C237.325 192.694 235.117 189.621 233.196 186.375C232.993 186.037 232.892 185.52 232.136 185.343Z" fill="#CBC8C1"/>
<path d="M292.201 234.216C300.972 233.198 308.497 229.804 314.717 223.88C319.734 219.097 323.896 213.621 324.213 210.891C316.29 222.495 306.496 231.242 292.201 234.216Z" fill="#CBC8C1"/>
<path d="M363.268 202.961C364.474 203.339 365.627 203.227 366.777 203.013C372.514 201.958 377.654 199.58 382.556 196.705C387.647 193.721 392.186 190.097 396.102 185.736C396.288 185.523 396.387 185.242 396.586 184.897C395.876 184.747 395.635 185.166 395.301 185.492C388.962 191.767 381.612 196.599 373.197 199.938C371.059 200.778 368.899 201.546 366.645 202.079C365.501 202.356 364.396 202.675 363.268 202.961Z" fill="#CBC8C1"/>
<path d="M377.113 184.286C365.064 192.729 351.873 198.976 337.673 203.523C338.19 203.462 338.736 203.459 339.232 203.326C343.996 202.108 348.667 200.616 353.17 198.688C360.68 195.504 367.819 191.727 374.309 186.897C375.327 186.148 376.478 185.496 377.113 184.286Z" fill="#CBC8C1"/>
<path d="M325.124 215.885C323.203 216.93 322.502 218.799 321.336 220.241C316.424 226.402 310.206 230.87 302.9 233.992C298.397 235.92 293.721 237.349 288.758 237.933C288.556 237.956 288.291 237.943 288.272 238.231C299.134 238.201 317.68 230.579 325.124 215.885Z" fill="#CBC8C1"/>
<path d="M378.042 233.831C369.218 231.407 344.514 233.241 339.881 236.592C342.794 236.079 345.232 235.592 347.706 235.225C350.228 234.846 352.748 234.545 355.305 234.287C357.774 234.037 360.249 233.85 362.721 233.741C365.272 233.638 367.836 233.623 370.399 233.646C372.962 233.67 375.497 233.777 378.042 233.831Z" fill="#CBC8C1"/>
<path d="M274.23 210.477C276.785 204.411 280.959 199.819 285.615 195.626C290.28 191.418 295.685 188.395 302.05 187.304C302.008 186.322 301.442 186.434 301.04 186.441C299.279 186.481 297.66 187.003 296.077 187.644C290.267 189.953 285.601 193.762 281.433 198.198C278.573 201.235 276.332 204.688 274.497 208.416C274.164 209.102 274.164 209.102 274.23 210.477Z" fill="#CBC8C1"/>
<path d="M199.373 131.524C198.937 133.008 199.273 134.46 199.538 135.89C200.742 142.414 202.384 148.832 205.855 154.729C207.368 157.3 209.19 159.59 211.501 161.504C211.952 161.884 212.374 162.387 213.092 162.123C213.369 161.425 212.661 161.236 212.343 160.952C208.788 157.781 206.543 153.789 204.685 149.563C202.622 144.857 201.419 139.931 200.224 134.99C199.964 133.842 199.665 132.69 199.373 131.524Z" fill="#CBC8C1"/>
<path d="M204.391 165.836C203.427 166.855 203.629 167.631 203.601 168.333C203.512 170.996 203.937 173.636 204.476 176.263C206.472 185.918 210.773 194.589 217.068 202.417C217.152 202.526 217.276 202.638 217.402 202.71C217.449 202.737 217.547 202.714 217.869 202.7C213.834 197.236 210.598 191.514 208.191 185.334C205.785 179.115 204.908 172.68 204.391 165.836Z" fill="#CBC8C1"/>
<path d="M332.368 215.978C346.414 212.177 360.708 213.07 375.135 215.477C374.829 214.882 374.324 214.849 373.822 214.739C362.588 212.28 351.343 211.911 340.112 213.407C337.39 213.77 334.675 214.337 332.368 215.978Z" fill="#CBC8C1"/>
<path d="M311.71 247.255C313.043 247.267 313.768 246.988 314.494 246.709C319.573 244.795 323.729 241.649 327.444 237.89C329.553 235.757 331.295 233.351 332.864 230.846C334.075 228.892 335.059 226.748 335.529 224.445C335.74 223.39 335.961 222.28 335.314 220.969C332.132 233.715 323.95 241.956 311.71 247.255Z" fill="#CBC8C1"/>
<path d="M268.5 191.053C270.282 187.853 272.349 185.175 274.805 182.803C277.328 180.35 280.188 178.331 283.336 176.718C286.419 175.147 289.864 174.583 293.246 173.764C291.922 173.119 290.633 173.212 289.331 173.437C285.652 174.045 282.402 175.58 279.389 177.61C274.964 180.601 271.393 184.364 268.76 188.968C268.38 189.627 268.396 189.636 268.5 191.053Z" fill="#CBC8C1"/>
<path d="M385.435 253.857C391.898 255.615 423.431 251.162 430.496 246.244C416.112 251.105 401.151 253.298 385.435 253.857Z" fill="#CBC8C1"/>
<path d="M348.679 93.1306C348.158 93.3478 348.085 93.7644 347.947 94.1838C346.786 98.0815 345.223 101.807 343.415 105.451C341.249 109.825 338.574 113.886 336.126 118.097C335.548 119.1 334.97 120.103 334.517 121.178C338.697 115.773 342.658 110.241 345.472 103.946C346.724 101.158 347.912 98.3731 348.674 95.4217C348.873 94.6786 349.233 93.9091 348.679 93.1306Z" fill="#CBC8C1"/>
<path d="M410.091 151.246C404.038 159.86 396.777 167.376 388.585 174.075C395.724 170.618 408.909 157.107 410.091 151.246Z" fill="#CBC8C1"/>
<path d="M279.599 182.061C270.123 188.057 264.129 201.792 265.741 209.766C266.506 207.894 266.217 206.111 266.699 204.514C267.184 202.839 267.526 201.121 268.098 199.476C268.688 197.763 269.303 196.043 270.24 194.49C271.143 192.996 272.014 191.484 272.854 189.955C273.703 188.41 274.862 187.124 276.045 185.833C277.22 184.556 278.417 183.313 279.599 182.061Z" fill="#CBC8C1"/>
<path d="M258.897 99.7949C257.324 101.4 256.868 103.351 256.186 105.152C254.494 109.541 252.769 113.912 251.646 118.51C250.793 121.988 250.211 125.502 250.58 129.147C250.653 129.927 250.612 130.761 251.09 131.457C251.74 131.453 251.7 131.051 251.674 130.697C251.27 123.52 253.247 116.822 255.344 110.172C256.404 106.734 257.655 103.367 258.897 99.7949Z" fill="#CBC8C1"/>
<path d="M317.222 256.128C321.292 266.113 338.413 278.643 347.103 280.466C335.127 274.786 324.778 267.188 317.222 256.128Z" fill="#CBC8C1"/>
<path d="M252.869 217.621C251.338 216.497 249.671 215.973 248.12 215.137C243.635 212.706 239.95 209.358 236.553 205.658C233.779 202.657 231.213 199.476 228.928 196.099C228.654 195.701 228.566 195.091 227.759 194.964C228.088 195.993 228.64 196.852 229.202 197.695C232.771 203.133 236.887 208.168 241.977 212.347C244.733 214.618 247.81 216.476 251.335 217.374C251.828 217.499 252.349 217.541 252.869 217.621Z" fill="#CBC8C1"/>
<path d="M197.129 182.166C195.855 178.018 194.878 174.301 194.386 170.504C193.889 166.606 193.626 162.703 193.637 158.797C193.66 154.979 194.37 151.239 194.516 147.173C193.446 148.011 193.526 149.035 193.387 149.893C192.204 157.032 192.433 164.228 193.633 171.447C194.132 174.468 195.02 177.396 195.981 180.306C196.177 180.838 196.307 181.412 197.129 182.166Z" fill="#CBC8C1"/>
<path d="M379.389 127.457C378.486 126.955 378.018 127.403 377.543 127.647C375.012 128.879 372.732 130.474 370.567 132.197C366.253 135.65 362.093 139.272 358.372 143.368C357.834 143.975 357.367 144.603 357.141 145.43C364.206 139.057 371.313 132.827 379.389 127.457Z" fill="#CBC8C1"/>
<path d="M314.132 201.999C306.539 201.842 291.244 210.725 287.591 218.371C291.01 214.4 294.989 211.092 299.485 208.342C304.037 205.565 309.109 203.886 314.132 201.999Z" fill="#CBC8C1"/>
<path d="M252.353 91.6692C251.063 93.3982 249.962 95.2361 249.136 97.2131C247.965 100.008 246.635 102.751 245.691 105.658C244.767 108.496 243.938 111.349 243.801 114.382C243.71 116.245 243.801 116.596 244.68 117.902C244.922 117.882 245.119 117.757 245.097 117.505C244.763 113.003 246.038 108.831 247.4 104.69C248.854 100.243 250.781 96.0287 252.353 91.6692Z" fill="#CBC8C1"/>
<path d="M323.054 234.157C322.015 234.615 321.415 235.365 320.677 235.956C316.455 239.284 311.833 241.962 306.63 243.686C301.793 245.282 296.853 245.641 291.745 244.366C291.236 244.231 290.716 244.19 290.021 244.088C291.21 245.294 292.643 245.424 293.99 245.703C297.799 246.507 301.542 246.154 305.142 245.141C312.008 243.221 317.802 239.564 322.829 234.765C322.922 234.64 322.937 234.469 323.054 234.157Z" fill="#CBC8C1"/>
<path d="M280.48 236.466C280.792 234.871 281.297 233.307 281.911 231.806C282.151 231.207 282.441 230.596 282.791 230.06C286.311 224.752 290.465 220.049 295.721 216.302C296.547 215.702 297.275 214.985 298.04 214.31C298.132 214.223 298.131 214.043 298.268 213.624C294.204 216.683 290.156 219.352 286.797 222.858C284.367 225.404 282.444 228.304 280.796 231.382C280.092 232.711 279.843 234.123 279.824 235.608C279.803 235.935 279.754 236.346 280.48 236.466Z" fill="#CBC8C1"/>
<path d="M288.924 94.2963C290.314 93.8822 290.853 93.0563 291.513 92.4199C295.811 88.159 300.317 84.1181 305.612 81.0321C307.249 80.0819 308.974 79.3032 310.663 78.4433C310.314 77.7424 309.842 78.0885 309.477 78.1769C307.974 78.6054 306.573 79.2926 305.218 80.046C299.181 83.4018 294.142 87.8935 289.673 93.0331C289.438 93.2961 289.304 93.6377 288.924 94.2963Z" fill="#CBC8C1"/>
<path d="M263.164 208.784C256.347 202.948 249.84 197.191 244.606 190.133C244.131 190.777 244.494 191.127 244.689 191.479C246.505 194.725 249.042 197.449 251.654 200.077C254.644 203.102 257.855 205.856 261.435 208.185C261.811 208.442 262.161 208.743 263.164 208.784Z" fill="#CBC8C1"/>
<path d="M256.466 169.577C257.261 174.446 258.055 179.136 258.776 183.843C259.496 188.589 259.411 193.349 258.966 198.081C259.909 198.226 259.849 197.712 259.929 197.32C260.477 194.443 260.617 191.511 260.333 188.553C259.774 182.583 258.659 176.671 257.196 170.817C257.098 170.441 257.141 169.967 256.466 169.577Z" fill="#CBC8C1"/>
<path d="M338.586 187.873C331.931 192.847 325.636 197.67 320.309 203.571C319.797 204.133 319.243 204.731 319.327 205.637C320.165 205.962 320.536 205.318 320.864 204.969C326.13 198.953 332.394 193.933 338.302 188.547C338.344 188.511 338.347 188.433 338.586 187.873Z" fill="#CBC8C1"/>
<path d="M254.934 142.99C257.196 131.409 254.36 135.097 264.993 115.124C258.932 121.359 253.488 135.012 254.934 142.99Z" fill="#CBC8C1"/>
<path d="M199.529 144.876C196.191 134.427 194.886 123.795 195.233 113.02C193.287 118.721 194.962 135.034 199.529 144.876Z" fill="#CBC8C1"/>
<path d="M230.337 202.956C223.671 195.731 220.151 187.011 216.938 177.869C216.034 183.215 224.933 199.794 230.337 202.956Z" fill="#CBC8C1"/>
<path d="M370.012 97.7284C365.17 104.568 359.514 110.717 353.09 116.782C357.531 115.318 368.776 102.521 370.012 97.7284Z" fill="#CBC8C1"/>
<path d="M283.365 209.748C286.662 206.425 289.397 203.097 292.689 200.29C296.165 197.31 300.046 195.043 304.51 193.691C305.095 193.511 305.849 193.547 306.207 192.636C305.01 192.424 304.072 192.78 303.113 193.064C298.976 194.285 295.581 196.653 292.412 199.391C289.442 201.965 286.921 204.959 284.425 207.946C284.062 208.394 283.831 208.94 283.365 209.748Z" fill="#CBC8C1"/>
<path d="M239.283 105.171C242.006 96.749 244.717 88.8186 249.832 81.758C245.687 83.8725 238.812 99.5719 239.283 105.171Z" fill="#CBC8C1"/>
<path d="M364.385 258.02C359.159 257.675 353.932 257.331 348.733 256.683C343.485 256.047 338.305 254.931 332.815 254.134C337.514 256.63 358.799 259.244 364.385 258.02Z" fill="#CBC8C1"/>
<path d="M304.714 87.1168C307.997 84.9824 311.042 82.931 314.132 80.9849C317.181 79.0745 320.596 77.8352 323.982 76.7188C323.842 75.7996 323.363 75.9416 322.926 76.0086C320.408 76.4896 318.037 77.3344 315.828 78.5522C312.082 80.6185 308.596 83.0341 305.546 86.001C305.295 86.255 305.114 86.5693 304.714 87.1168Z" fill="#CBC8C1"/>
<path d="M296.786 229.563C305.475 227.201 312.01 221.818 317.672 215.192C317.153 214.893 316.902 215.147 316.684 215.38C311.105 221.136 304.802 225.934 297.344 229.248C297.148 229.334 296.975 229.453 296.786 229.563Z" fill="#CBC8C1"/>
<path d="M235.179 214.648C231.635 211.821 228.003 209.144 224.912 205.82C221.875 202.548 219.277 198.95 216.339 195.035C219.233 202.08 228.664 212.142 235.179 214.648Z" fill="#CBC8C1"/>
<path d="M403.997 202.422C412.749 199.117 421.179 195.208 429.004 190.17C426.094 191.223 423.423 192.733 420.671 194.056C417.886 195.4 415.138 196.826 412.33 198.137C409.505 199.478 406.636 200.714 403.772 202.012C403.855 202.16 403.922 202.298 403.997 202.422Z" fill="#CBC8C1"/>
<path d="M310.508 196.656C314.564 196.266 324.578 188.843 327.542 184.21C325.557 185.837 323.831 187.234 322.112 188.655C320.268 190.183 318.347 191.627 316.319 192.93C314.375 194.161 312.179 195.028 310.508 196.656Z" fill="#CBC8C1"/>
<path d="M426.143 173.738C419.094 173.797 408.311 178.881 404.972 183.038C405.571 183.344 405.918 182.886 406.274 182.633C412.145 178.223 418.83 175.38 426.143 173.738Z" fill="#CBC8C1"/>
<path d="M230.285 136.461C229.049 129.521 227.644 122.623 226.989 115.619C226.076 115.75 226.242 116.225 226.254 116.532C226.757 123.288 227.979 129.961 230.285 136.461Z" fill="#CBC8C1"/>
<path d="M398.188 211.654C406.158 210.651 413.527 208.403 419.567 203.192C416.078 204.848 412.755 206.8 409.131 208.218C405.564 209.61 401.804 210.43 398.188 211.654Z" fill="#CBC8C1"/>
<path d="M258.357 216.933C254.943 215.66 251.896 214.44 249.225 212.277C246.703 210.22 244.484 207.818 241.641 205.736C241.923 206.918 242.712 207.475 243.307 208.078C245.061 209.871 246.805 211.678 248.761 213.228C250.983 214.971 253.408 216.433 256.183 217.216C256.875 217.396 257.529 217.534 258.357 216.933Z" fill="#CBC8C1"/>
<path d="M351.106 113.563C353.573 107.506 358.385 103.183 362.341 98.2065C359.354 100.451 356.838 103.147 354.432 105.907C352.875 107.701 351.51 109.706 350.806 112.052C350.677 112.457 350.691 112.904 350.658 113.324C350.8 113.405 350.941 113.487 351.106 113.563Z" fill="#CBC8C1"/>
<path d="M410.161 147.756C408.686 148.719 399.764 159.845 398.635 161.767C403.06 157.719 406.838 153.558 410.034 148.92C410.264 148.594 410.553 148.202 410.161 147.756Z" fill="#CBC8C1"/>
<path d="M359.491 267.9C366.577 270.397 373.871 270.718 381.214 270.408C379.438 269.782 377.608 270.122 375.815 269.925C374.014 269.742 372.208 269.677 370.408 269.456C368.529 269.229 366.685 268.902 364.834 268.551C363.055 268.222 361.303 267.809 359.534 267.426C359.503 267.588 359.497 267.744 359.491 267.9Z" fill="#CBC8C1"/>
<path d="M357.958 123.701C361.206 122.206 363.766 119.834 366.348 117.495C368.006 115.999 369.232 114.234 370.225 112.293C370.408 111.94 370.759 111.584 370.257 110.895C369.138 111.565 368.965 112.882 368.247 113.764C367.521 114.661 366.802 115.583 366.006 116.419C365.159 117.307 364.227 118.125 363.311 118.953C362.461 119.738 361.602 120.539 360.744 121.301C359.828 122.128 358.897 122.907 357.958 123.701Z" fill="#CBC8C1"/>
<path d="M295.07 201.725C299.294 199.157 303.705 197.315 308.011 195.294C308.093 195.261 308.062 195.024 308.084 194.877C307.91 194.417 307.506 194.463 307.15 194.536C306.508 194.705 305.843 194.879 305.245 195.152C301.817 196.704 298.563 198.535 295.551 200.746C295.327 200.916 295.095 201.101 295.07 201.725Z" fill="#CBC8C1"/>
<path d="M308.833 252.869C308.904 256.563 312.908 263.208 317.304 266.846C316.816 265.586 315.701 264.722 314.973 263.623C314.222 262.49 313.406 261.4 312.737 260.234C312.022 259.003 311.463 257.682 310.757 256.436C310.144 255.283 309.916 253.934 308.833 252.869Z" fill="#CBC8C1"/>
<path d="M349.965 102.83C351.629 100.559 353.674 98.6086 355.72 96.6578C357.756 94.7219 360.19 93.2949 362.472 91.6602C358.075 92.5715 351.967 98.1211 349.965 102.83Z" fill="#CBC8C1"/>
<path d="M338.925 239.511C344.466 238.182 350.093 237.541 356.288 237.149C354.371 236.26 352.965 236.845 351.574 236.86C350.071 236.889 348.578 237.045 347.108 237.233C345.702 237.419 344.31 237.653 342.932 237.974C341.513 238.292 340.087 238.585 338.925 239.511Z" fill="#CBC8C1"/>
<path d="M350.295 109.443C350.549 109.51 350.619 109.57 350.676 109.544C350.806 109.499 350.985 109.443 351.045 109.338C352.82 106.114 354.97 103.146 357.347 100.33C354.276 102.825 351.401 105.454 350.295 109.443Z" fill="#CBC8C1"/>
<path d="M370.966 107.635C370.597 107.84 370.329 107.905 370.234 108.07C368.287 111.194 365.848 113.974 363.846 117.048C367.076 114.784 369.703 111.314 370.966 107.635Z" fill="#CBC8C1"/>
<path d="M294.094 92.3345C297.358 90.2299 299.589 87.0494 302.805 84.9565C300.082 85.758 295.404 89.6992 294.094 92.3345Z" fill="#CBC8C1"/>
<path d="M295.129 258.608C294.421 255.006 294.522 251.453 295.362 247.488C293.312 249.956 293.276 255.322 295.129 258.608Z" fill="#CBC8C1"/>
<path d="M277.26 171.456C278.683 170.583 278.68 169.065 279.303 167.948C279.968 166.757 280.666 165.583 281.459 164.206C279.611 164.874 277.692 168.275 277.26 171.456Z" fill="#CBC8C1"/>
</g>
</svg>
