<svg width="345" height="384" viewBox="0 0 345 384" fill="none" xmlns="http://www.w3.org/2000/svg">
<g opacity="0.15">
<rect width="229.852" height="174.491" transform="translate(156.79) rotate(35.2835)" fill="#FEFBF7"/>
<path d="M5.89748 381.35C10.9295 374.459 15.9269 367.544 21.0167 360.694C25.5718 354.575 30.1814 348.477 34.8636 342.448C37.9333 338.501 41.0921 334.601 44.3962 330.838C49.2158 325.374 54.4897 320.37 60.0462 315.653C65.7715 310.795 71.4173 305.829 76.8037 300.593C80.387 297.097 83.7753 293.411 87.091 289.656C90.1792 286.173 92.9719 282.447 95.8373 278.789C97.9258 276.107 99.6562 273.172 101.502 270.318C102.007 269.532 102.292 268.59 102.584 267.687C104.151 262.729 105.402 257.704 105.242 252.443C104.922 241.921 102.697 231.888 97.7801 222.498C93.4407 214.228 88.3521 206.502 82.1155 199.541C79.6559 196.796 77.0472 194.187 74.1717 191.858C73.2886 191.146 72.5103 190.335 71.5993 189.639C66.5245 185.788 60.9067 182.974 54.9755 180.701C52.6409 179.811 50.2592 179.062 47.8612 178.336C43.4771 177.036 38.9544 176.765 34.4236 176.506C29.187 176.215 23.9323 176.292 18.7028 175.746C15.1566 175.369 11.5927 175.066 8.18424 173.832C6.26828 173.135 4.54315 172.071 2.76754 171.126C2.00918 170.728 1.45366 170.093 0.937646 169.45C0.160243 168.467 0.570148 167.422 1.8194 167.249C2.34373 167.169 2.89168 167.228 3.42473 167.258C5.75269 167.397 8.06374 167.438 10.392 167.283C14.3449 167.012 18.1502 166.117 21.9361 164.931C33.9394 161.17 46.2016 158.685 58.7388 157.746C65.7646 157.223 72.81 157.407 79.6984 159.283C83.7231 160.38 87.7054 161.586 91.5125 163.31C95.079 164.932 98.2709 167.035 101.125 169.713C107.021 175.22 111.378 181.752 114.294 189.24C116.605 195.209 117.488 201.432 117.447 207.834C117.41 213.839 116.548 219.711 115.263 225.544C113.699 232.653 111.516 239.584 109.855 246.659C108.823 251.008 108.064 255.411 107.329 259.83C107.286 260.112 107.286 260.406 107.269 261.018C108.704 259.087 109.609 257.197 110.663 255.412C112.183 252.848 113.602 250.23 115.045 247.628C116.835 244.388 118.605 241.152 120.375 237.915C122.514 233.986 124.622 230.052 126.749 226.115C128.57 222.758 130.394 219.421 132.249 216.089C133.617 213.642 135.007 211.211 136.409 208.789C138.224 205.636 140.039 202.483 141.877 199.347C143.662 196.311 145.492 193.308 147.28 190.291C149.257 186.959 151.211 183.609 153.199 180.285C154.327 178.396 155.475 176.505 156.615 174.625C158.158 172.077 159.701 169.529 161.232 166.973C161.36 166.768 161.444 166.551 161.594 166.241C161.198 165.111 160.795 163.942 160.39 162.823C159.827 162.443 159.292 162.636 158.764 162.696C149.512 163.793 140.736 162.21 132.365 158.142C128.988 156.497 125.661 154.732 122.674 152.462C115.581 147.079 109.882 140.534 106.327 132.281C104.469 127.951 103.647 123.382 103.463 118.693C103.253 113.258 103.525 107.852 104.71 102.503C105.029 101.048 105.465 99.6232 106.022 98.249C106.313 97.5191 106.763 96.8839 107.239 96.2847C107.84 95.532 108.12 95.5044 109.069 95.9509C109.267 96.0388 109.406 96.2586 109.731 96.1421C109.724 95.8592 109.704 95.5682 109.685 95.2771C108.853 87.6343 110.238 80.3122 113.034 73.2256C114.635 69.1757 116.661 65.3575 118.924 61.6204C121.06 58.0878 123.464 54.7629 126.042 51.5607C129.767 46.9338 132.781 41.8908 134.619 36.2065C134.833 35.5608 135.1 34.9873 135.705 34.5487C136.743 34.503 137.297 35.1897 137.627 36.0468C137.971 36.9318 138.212 37.8649 138.402 38.7967C139.363 43.3419 140.316 47.8985 141.241 52.4702C142.137 56.935 143.398 61.2766 145.456 65.3498C145.593 65.6205 145.711 65.8947 145.865 66.1424C145.922 66.2342 146.034 66.2962 146.13 66.3813C146.722 66.1073 146.915 65.516 147.15 64.9886C147.744 63.6587 148.631 62.5527 149.595 61.4843C151.43 59.4547 153.268 57.4449 155.248 55.5529C157.554 53.3715 160.019 51.4066 162.688 49.7418C168.908 45.8753 175.121 41.9694 181.095 37.7389C181.864 37.191 182.694 36.7038 183.531 36.256C184.212 35.9059 184.94 35.5886 185.687 35.3895C188.214 34.7336 189.663 35.8455 189.65 38.4361C189.64 39.6253 189.52 40.8232 189.386 41.9933C189.06 44.952 188.871 47.9381 188.812 50.9121C188.744 54.0704 188.491 57.2196 187.977 60.3223C188.353 60.5015 188.6 60.3475 188.833 60.1655C195.366 55.342 202.784 53.0163 210.794 52.3755C213.528 52.1611 216.271 52.0568 219.014 51.9525C220.567 51.8897 222.112 51.9601 223.63 52.4107C225.448 52.9519 226.048 53.8441 225.799 55.7136C225.618 57.0237 225.125 58.2347 224.48 59.3906C223.927 60.3684 223.397 61.3625 222.826 62.4144C223.592 62.8008 224.302 62.6793 224.978 62.6549C226.942 62.6231 228.908 62.4894 230.88 62.4461C231.658 62.4246 232.439 62.4228 233.198 62.5263C235.185 62.8053 236.256 63.9618 236.427 65.9726C236.486 66.673 236.458 67.3984 236.455 68.0892C236.95 68.1973 237.351 68.0475 237.732 67.901C241.281 66.6336 244.953 66.4414 248.672 66.5252C249.386 66.545 250.098 66.6159 250.783 66.8234C252.302 67.2739 252.979 68.0308 253.116 69.6009C253.156 70.0103 253.137 70.4298 253.117 70.8493C252.692 78.3826 251.501 85.7729 248.849 92.8752C248.744 93.1471 248.65 93.4271 248.572 93.684C248.988 94.1 249.496 94.0435 249.949 94.1385C252.698 94.6625 255.424 95.2918 258.08 96.2176C262.322 97.6938 266.681 98.612 271.075 99.433C273.36 99.8538 275.654 100.212 277.902 100.832C279 101.141 280.012 101.597 280.956 102.248C282.173 103.075 282.461 104.162 282.145 105.516C282.135 105.578 282.114 105.633 282.093 105.687C279.592 112.601 278.671 119.905 276.985 127.014C276.736 128.052 276.437 129.087 276.199 130.133C276.083 130.64 275.811 131.123 275.965 131.787C276.737 131.848 277.497 131.9 278.249 131.964C281.342 132.247 284.366 132.896 287.393 133.616C291.733 134.659 296.09 135.68 300.435 136.692C301.776 137 303.097 137.362 304.354 137.888C306.877 138.928 307.61 141.076 306.191 143.4C303.765 147.368 301.35 151.344 298.453 154.997C293.999 160.581 288.879 165.416 282.67 169.047C281.121 169.962 279.476 170.67 277.806 171.291C277.033 171.576 276.263 171.88 275.481 172.176C275.481 172.765 275.948 172.888 276.257 173.089C279.893 175.593 283.22 178.484 286.685 181.23C289.388 183.386 292.067 185.577 294.869 187.594C296.513 188.774 297.989 190.166 299.369 191.645C299.693 191.995 299.992 192.381 300.205 192.791C300.858 193.998 300.615 195.126 299.528 195.952C299.107 196.278 298.636 196.551 298.147 196.777C294.979 198.192 292.117 200.154 289.193 201.985C286.975 203.379 284.735 204.758 282.502 206.125C277.475 209.188 272.03 211.298 266.392 212.872C259.456 214.811 252.39 215.808 245.177 215.591C242.309 215.504 239.469 215.158 236.657 214.624C236.142 214.519 235.638 214.301 235.089 214.416C234.903 214.874 235.279 215.053 235.512 215.287C238.494 218.299 241.111 221.606 243.639 224.99C247.091 229.616 250.964 233.916 254.584 238.402C255.73 239.82 256.654 241.306 256.909 243.15C256.991 243.745 257.045 244.355 256.899 244.928C256.44 246.752 255.508 247.237 254.134 247.097C253.719 247.046 253.308 247.015 252.895 246.913C247.081 245.503 241.112 245.144 235.186 244.505C230.862 244.027 226.51 243.808 222.204 243.083C217 242.209 212.073 240.525 207.425 237.981C197.557 232.576 190.944 224.482 187.154 213.965C186.581 212.399 186.115 210.804 185.593 209.239C184.799 208.867 184.047 208.509 183.304 208.139C180.252 206.621 177.892 204.274 175.644 201.817C170.657 196.347 167.57 189.933 166.166 182.683C165.743 180.512 165.608 178.302 165.788 176.089C165.844 175.349 165.752 174.694 165.366 174.04C164.706 172.915 164.114 171.767 163.486 170.647C162.939 170.832 162.774 171.236 162.56 171.587C160.699 174.707 158.861 177.843 157.011 180.972C155.248 183.953 153.493 186.923 151.73 189.905C149.798 193.2 147.873 196.483 145.94 199.778C144.345 202.497 142.719 205.212 141.159 207.955C138.993 211.727 136.862 215.522 134.742 219.326C132.547 223.285 130.376 227.26 128.204 231.235C126.044 235.219 123.927 239.215 121.756 243.19C119.956 246.493 118.13 249.759 116.296 253.037C114.693 255.89 113.06 258.737 111.426 261.585C110.629 262.98 109.802 264.37 108.959 265.733C104.534 272.966 99.8809 280.056 94.5663 286.66C87.8402 295.039 80.4518 302.81 72.3713 309.919C67.3612 314.329 62.29 318.679 57.3443 323.17C52.3545 327.699 47.6967 332.567 43.4716 337.827C40.4749 341.548 37.5787 345.322 34.6166 349.067C31.7608 352.662 29.2318 356.506 26.2605 360.019C25.9234 360.422 25.6475 360.885 25.1898 361.532C29.7986 357.86 34.2325 354.411 38.2643 350.452C44.548 344.291 50.7175 337.997 57.2986 332.151C63.0507 327.034 69.1932 322.42 75.857 318.538C83.4707 314.098 91.578 310.822 99.9811 308.206C112.356 304.361 124.916 301.186 137.691 299.029C147.812 297.316 157.854 295.201 167.937 293.271C170.925 292.698 173.903 292.067 176.884 291.455C178.699 291.093 180.539 290.87 182.392 290.846C183.213 290.838 184.062 290.814 184.825 291.303C185.069 292.134 184.657 292.692 184.183 293.24C182.613 295.041 180.968 296.754 179.261 298.407C175.151 302.379 171.037 306.331 167.193 310.562C164.306 313.736 161.477 316.951 158.659 320.174C153.415 326.188 147.882 331.926 141.379 336.633C139.24 338.187 136.918 339.386 134.488 340.371C126.689 343.553 118.52 345.105 110.194 346.216C101.065 347.434 91.8806 347.504 82.6976 347.818C75.2397 348.07 67.8011 348.612 60.4602 350.022C51.3986 351.756 42.5939 354.279 34.3278 358.465C29.4817 360.929 24.9784 363.913 20.9651 367.625C20.4737 368.074 20.0516 368.573 19.6526 369.088C16.0502 373.836 12.4512 378.604 9.06008 383.518C8.77134 383.314 8.47104 383.102 8.1823 382.897C8.40971 382.625 8.66022 382.369 8.86454 382.08C14.6177 374.244 20.2785 366.342 26.1472 358.587C31.5106 351.497 36.8312 344.395 42.4289 337.488C47.7421 330.935 53.5938 324.919 59.9807 319.42C70.518 310.358 80.9826 301.227 89.9898 290.58C93.6549 286.258 97.1781 281.818 100.386 277.138C103.787 272.16 106.994 267.064 110.032 261.864C112.146 258.264 114.237 254.648 116.274 251.011C118.575 246.902 120.81 242.763 123.053 238.614C125.668 233.791 128.229 228.947 130.855 224.133C133.197 219.845 135.581 215.569 137.991 211.33C140.167 207.496 142.42 203.7 144.63 199.891C147.05 195.71 149.463 191.542 151.907 187.378C153.65 184.4 155.494 181.475 157.18 178.456C157.911 177.154 158.746 175.925 159.465 174.614C159.958 173.697 160.518 172.759 159.992 171.641C159.545 171.758 159.436 172.132 159.22 172.412C158.159 173.863 157.334 175.446 156.408 176.974C154.333 180.446 152.181 183.88 150.097 187.363C147.417 191.862 144.762 196.397 142.105 200.912C139.756 204.917 137.352 208.902 135.061 212.948C132.133 218.139 129.306 223.383 126.436 228.615C122.685 235.459 118.926 242.315 115.187 249.167C111.439 256.031 107.475 262.759 103.284 269.343C99.3067 275.577 95.044 281.625 90.2813 287.303C86.7489 291.511 83.0793 295.57 79.21 299.471C73.7049 305.021 67.8379 310.177 61.8914 315.225C54.0032 321.915 46.6617 329.13 40.176 337.194C34.796 343.89 29.6042 350.738 24.4552 357.598C18.8664 365.031 13.408 372.573 7.90337 380.083C7.48319 380.652 7.11262 381.274 6.71554 381.859C6.47496 381.759 6.18622 381.554 5.89748 381.35ZM199.625 152.177C200.043 152.247 200.299 152.082 200.561 151.956C203.599 150.431 206.509 148.694 209.345 146.818C215.06 143.028 219.963 138.351 223.873 132.729C226.048 129.605 227.745 126.178 229.322 122.701C231.965 116.858 233.896 110.823 234.585 104.412C235.404 96.6899 235.467 88.9345 235.368 81.1865C235.314 76.4859 234.943 71.7687 235.345 67.0613C235.376 66.6499 235.364 66.2257 235.305 65.8197C235.087 64.4867 234.438 63.8366 233.093 63.6304C232.206 63.488 231.309 63.5298 230.417 63.5913C226.715 63.8495 223.038 63.8296 219.338 63.6207C216.006 63.4299 212.662 63.2819 209.335 63.1815C201.573 62.9577 193.964 64.1083 186.615 66.534C176.603 69.8318 168.06 75.3648 161.521 83.7723C159.909 85.8552 158.532 88.0702 157.386 90.4486C156.402 92.5254 155.688 94.6372 156.64 96.9406C156.758 97.2147 156.77 97.5173 156.84 97.8098C159.531 109.732 160.738 121.818 160.747 134.027C160.753 135.538 160.718 137.057 160.7 138.846C161.874 136.869 162.679 134.995 163.932 133.42C166.482 130.233 169.535 127.609 173.002 125.452C174.625 124.434 176.381 124.082 178.318 124.309C180.982 124.634 183.169 125.782 184.97 127.768C186.597 129.56 187.78 131.611 188.772 133.786C189.585 135.575 190.324 137.397 191.082 139.216C193.141 144.071 196.06 148.372 199.625 152.177ZM203.407 194.719C203.916 195.2 204.419 195.175 204.867 195.301C211.083 196.926 216.873 199.498 222.099 203.282C223.268 204.127 224.265 205.144 225.415 205.993C227.727 207.698 229.755 209.706 231.792 211.702C232.633 212.522 233.56 213.074 234.699 213.325C238.492 214.137 242.321 214.68 246.214 214.713C256.442 214.809 266.21 212.639 275.624 208.693C279.592 207.029 283.213 204.704 286.859 202.465C290.561 200.197 294.125 197.709 298.075 195.825C299.905 194.953 300.033 194.038 298.741 192.483C297.716 191.238 296.501 190.187 295.245 189.194C294.2 188.368 293.041 187.826 291.773 187.414C289.279 186.602 286.734 185.962 284.146 185.553C278.315 184.633 272.856 182.573 267.616 180.009C263.105 177.787 259.176 174.644 255.649 171.055C253.522 168.892 251.352 166.767 248.824 165.048C246.355 163.37 243.937 161.642 241.484 159.94C241.045 159.63 240.574 159.366 240.089 159.144C235.71 157.102 231.075 156.059 226.272 155.988C219.73 155.9 213.331 157.057 207.034 158.754C206.714 158.84 206.309 158.848 206.158 159.331C207.565 160.968 209.015 162.617 210.412 164.317C212.395 166.708 214.161 169.258 215.253 172.197C217.306 177.722 216.661 182.969 213.431 187.876C211.456 190.864 208.604 192.763 205.281 193.982C204.675 194.177 204.005 194.241 203.407 194.719ZM255.478 160.691C255.994 160.623 256.423 160.164 256.892 159.819C260.036 157.434 262.818 154.653 265.316 151.637C268.724 147.532 271.314 142.916 272.955 137.804C274.691 132.411 276.111 126.951 277.306 121.417C278.43 116.129 279.204 110.749 281.198 105.678C281.785 104.187 281.225 103.288 279.719 102.551C277.584 101.526 275.285 101.199 273.003 100.798C267.604 99.8547 262.275 98.6661 257.055 96.931C251.236 95.0144 245.244 94.0508 239.094 94.5863C238.212 94.656 237.313 94.6781 236.41 95.0966C236.28 96.8241 236.138 98.5436 236.027 100.268C235.716 104.797 235.141 109.26 233.841 113.645C231.877 120.315 228.967 126.558 225.306 132.443C222.742 136.556 219.402 140.051 215.757 143.243C211.882 146.637 207.573 149.395 203.058 151.833C202.276 152.251 201.424 152.549 200.649 153.301C202.215 155.032 203.765 156.736 205.281 158.415C222.307 153.165 238.963 154.049 255.478 160.691ZM183.623 292.341C183.247 291.867 182.817 291.961 182.412 291.97C180.924 291.991 179.429 292.095 177.968 292.396C174.632 293.068 171.3 293.761 167.972 294.422C160.539 295.888 153.124 297.452 145.667 298.779C136.092 300.48 126.524 302.22 117.105 304.654C114.045 305.453 110.962 306.183 107.963 307.164C100.614 309.59 93.8252 313.158 87.4084 317.474C84.988 319.106 82.6436 320.827 80.4961 322.809C76.9219 326.121 73.4237 329.521 69.7008 332.676C64.4261 337.142 59.2424 341.724 53.2678 345.244C48.7499 347.906 44.1642 350.467 39.6164 353.073C36.3057 354.96 32.9684 356.81 30.0683 359.316C29.8389 359.518 29.4478 359.605 29.5418 360.036C36.7866 355.872 44.0118 351.711 51.2436 347.59C57.1154 344.24 63.2645 341.503 69.6612 339.321C74.5404 337.643 79.584 336.688 84.7308 336.396C91.0928 336.027 97.3288 336.939 103.543 338.199C112.343 339.971 121.243 340.791 130.22 339.812C133.827 339.418 137.19 338.365 140.231 336.271C144.67 333.207 148.534 329.511 152.31 325.717C156.009 322.009 159.249 317.871 162.779 314.008C164.994 311.589 167.09 309.068 169.38 306.737C172.839 303.221 176.442 299.843 179.97 296.377C181.234 295.105 182.534 293.806 183.623 292.341ZM136.174 35.3312C135.952 35.5723 135.84 35.632 135.798 35.7407C135.621 36.1873 135.463 36.6304 135.305 37.0736C133.754 41.4703 131.703 45.6176 128.917 49.3833C127.845 50.8256 126.673 52.1631 125.589 53.5973C121.14 59.4444 117.246 65.6328 114.391 72.4351C111.802 78.5931 110.246 84.98 110.373 91.7082C110.436 94.8034 110.585 97.9245 111.471 100.909C113.018 106.146 116.392 110.146 120.621 113.38C125.164 116.855 129.915 120.061 134.617 123.336C136.242 124.469 137.733 125.767 139.141 127.109C142.49 130.312 145.808 133.56 148.915 137.007C152.262 140.727 155.485 144.55 157.998 148.911C158.039 148.975 158.192 148.979 158.371 149.019C158.705 145.927 159.092 142.857 159.347 139.778C159.748 134.827 159.688 129.915 158.926 124.99C158.074 119.482 156.254 114.364 153.268 109.668C151.379 106.703 149.427 103.779 147.511 100.828C141.364 91.3652 136.906 81.2778 135.558 69.9069C134.88 64.2273 134.702 58.6243 135.894 53.0202C136.215 51.5139 136.438 49.9734 136.654 48.4444C137.121 45.1874 137.189 41.9074 137.146 38.6362C137.118 37.5244 137.064 36.3766 136.174 35.3312ZM178.677 187.879C182.265 190.279 185.945 192.207 190.03 193.243C195.296 194.595 200.537 194.733 205.656 192.618C210.974 190.418 214.16 186.503 215.129 180.775C215.58 178.079 214.928 175.693 213.368 173.514C212.343 172.096 211.086 170.86 209.631 169.952C205.835 167.577 201.706 166.112 197.165 166.088C195.905 166.08 194.663 166.12 193.405 166.062C192.401 166.01 191.384 165.88 190.384 165.726C189.176 165.548 188.478 164.794 188.22 163.641C188.101 163.123 188.018 162.579 188.029 162.049C188.049 160.625 188.057 159.192 188.199 157.767C188.896 151.172 188.39 144.661 186.822 138.23C185.983 134.811 184.965 131.473 183.1 128.403C181.845 126.354 180.134 125.49 177.842 125.324C176.342 125.216 174.985 125.59 173.721 126.273C167.787 129.492 163.546 134.187 161.186 140.559C158.932 146.66 159.035 152.834 160.455 159.056C161.775 164.809 164.187 170.121 167.259 175.137C170.296 180.128 174.054 184.469 178.677 187.879ZM1.50051 168.41C1.93054 169.321 2.64718 169.949 3.47821 170.416C4.6225 171.052 5.78315 171.665 6.95676 172.236C9.79668 173.587 12.8483 174.1 15.9609 174.257C21.5314 174.541 27.0341 174.015 32.5284 173.085C38.7049 172.047 44.9441 171.436 51.2074 171.084C57.8917 170.701 64.4163 171.4 70.6906 173.899C72.9035 174.789 75.0673 175.748 77.1841 176.847C80.1713 178.406 82.9134 180.312 85.4199 182.502C88.8889 185.511 91.8174 189.039 94.3444 192.89C102.053 204.654 105.918 217.684 106.862 231.611C107.586 242.125 106.879 252.579 104.938 262.94C104.906 263.107 104.917 263.288 104.9 263.484C105.456 263.237 105.505 262.751 105.651 262.3C106.035 261.046 106.166 259.735 106.402 258.446C107.204 254.178 107.889 249.879 108.941 245.648C110.563 239.118 112.493 232.667 113.999 226.106C115.642 218.983 116.555 211.813 116.253 204.475C116.044 199.284 115.037 194.29 113.177 189.472C110.368 182.198 106.136 175.859 100.439 170.51C97.7191 167.962 94.6883 165.852 91.3033 164.34C81.4464 159.948 71.1136 157.992 60.3221 158.693C47.3913 159.527 34.8038 162.129 22.4321 165.871C19.6923 166.706 16.979 167.576 14.1106 167.956C10.5567 168.422 6.98812 168.566 3.40449 168.266C2.7858 168.21 2.11703 167.979 1.50051 168.41ZM184.873 192.939C184.589 195.251 184.891 197.493 185.155 199.742C185.849 205.815 187.066 211.737 189.631 217.348C193.768 226.394 200.228 233.235 209.056 237.783C213.863 240.249 218.995 241.765 224.359 242.39C228.026 242.818 231.719 243.109 235.391 243.505C241.316 244.145 247.265 244.507 253.083 245.937C253.368 246 253.669 246.039 253.958 246.071C255.298 246.187 255.804 245.765 255.905 244.398C255.998 243.164 255.653 242.035 254.943 241.03C252.9 238.112 250.025 236.198 246.932 234.617C244.505 233.368 241.942 232.386 239.44 231.291C236.07 229.808 232.817 228.061 229.439 226.589C225.963 225.083 222.782 223.161 219.775 220.895C218.868 220.218 217.98 219.538 217.162 218.734C214.078 215.719 211.415 212.379 209.09 208.758C206.632 204.956 204.022 201.272 200.83 198.043C199.295 196.488 197.599 195.358 195.255 195.242C192.02 195.085 188.894 194.311 185.914 193.035C185.647 192.898 185.367 192.803 184.873 192.939ZM159.766 161.55C159.794 161.24 159.845 161.12 159.816 161.013C159.138 158.419 158.655 155.772 158.49 153.09C158.458 152.547 158.375 152.003 158.073 151.547C156.671 149.341 155.283 147.163 153.117 145.544C150.268 143.424 147.101 141.946 143.849 140.615C139.451 138.82 134.848 137.487 130.64 135.203C127.809 133.668 125.134 131.913 122.823 129.619C118.468 125.29 115.558 120.094 113.396 114.404C111.549 109.544 110.283 104.523 109.093 99.469C108.894 98.5998 108.714 97.7272 108.243 96.874C107.538 97.3804 107.185 98.0498 106.891 98.76C106.44 99.8623 106.087 100.999 105.819 102.161C104.509 107.907 104.183 113.708 104.526 119.567C104.823 124.682 105.931 129.609 108.296 134.177C111.872 141.127 116.91 146.841 123.099 151.567C125.517 153.417 128.19 154.857 130.87 156.286C134.994 158.493 139.305 160.14 143.88 161.072C149.115 162.125 154.389 162.338 159.766 161.55ZM270.655 169.125C271.407 169.068 271.795 168.666 272.216 168.34C273.37 167.493 274.372 166.469 275.351 165.428C277.548 163.083 279.771 160.774 282.132 158.614C285.495 155.551 289.262 153.069 293.259 150.923C297.368 148.717 301.197 146.123 304.634 142.956C304.896 142.708 305.184 142.496 305.4 142.216C306.056 141.363 305.989 140.379 305.204 139.651C304.768 139.238 304.267 138.918 303.679 138.745C302.592 138.444 301.515 138.08 300.415 137.822C295.619 136.664 290.798 135.54 286.001 134.382C283.163 133.691 280.31 133.093 277.392 132.832C276.754 132.779 276.089 132.568 275.356 133.089C273.951 138.577 271.909 143.961 268.646 148.793C265.407 153.591 261.253 157.55 256.571 161.326C261.664 163.682 266.211 166.466 270.655 169.125ZM103.886 234.567C104.123 234.11 103.971 233.639 103.913 233.182C103.364 228.495 102.858 223.821 102.219 219.14C101.283 212.307 99.3932 205.718 96.5889 199.418C93.6117 192.701 89.123 187.115 83.5379 182.418C80.5762 179.941 77.3053 177.852 73.7307 176.241C67.5125 173.418 61.0351 171.868 54.1607 172.03C45.4245 172.226 36.8043 173.337 28.2034 174.739C28.0456 174.766 27.9884 174.847 28.0318 174.981C28.2735 175.326 28.6741 175.176 28.9916 175.193C31.0103 175.304 33.0404 175.423 35.0687 175.471C41.6286 175.607 47.9471 176.941 54.0857 179.239C58.8915 181.045 63.5604 183.118 67.9163 185.854C72.9518 189.001 77.3328 192.95 81.398 197.248C86.5573 202.719 91.038 208.732 94.8776 215.21C98.4058 221.173 101.568 227.311 103.537 234.008C103.602 234.21 103.587 234.476 103.886 234.567ZM155.543 92.0737C155.804 91.8768 155.947 91.8219 155.981 91.7247C157.511 87.6767 159.909 84.1397 162.567 80.7512C163.89 79.0528 164.85 77.1324 165.725 75.186C167.754 70.677 169.329 66.0021 170.752 61.272C173.082 53.5954 176.318 46.3523 180.948 39.784C181.095 39.5761 181.344 39.371 181.167 38.9853C180.599 39.3464 180.048 39.6843 179.512 40.0502C174.98 43.2217 170.327 46.221 165.588 49.0727C163.196 50.5175 160.861 52.0542 158.673 53.7992C155.634 56.2074 152.965 58.9989 150.416 61.8919C148.859 63.6504 147.358 65.5518 146.713 68.0071C150.523 75.6778 153.524 83.6598 155.543 92.0737ZM199.295 195.362C202.172 197.64 204.365 200.076 206.262 202.736C209.595 207.382 213.282 211.724 217.238 215.858C219.512 218.23 221.89 220.502 224.567 222.379C227.597 224.488 230.829 226.29 234.181 227.847C237.961 229.586 241.756 231.301 245.548 232.996C247.239 233.742 248.848 234.603 250.529 235.412C246.786 230.978 243.318 226.374 239.758 221.828C236.715 217.923 233.191 214.477 229.596 211.083C227.125 208.745 224.544 206.538 221.857 204.481C216.549 200.396 210.498 197.778 204.014 196.188C202.608 195.799 201.18 195.344 199.295 195.362ZM138.2 42.2417C137.803 42.4112 137.878 42.6724 137.876 42.8961C137.871 46.7235 137.33 50.5007 136.653 54.2505C136.091 57.3714 135.776 60.5111 135.994 63.6812C136.511 71.0837 138.466 78.1179 141.557 84.8461C143.855 89.8524 146.853 94.4346 149.814 99.0433C152.361 103.012 154.61 107.134 156.197 111.602C157.125 114.235 158.128 116.834 158.953 119.515C159.036 119.054 159.041 118.606 159.006 118.166C158.669 114.478 158.264 110.812 157.659 107.16C156.59 100.735 155.2 94.3959 153.486 88.1221C151.528 80.8955 148.677 74.0248 145.321 67.3521C143.056 62.8374 141.428 58.1323 140.451 53.1941C139.839 50.0915 139.226 46.9889 138.605 43.8979C138.48 43.3408 138.326 42.7987 138.2 42.2417ZM129.429 341.176C124.862 341.359 120.402 341.392 115.929 341.001C111.238 340.576 106.59 339.87 101.929 339.206C91.9081 337.765 82.0404 337.993 72.1794 340.808C62.3102 343.635 52.9538 347.501 44.1479 352.744C43.7968 352.946 43.2759 353.045 43.1983 353.718C43.8241 353.52 44.3349 353.361 44.8423 353.183C50.0943 351.37 55.4701 350.044 60.9163 349.01C68.9114 347.509 76.9979 346.957 85.1057 346.766C93.8698 346.554 102.609 346.256 111.321 345.089C116.826 344.339 122.274 343.376 127.594 341.785C128.224 341.606 128.823 341.371 129.429 341.176ZM185.928 65.667C186.871 61.9835 187.403 58.3905 187.613 54.7612C187.905 49.6464 187.992 44.5258 188.605 39.4473C188.656 39.0326 188.655 38.6165 188.635 38.2038C188.561 36.5215 187.818 35.9787 186.172 36.4433C184.74 36.851 183.696 37.8112 182.793 38.9402C180.67 41.5977 178.813 44.4432 177.28 47.4665C175.302 51.3882 173.58 55.4387 172.313 59.6549C171.022 63.9765 169.724 68.3096 168.403 72.6264C168.023 73.8485 167.527 75.0399 166.988 76.5127C172.767 71.6761 178.907 67.9959 185.928 65.667ZM236.386 94.1263C240.264 93.2998 243.946 93.5829 247.567 93.6836C250.288 86.752 252.143 77.4919 252.231 70.5342C252.23 70.2907 252.24 70.0555 252.2 69.8188C252.072 68.6023 251.563 67.9992 250.358 67.7184C249.902 67.6037 249.42 67.5745 248.938 67.5454C246.246 67.3567 243.574 67.5807 240.917 68.0053C239.335 68.2558 237.8 68.7116 236.187 69.3734C236.341 77.5587 236.6 85.7156 236.386 94.1263ZM291.024 186.121C291.061 186.043 291.091 185.977 291.14 185.908C289.521 184.693 287.817 183.574 286.291 182.252C282.378 178.842 278.26 175.72 273.989 172.767C271.928 171.343 269.938 169.796 267.802 168.528C264.535 166.58 261.206 164.744 257.815 163.021C251.92 160.011 245.737 158.045 239.226 157.008C238.902 156.952 238.556 156.828 238.181 157.014C238.315 157.144 238.425 157.308 238.576 157.363C241.866 158.616 244.92 160.327 247.923 162.157C251.494 164.337 254.726 166.971 257.763 169.831C260.441 172.366 263.203 174.807 266.177 176.997C271.309 180.767 276.992 183.195 283.246 184.326C285.582 184.749 287.919 185.241 290.179 185.991C290.44 186.089 290.742 186.078 291.024 186.121ZM111.626 104.242C111.393 104.84 111.492 105.118 111.57 105.399C112.998 110.534 114.89 115.478 117.616 120.076C119.397 123.07 121.745 125.581 124.557 127.657C127.346 129.718 130.275 131.53 133.381 133.069C136.145 134.453 138.843 135.981 141.607 137.365C145.181 139.148 148.751 140.912 152.036 143.202C152.267 143.365 152.496 143.753 152.991 143.445C152.604 142.963 152.252 142.505 151.868 142.043C148.682 138.194 145.25 134.569 141.721 131.032C138.39 127.705 134.865 124.604 130.934 121.978C127.712 119.819 124.604 117.499 121.423 115.283C119.313 113.807 117.494 112.017 115.769 110.12C114.187 108.412 112.878 106.515 111.626 104.242ZM212.732 169.685C212.313 168.539 211.631 167.64 210.958 166.731C208.002 162.75 204.633 159.135 201.222 155.578C195.835 149.963 191.362 143.817 188.706 136.426C188.065 134.637 187.23 132.903 186.211 131.28C186.001 130.941 185.92 130.468 185.299 130.462C185.401 130.759 185.499 131.037 185.606 131.303C188.703 139.197 190.07 147.357 189.402 155.846C189.272 157.573 189.13 159.293 189.082 161.027C189.049 162.199 189.003 163.415 189.733 164.417C190.691 164.852 191.642 164.953 192.591 164.983C193.956 165.013 195.338 165.02 196.709 164.968C199.916 164.845 203.007 165.351 206.004 166.432C208.36 167.267 210.657 168.234 212.732 169.685ZM37.9222 352.308C37.9439 352.375 37.9772 352.45 37.9988 352.518C38.6173 352.158 39.2242 351.79 39.8427 351.431C51.1211 344.8 61.4462 336.871 71.409 328.425C78.8385 322.139 86.6074 316.352 95.1013 311.599C95.3605 311.453 95.8324 311.423 95.8004 310.881C95.4916 310.974 95.2107 311.053 94.9331 311.151C82.9676 315.25 72.1392 321.367 62.3456 329.378C58.3288 332.654 54.5565 336.173 50.8521 339.791C46.5548 343.978 42.2426 348.137 37.9222 352.308ZM183.985 192.259C183.212 191.833 182.521 191.24 181.744 191.089C179.621 190.661 177.934 189.468 176.188 188.336C172.667 186.036 169.519 183.357 167.389 179.631C167.261 179.42 167.149 179.236 166.835 179.361C166.823 179.525 166.771 179.697 166.79 179.866C166.811 180.228 166.841 180.578 166.89 180.925C167.802 187.498 170.343 193.387 174.278 198.701C176.192 201.287 178.513 203.518 180.952 205.608C182.164 206.639 183.539 207.439 185.334 207.963C184.559 202.666 183.398 197.546 183.985 192.259ZM271.842 169.775C273.862 171.672 273.984 171.671 276.188 170.908C280.579 169.405 284.45 166.997 288.086 164.161C291.184 161.743 293.92 158.93 296.464 155.946C297.893 154.271 299.294 152.559 300.515 150.736C301.477 149.302 302.339 147.815 303.29 146.373C303.614 145.892 303.977 145.403 303.89 144.718C303.349 144.82 303.144 145.282 302.818 145.571C299.641 148.297 296.106 150.476 292.45 152.482C287.671 155.097 283.478 158.475 279.642 162.329C277.13 164.85 274.889 167.649 271.842 169.775ZM218.295 53.2633C217.95 53.0888 217.855 53.0037 217.753 53.0009C212.261 53.119 206.791 53.4772 201.465 54.9778C196.828 56.2895 192.62 58.5122 188.652 61.1811C188.28 61.4377 187.787 61.6438 187.697 62.187C187.529 63.1598 187.145 64.1188 187.198 65.1959C187.529 65.1187 187.755 65.07 187.988 65.0098C193.578 63.4537 199.239 62.3118 205.073 62.1757C205.953 62.157 206.53 61.7334 207.033 61.1193C207.529 60.5168 207.956 59.8652 208.489 59.3069C211.184 56.5515 214.302 54.4241 218.295 53.2633ZM221.356 62.6052C221.953 61.762 222.481 61.1133 222.897 60.4026C223.727 58.9614 224.533 57.5038 224.838 55.8478C225.146 54.2116 224.424 53.371 222.736 53.3554C222.269 53.3542 221.777 53.3877 221.316 53.4769C217.682 54.1295 214.347 55.4618 211.509 57.856C210.126 59.0266 208.762 60.2448 207.78 62.0979C212.408 62.0971 216.842 62.4443 221.356 62.6052Z" fill="#98958B"/>
<path d="M229.536 67.4572C227.154 69.6717 224.512 71.3727 221.87 73.0736C216.177 76.7584 210.402 80.3154 204.75 84.0642C198.059 88.4985 191.704 93.4133 185.802 98.8393C182.829 101.571 180.02 104.488 177.567 107.71C176.63 108.936 175.551 110.045 174.64 111.307C171.373 115.876 168.798 120.813 166.651 126.002C166.147 127.205 165.65 128.396 165.079 129.743C164.794 128.848 165.158 128.186 165.383 127.549C166.552 124.06 168.016 120.693 169.763 117.44C171.845 113.592 174.396 110.06 177.128 106.689C182.425 100.159 188.753 94.6699 195.434 89.5875C201.506 84.975 207.936 80.9102 214.433 76.9454C219.305 73.9797 224.203 71.05 228.894 67.8005C229.091 67.645 229.321 67.565 229.536 67.4572Z" fill="#98958B"/>
<path d="M160.067 139.421C160.103 137.73 160.075 136.029 160.204 134.353C160.679 128.171 162.388 122.326 165.001 116.723C166.621 113.258 168.488 109.934 170.778 106.893C175.726 100.341 181.058 94.1296 187.624 89.0872C189.606 87.5603 191.738 86.2613 193.882 84.9706C196.126 83.6119 198.362 82.2648 200.624 80.9537C201.235 80.6056 201.832 80.1786 202.937 79.9385C201.119 81.1127 199.636 82.0568 198.16 83.0404C194.641 85.3685 190.986 87.4966 187.681 90.1331C185.072 92.2039 182.745 94.5613 180.399 96.9221C178.295 99.0384 176.367 101.297 174.521 103.613C172.234 106.501 170.066 109.491 168.222 112.71C166.357 115.983 164.802 119.355 163.593 122.902C162.015 127.557 161.265 132.364 160.694 137.213C160.61 137.968 160.62 138.738 160.067 139.421Z" fill="#98958B"/>
<path d="M135.288 36.4368C135.001 41.5204 134.49 46.3583 133.399 51.133C131.437 59.7109 128.77 68.0847 125.706 76.3337C123.605 82.0224 121.846 87.8148 120.769 93.795C120.045 97.8065 119.944 101.843 120.373 105.891C120.413 106.3 120.433 106.713 120.453 107.126C120.46 107.165 120.407 107.215 120.234 107.508C120.132 106.968 120.051 106.616 119.99 106.261C119.067 99.9228 119.586 93.7033 121.183 87.502C122.684 81.6827 124.81 76.0811 126.762 70.4078C129.674 61.9819 132.286 53.4652 133.706 44.6249C134.075 42.3386 134.371 40.0347 134.729 37.7403C134.798 37.3732 134.678 36.9066 135.288 36.4368Z" fill="#98958B"/>
<path d="M185.229 201.718C184.972 200.636 184.713 199.533 184.463 198.49C178.955 197.504 175.175 194.102 171.745 190.132C175.494 193.651 179.379 196.955 184.748 197.842C185.573 200.228 186.393 202.646 187.252 205.057C190.137 213.129 194.586 220.264 200.539 226.401C203.092 229.039 206.017 231.299 209.177 233.276C213.452 235.954 217.982 237.929 222.799 239.327C222.897 239.361 222.968 239.481 223.183 239.668C221.785 239.511 220.608 239.093 219.425 238.707C218.18 238.311 216.93 237.947 215.702 237.477C211.279 235.768 207.238 233.394 203.588 230.396C198.258 226 194.045 220.662 190.66 214.644C188.644 211.05 186.977 207.306 185.84 203.329C185.671 202.759 185.427 202.222 185.219 201.659L185.229 201.718Z" fill="#98958B"/>
<path d="M213.957 69.3632C212.148 69.886 210.332 70.4204 208.511 70.9351C200.771 73.1537 193.524 76.4145 186.929 81.0557C183.914 83.1859 181.176 85.6339 178.568 88.2426C176.072 90.7405 173.849 93.4659 171.773 96.2778C167.869 101.575 164.884 107.384 163.494 113.905C163.421 114.253 163.329 114.603 163.225 114.946C163.191 115.043 163.068 115.095 162.963 115.194C162.676 114.817 162.863 114.43 162.932 114.062C163.85 109.287 165.587 104.848 168.044 100.641C169.211 98.6247 170.447 96.657 171.845 94.8038C180.402 83.4218 191.327 75.3798 205.039 71.286C206.575 70.8302 208.134 70.3907 209.7 69.9906C211.08 69.6325 212.481 69.3418 213.876 69.0116C213.897 69.1299 213.925 69.2367 213.957 69.3632Z" fill="#98958B"/>
<path d="M257.631 115.468C256.76 116.429 255.927 117.434 255.004 118.323C254.35 118.953 253.832 119.661 253.283 120.364C251.191 123.026 248.957 125.571 246.654 128.066C243.589 131.392 240.4 134.577 237.107 137.638C231.292 143.039 225.068 147.891 217.852 151.329C215.007 152.679 212.107 153.937 209.007 154.863C209.095 154.25 209.585 154.267 209.903 154.111C212.429 152.917 214.997 151.787 217.505 150.546C224.223 147.223 230.164 142.796 235.664 137.743C238.935 134.737 242.104 131.606 245.238 128.451C246.909 126.774 248.395 124.895 250.005 123.158C252.061 120.938 253.815 118.435 256.074 116.394C256.525 116.002 256.994 115.658 257.631 115.468Z" fill="#98958B"/>
<path d="M232.304 63.0548C231.899 63.652 231.342 63.8995 230.893 64.2404C224.23 69.2486 216.883 72.9935 209.221 76.2035C204.609 78.1401 200.059 80.259 195.604 82.514C190.802 84.94 186.505 88.1219 182.42 91.5924C181.515 92.3563 180.634 93.1365 179.705 93.9351C179.842 92.9575 180.716 92.6049 181.284 92.0711C185.644 88.0155 190.193 84.2321 195.576 81.524C200.051 79.2656 204.552 77.0943 209.178 75.1856C216.629 72.1031 223.732 68.3594 230.466 63.938C230.858 63.678 231.261 63.4262 231.688 63.1907C231.819 63.1277 232 63.117 232.304 63.0548Z" fill="#98958B"/>
<path d="M218.153 62.7478C216.352 63.6752 214.482 64.0157 212.594 64.3086C206.7 65.2164 200.872 66.3969 195.198 68.2921C188.708 70.4591 183.047 73.9761 178.063 78.5953C175.725 80.7719 173.502 83.0811 171.14 85.414C171.621 84.3674 172.226 83.5128 172.922 82.7745C175.349 80.1765 177.8 77.5948 180.51 75.2834C185.118 71.3682 190.386 68.7 196.125 66.8851C201.653 65.1467 207.311 63.985 213.08 63.3525C214.206 63.2308 215.318 63.0301 216.441 62.8886C217 62.8335 217.574 62.8063 218.153 62.7478Z" fill="#98958B"/>
<path d="M139.389 127.492C138.452 126.76 137.879 126.025 137.304 125.271C134.337 121.404 132.678 116.989 131.802 112.226C130.708 106.252 130.623 100.248 131.442 94.2407C132.616 85.6251 133.813 77.0259 135.019 68.4152C135.082 67.9576 135.018 67.4612 135.432 66.9741C135.662 67.3103 135.574 67.6298 135.546 67.9391C134.816 75.4129 134.02 82.8573 132.875 90.2803C132.068 95.4633 131.499 100.676 131.863 105.943C132.218 111.099 133.107 116.114 135.335 120.828C136.39 123.134 137.959 125.128 139.389 127.492Z" fill="#98958B"/>
<path d="M192.628 133.724C193.057 133.143 193.511 133.187 193.882 133.103C202.82 131.299 210.652 127.187 217.764 121.594C220.473 119.455 222.996 117.115 225.312 114.577C229.944 109.5 233.267 103.653 235.322 97.0996C235.416 96.8195 235.456 96.5184 235.766 96.3739C236.047 96.5898 235.956 96.8895 235.878 97.1464C234.997 100.302 233.838 103.312 232.231 106.196C227.242 115.18 219.926 121.772 211.295 127.087C206.961 129.757 202.329 131.748 197.405 133.048C195.91 133.446 194.388 133.686 192.628 133.724Z" fill="#98958B"/>
<path d="M150.425 77.5316C150.046 76.7438 150.19 76.2218 150.247 75.7248C150.732 71.9775 151.94 68.482 153.698 65.1156C155.481 61.7145 157.76 58.6649 160.086 55.6479C162.554 52.4543 165.466 49.6617 168.619 47.0918C171.274 44.9319 179.757 38.9929 182.307 37.521C181.929 38.276 181.277 38.5602 180.787 38.9587C177.114 41.8715 173.229 44.4956 169.609 47.4805C166.158 50.3248 163.052 53.4653 160.299 57.0121C158.471 59.3755 156.801 61.8336 155.254 64.3619C153.519 67.2068 152.193 70.2555 151.412 73.5157C151.101 74.7868 150.796 76.0267 150.425 77.5316Z" fill="#98958B"/>
<path d="M226.178 90.7678C225.518 92.3629 224.293 93.2121 223.361 94.2344C218.881 99.0718 214.016 103.498 209.165 107.952C204.743 111.998 200.296 116.028 195.493 119.631C192.102 122.171 188.582 124.499 184.62 126.081C183.842 126.397 183.053 126.827 182.049 126.653C182.334 126.127 182.73 126.009 183.1 125.854C189.612 123.044 195.258 118.91 200.626 114.337C207.007 108.921 213.166 103.278 219.33 97.6043C221.635 95.474 223.788 93.1666 226.178 90.7678Z" fill="#98958B"/>
<path d="M201.846 195.381C203.919 194.509 206.104 194.581 208.263 194.861C212.402 195.381 216.423 196.458 220.419 197.621C229.753 200.327 239.218 202.309 248.93 203.011C252.26 203.253 255.582 203.385 258.913 203.576C259.497 203.608 260.1 203.515 260.852 203.873C260.404 204.163 260.044 204.133 259.679 204.135C246.645 204.012 233.811 202.505 221.291 198.741C218.904 198.023 216.496 197.359 214.066 196.801C210.065 195.842 206.05 194.976 201.846 195.381Z" fill="#98958B"/>
<path d="M225.296 176.547C227.967 175.612 230.772 175.568 233.547 175.418C243.785 174.863 253.72 176.572 263.498 179.435C267.782 180.681 272.07 181.895 276.394 182.961C276.69 183.033 277.157 182.912 277.324 183.411C275.977 183.551 274.719 183.198 273.447 182.938C269.774 182.177 266.175 181.138 262.572 180.131C253.827 177.67 244.937 176.076 235.82 176.125C232.667 176.147 229.512 176.393 226.348 176.529C226.011 176.515 225.657 176.525 225.296 176.547Z" fill="#98958B"/>
<path d="M131.391 68.5697C130.43 71.9112 129.46 75.1936 128.543 78.4971C127.3 82.973 126.244 87.4778 125.52 92.0782C124.796 96.6275 124.567 101.214 125.138 105.796C125.774 110.873 127.075 115.746 130.301 119.883C130.445 120.072 130.545 120.298 130.641 120.505C130.689 120.608 130.69 120.73 130.71 120.848C129.473 120.441 128.858 119.399 128.247 118.377C126.492 115.42 125.435 112.21 124.758 108.855C123.573 102.937 123.785 97.0037 124.81 91.0731C126.101 83.6149 128.37 76.4155 130.79 69.2714C130.884 68.9914 131.006 68.6964 131.391 68.5697Z" fill="#98958B"/>
<path d="M221.594 155.936C222.596 155.206 223.569 154.959 224.516 154.624C232.998 151.7 240.518 147.123 247.265 141.238C250.17 138.701 253.215 136.332 255.948 133.621C258.133 131.44 260.294 129.243 262.31 126.908C263.292 125.765 264.267 124.583 265.687 123.63C265.239 124.63 264.326 124.989 263.861 125.77C263.404 126.538 262.782 127.172 262.174 127.835C260.773 129.374 259.426 130.934 257.991 132.449C255.083 135.504 251.948 138.295 248.743 141.036C244.689 144.511 240.536 147.882 235.85 150.511C231.83 152.762 227.616 154.53 223.214 155.852C222.766 156.02 222.303 156.16 221.594 155.936Z" fill="#98958B"/>
<path d="M202.577 120.692C203.456 120.014 204.323 119.328 205.225 118.666C209.689 115.394 213.837 111.761 217.734 107.845C222.116 103.441 226.034 98.6387 229.302 93.3593C231.895 89.18 234.223 84.8127 235.76 80.0936C235.867 79.7707 236.028 79.469 236.229 79.0389C236.618 79.5914 236.421 80.0413 236.307 80.4464C235.613 82.971 234.518 85.3508 233.4 87.7144C230.964 92.8717 227.626 97.4425 224.172 101.932C221.672 105.171 218.757 108.066 215.758 110.884C211.981 114.433 207.889 117.57 203.578 120.43C203.314 120.607 203 120.731 202.71 120.873C202.672 120.828 202.619 120.756 202.577 120.692Z" fill="#98958B"/>
<path d="M186.848 130.674C187.088 130.115 187.623 130.217 188.045 130.134C195.606 128.707 202.756 126.123 209.478 122.404C214.346 119.713 218.703 116.348 222.564 112.338C225.753 109.031 228.792 105.617 231.31 101.766C231.4 101.639 231.559 101.561 232 101.231C225.295 111.931 216.767 120.039 205.629 125.296C197.828 128.997 189.637 131.313 186.848 130.674Z" fill="#98958B"/>
<path d="M274.987 108.234C273.815 109.449 272.645 110.441 271.643 111.587C270.233 113.189 268.799 114.774 267.453 116.456C265.102 119.386 262.832 122.373 260.467 125.275C258.512 127.671 256.523 130.041 254.426 132.319C249.625 137.536 244.42 142.294 238.327 146.007C237.62 146.443 236.916 146.898 236.209 147.334C236.006 147.45 235.787 147.538 235.485 147.671C235.539 147.154 235.923 147.028 236.212 146.816C239.667 144.407 243.194 142.068 246.297 139.202C248.601 137.072 250.914 134.93 252.998 132.573C254.732 130.612 256.566 128.755 258.289 126.785C259.417 125.486 260.538 124.147 261.561 122.774C263.343 120.378 265.267 118.099 267.111 115.764C269.096 113.252 271.232 110.846 273.75 108.831C273.982 108.649 274.23 108.495 274.478 108.341C274.57 108.285 274.703 108.293 274.987 108.234Z" fill="#98958B"/>
<path d="M114.348 105.613C114.004 104.555 113.674 103.577 113.439 102.561C112.476 98.5341 112.862 94.5092 113.442 90.4819C114.426 83.6041 116.718 77.1316 119.478 70.7821C121.466 66.209 123.632 61.7273 125.964 57.3287C126.271 56.7484 126.391 56.0883 126.821 55.5781C127.008 55.3635 127.157 55.1046 127.467 54.9601C125.271 59.8022 123.033 64.6313 120.903 69.5027C117.604 77.0306 114.854 84.7387 113.91 92.9799C113.457 96.9754 113.386 100.946 114.541 104.849C114.592 105.023 114.602 105.204 114.621 105.373C114.613 105.385 114.549 105.426 114.348 105.613Z" fill="#98958B"/>
<path d="M257.617 196.54C256.921 196.741 256.229 196.615 255.543 196.581C242.924 195.971 230.373 194.577 217.922 192.405C214.941 191.891 211.975 191.282 208.906 191.503C208.897 190.855 209.404 190.971 209.688 190.912C211.229 190.547 212.776 190.688 214.309 190.923C217.604 191.435 220.902 191.966 224.189 192.489C234.785 194.146 245.434 195.338 256.137 196.134C256.611 196.175 257.071 196.258 257.541 196.33C257.568 196.315 257.585 196.414 257.617 196.54Z" fill="#98958B"/>
<path d="M280.233 110.714C278.263 117.345 275.153 123.43 271.211 129.099C266.238 136.274 259.92 142.116 252.799 147.477C253.039 146.329 253.848 146.018 254.404 145.527C257.74 142.601 261.046 139.619 264.133 136.431C266.583 133.9 268.61 131.036 270.659 128.188C274.228 123.243 276.849 117.8 279.079 112.151C279.205 111.824 279.352 111.495 279.51 111.173C279.618 110.972 279.78 110.792 279.911 110.607C280.019 110.65 280.125 110.672 280.233 110.714Z" fill="#98958B"/>
<path d="M194.777 207.331C195.611 207.574 195.751 208.159 196.038 208.587C198.725 212.603 201.932 216.155 205.399 219.509C209.573 223.555 214.272 226.932 219.169 229.981C225.178 233.713 231.596 236.694 238.38 238.791C238.765 238.908 239.201 238.904 239.564 239.421C237.211 239.022 235.027 238.36 232.935 237.521C228.733 235.865 224.693 233.908 220.735 231.713C216.548 229.375 212.68 226.586 208.939 223.643C203.741 219.55 199.243 214.737 195.734 209.065C195.414 208.562 195.162 208.036 194.777 207.331Z" fill="#98958B"/>
<path d="M214.052 85.5674C213.139 87.1751 211.717 88.3525 210.372 89.5673C206.14 93.3674 201.806 97.043 197.598 100.859C194.082 104.04 190.677 107.333 187.299 110.662C185.188 112.739 183.119 114.879 181.173 117.09C179.628 118.857 178.017 120.595 176.571 122.466C178.078 120.117 179.61 117.805 181.459 115.681C187.874 108.33 195.109 101.854 202.469 95.5186C205.566 92.8568 208.815 90.3719 211.82 87.5937C212.566 86.9079 213.303 86.2335 214.052 85.5674Z" fill="#98958B"/>
<path d="M203.792 157.726C203.989 157.154 204.289 157.072 204.58 157.053C207.93 156.875 210.964 155.625 213.923 154.235C221.035 150.896 227.867 147.046 233.867 141.898C236.522 139.616 238.966 137.117 241.426 134.646C242.015 134.058 242.745 133.638 243.236 132.945C242.81 134.429 241.565 135.282 240.614 136.307C238.404 138.695 236.175 141.087 233.648 143.164C226.697 148.871 218.995 153.265 210.618 156.506C208.478 157.35 206.257 157.893 203.792 157.726Z" fill="#98958B"/>
<path d="M143.751 131.567C143.394 130.846 143.009 130.141 142.68 129.405C140.215 123.9 138.857 118.103 138.482 112.118C138.062 105.338 138.004 98.5374 138.303 91.7464C138.42 88.935 138.944 86.1859 139.292 83.4162C139.314 83.1891 139.364 82.9472 139.702 82.7878C139.825 84.0356 139.572 85.2259 139.421 86.419C138.691 92.5934 138.88 98.7933 138.987 104.987C139.041 107.972 139.123 110.942 139.429 113.915C139.992 119.218 141.239 124.364 143.205 129.326C143.451 129.933 143.677 130.544 143.896 131.166C143.932 131.262 143.91 131.367 143.918 131.477C143.879 131.484 143.815 131.525 143.751 131.567Z" fill="#98958B"/>
<path d="M233.754 230.387C212.755 224.178 198.511 204.479 195.663 195.669C196.184 195.57 196.191 196.025 196.332 196.316C199.687 202.989 204.084 208.925 209.205 214.351C213.125 218.512 217.637 221.86 222.417 224.878C224.92 226.459 227.718 227.503 230.421 228.705C231.487 229.182 232.644 229.481 233.754 230.387Z" fill="#98958B"/>
<path d="M240.688 124.347C241.421 122.699 242.819 121.557 244.093 120.344C247.872 116.743 251.696 113.175 256.011 110.213C261.378 106.523 267.187 103.874 273.604 102.644C275.344 102.315 277.042 101.679 278.98 101.733C278.735 102.374 278.21 102.332 277.81 102.431C275.157 103.118 272.464 103.691 269.851 104.494C262.74 106.656 256.503 110.423 250.855 115.197C247.647 117.918 244.541 120.765 241.385 123.558C241.12 123.786 240.919 124.095 240.688 124.347Z" fill="#98958B"/>
<path d="M235.884 66.2983C235.33 67.7432 234.78 69.1569 233.843 70.3831C233.24 71.1868 232.663 72.0265 232.098 72.8744C230.076 75.8292 227.852 78.6056 225.381 81.1906C223.181 83.5162 221.138 85.9875 218.903 88.2886C216.098 91.1744 213.186 93.9669 210.175 96.6547C208.053 98.5507 205.951 100.443 203.657 102.217C203.642 101.6 204.097 101.35 204.439 101.037C208.114 97.779 211.709 94.4127 215.197 90.953C217.297 88.868 219.198 86.5734 221.259 84.4441C223.866 81.7648 226.327 78.9479 228.765 76.1146C230.465 74.1284 231.87 71.8985 233.401 69.7584C234.242 68.6198 235.059 67.4648 235.884 66.2983Z" fill="#98958B"/>
<path d="M286.862 202.779C281.422 205.568 275.522 206.558 269.591 207.371C260.209 208.653 245.417 207.389 239.399 204.847C239.718 204.518 240.085 204.709 240.421 204.773C242.765 205.184 245.096 205.637 247.448 206.037C260.162 208.204 272.633 207.114 284.922 203.365C285.56 203.175 286.205 202.973 286.862 202.779Z" fill="#98958B"/>
<path d="M260.887 104.668C260.138 105.507 259.371 105.831 258.669 106.236C253.177 109.491 248.139 113.327 243.709 117.923C241.648 120.052 239.72 122.31 237.888 124.654C235.54 127.655 233.272 130.712 231.031 133.806C230.194 134.965 228.951 135.766 228.22 137.191C228.071 136.496 228.486 136.252 228.706 135.94C231.117 132.533 233.482 129.093 235.977 125.763C242.24 117.403 249.614 110.263 258.998 105.428C259.519 105.156 260.005 104.789 260.887 104.668Z" fill="#98958B"/>
<path d="M149.533 130.303C149.311 128.412 149.434 126.524 149.447 124.644C149.511 118.553 148.953 112.507 147.749 106.542C146.896 102.334 145.49 98.2708 144.202 94.1877C143.805 92.9361 143.4 91.6961 143.031 90.4296C142.848 89.7807 142.714 89.1135 142.536 88.3117C142.83 88.4847 142.978 88.5203 142.999 88.5876C144.473 92.9232 146.053 97.2305 147.383 101.621C149.818 109.619 150.595 117.829 150.174 126.163C150.114 127.351 150.002 128.538 149.911 129.721C149.889 129.948 149.913 130.207 149.533 130.303Z" fill="#98958B"/>
<path d="M195.33 92.8938C191.917 96.1985 188.583 99.4896 185.452 102.959C184.148 104.411 182.801 105.849 181.691 107.491C180.717 108.916 179.685 110.301 178.515 111.587C177.463 112.732 176.849 114.187 175.961 115.465C173.352 119.252 171.299 123.328 169.602 127.588C169.412 128.077 169.125 128.532 168.86 129.004C168.823 129.081 168.65 129.08 168.397 129.144C168.322 127.756 169.009 126.613 169.507 125.493C171.654 120.72 174.111 116.097 177.278 111.89C181.461 106.322 185.93 101.01 191.181 96.4057C192.554 95.1759 193.782 93.8086 195.33 92.8938Z" fill="#98958B"/>
<path d="M260.907 100.159C254.52 102.816 248.503 106.028 243.287 110.657C238.078 115.274 233.776 120.618 230.346 126.667C234.682 115.002 248.733 102.69 260.907 100.159Z" fill="#98958B"/>
<path d="M194.889 140.107C202.507 139.015 209.573 136.476 215.845 132.022C222.08 127.594 227.198 122.151 230.736 115.191C230.657 116.209 230.218 117.441 229.499 118.579C224.776 126.087 218.57 131.992 210.679 136.114C206.289 138.398 201.642 139.772 196.749 140.418C196.461 140.457 196.158 140.468 195.859 140.499C195.568 140.518 195.274 140.518 194.991 140.526C194.947 140.391 194.924 140.253 194.889 140.107Z" fill="#98958B"/>
<path d="M109.297 99.058C109.834 101.362 109.753 103.679 109.481 106C108.861 111.211 108.237 116.403 108.08 121.648C107.957 125.911 108.288 130.098 109.548 134.196C110.419 137.031 111.985 139.473 113.556 141.954C112.992 141.919 112.832 141.459 112.551 141.122C108.929 136.687 107.472 131.496 107.232 125.883C107.044 121.47 107.387 117.067 107.866 112.691C108.388 108.156 109.408 103.678 109.297 99.058Z" fill="#98958B"/>
<path d="M214.868 171.663C215.879 170.749 217.136 170.443 218.399 170.176C229.782 167.831 240.993 168.276 251.989 172.209C254.054 172.942 256.088 173.741 258.14 174.516C258.477 174.651 258.795 174.789 259.014 175.117C255.87 174.123 252.734 173.117 249.601 172.131C242.176 169.789 234.563 169.255 226.847 169.775C222.973 170.032 219.148 170.636 215.391 171.635C215.225 171.673 215.049 171.653 214.868 171.663Z" fill="#98958B"/>
<path d="M240.274 188.619C243.812 189.007 247.352 189.467 250.916 189.77C258.455 190.408 266.016 190.402 273.573 190.55C278.971 190.661 284.38 190.831 289.809 191.119C289.281 191.474 288.671 191.406 288.101 191.401C280.779 191.316 273.465 191.167 266.136 191.163C258.32 191.162 250.565 190.51 242.851 189.385C241.968 189.262 241.078 189.222 240.274 188.619Z" fill="#98958B"/>
<path d="M125.247 69.2667C124.217 72.3158 123.213 75.2282 122.221 78.1487C120.386 83.5583 118.914 89.0682 118.046 94.7284C117.306 99.5953 117.277 104.462 118.399 109.295C118.444 109.5 118.571 109.712 118.283 110.045C117.653 108.438 117.337 106.827 117.091 105.215C116.301 100.184 116.996 95.2331 117.981 90.3142C119.367 83.3572 121.879 76.7456 124.437 70.1667C124.522 69.9493 124.661 69.7529 124.8 69.5566C124.865 69.4642 124.992 69.4323 125.247 69.2667Z" fill="#98958B"/>
<path d="M156.257 85.7492C155.988 84.5365 156.217 83.3809 156.343 82.2224C157.056 75.7767 158.837 69.6354 161.777 63.8641C163.101 61.2825 164.608 58.761 166.191 56.3279C168.015 53.5286 170.06 50.8847 171.931 48.1181C172.926 46.6383 174.189 45.4172 175.459 44.1846C174.846 45.0508 174.318 45.994 173.597 46.7669C172.33 48.141 171.357 49.6881 170.399 51.2631C169.367 52.942 168.207 54.5311 167.118 56.1692C163.126 62.2018 159.929 68.6059 158.151 75.6501C157.45 78.4296 157.03 81.2523 156.567 84.0619C156.492 84.633 156.363 85.1829 156.257 85.7492Z" fill="#98958B"/>
<path d="M215.694 182.302C215.992 181.49 216.764 181.378 217.395 181.148C220.866 179.843 224.461 179.025 228.154 178.656C236.953 177.759 245.598 178.867 254.206 180.59C254.436 180.632 254.657 180.736 254.866 180.832C254.909 180.845 254.914 180.936 254.951 181.031C254.246 181.121 253.577 180.891 252.901 180.793C246.31 179.77 239.702 178.993 233.015 179.184C227.562 179.346 222.245 180.247 217.095 182.062C216.75 182.182 216.413 182.291 216.073 182.379C215.974 182.396 215.862 182.334 215.694 182.302Z" fill="#98958B"/>
<path d="M304.083 139.447C302.254 139.851 300.46 140.158 298.715 140.64C293.905 141.951 289.512 144.215 285.167 146.583C279.579 149.631 274.02 152.735 268.443 155.791C267.303 156.423 266.126 156.959 264.919 157.561C264.901 157.098 265.172 156.96 265.431 156.814C273.841 152.106 282.023 147.01 290.751 142.856C294.61 141.028 298.626 139.762 302.87 139.299C303.24 139.266 303.655 139.022 304.083 139.447Z" fill="#98958B"/>
<path d="M158.586 110.97C158.03 109.502 158.234 107.965 158.453 106.456C159.084 102.257 160.435 98.2907 162.331 94.4846C164.028 91.0576 166.045 87.8397 168.405 84.8472C170.984 81.594 173.598 78.3652 177.158 75.8576C176.937 76.4638 176.567 76.7912 176.2 77.1382C174.522 78.7246 172.906 80.3716 171.439 82.1759C170.089 83.8381 168.751 85.5085 167.521 87.2722C162.648 94.2068 159.524 101.806 158.703 110.29C158.662 110.521 158.62 110.751 158.586 110.97Z" fill="#98958B"/>
<path d="M219.868 228.43C216.564 226.682 213.509 224.606 210.686 222.227C204.813 217.275 199.562 211.739 195.626 205.054C194.325 202.851 193.199 200.546 192.32 198.139C191.879 196.926 191.536 195.695 191.579 194.46C191.981 194.259 192.079 194.415 192.117 194.581C193.703 201.353 197.353 207.021 201.661 212.323C204.246 215.504 207.182 218.361 210.243 221.065C212.959 223.472 215.838 225.7 218.871 227.708C219.198 227.956 219.533 228.193 219.868 228.43Z" fill="#98958B"/>
<path d="M259.398 200.244C272.224 200.931 284.869 199.791 297.334 196.773C297.305 197.255 296.753 197.35 296.372 197.496C295.428 197.851 294.457 198.169 293.47 198.389C282.817 200.731 272.06 201.751 261.166 200.906C260.692 200.865 260.21 200.836 259.744 200.784C259.651 200.77 259.551 200.665 259.462 200.619C259.439 200.481 259.418 200.363 259.398 200.244Z" fill="#98958B"/>
<path d="M292.118 144.672C290.868 145.434 289.588 146.141 288.388 146.955C283.958 149.957 279.537 152.947 274.684 155.25C269.831 157.553 264.894 159.606 259.744 161.127C259.174 161.296 258.626 161.532 257.693 161.357C258.479 161.029 259.008 160.796 259.563 160.6C266.758 157.926 273.892 155.071 280.536 151.193C282.743 149.911 284.86 148.463 287.025 147.118C288.619 146.114 290.251 145.154 292.118 144.672Z" fill="#98958B"/>
<path d="M224.923 118.703C224.056 120.343 222.823 121.204 221.714 122.135C217.175 125.978 212.421 129.512 206.94 131.943C202.619 133.86 198.155 135.294 193.451 135.917C192.32 136.07 191.203 136.129 190.068 136.019C189.778 135.988 189.472 135.979 189.284 135.534C203.35 134.811 214.604 128.093 224.923 118.703Z" fill="#98958B"/>
<path d="M113.558 112.681C114.132 113.78 114.03 114.904 114.011 116.034C113.902 120.377 113.804 124.728 114.221 129.062C114.694 133.954 115.672 138.72 118.103 143.074C118.802 144.315 119.566 145.513 120.346 146.811C119.792 146.713 119.563 146.326 119.298 145.965C116.113 141.649 114.289 136.805 113.596 131.513C112.906 126.242 112.904 120.954 113.377 115.655C113.46 114.657 113.495 113.676 113.558 112.681Z" fill="#98958B"/>
<path d="M219.478 202.502C221.811 203.199 223.683 204.472 225.722 205.412C232.454 208.512 239.436 210.697 246.794 211.639C250.811 212.159 254.828 212.558 258.886 212.604C259.11 212.606 259.348 212.636 259.666 212.653C257.608 213.675 244.203 212.215 238.773 210.851C231.931 209.13 225.47 206.551 219.478 202.502Z" fill="#98958B"/>
<path d="M242.194 157.565C254.546 155.369 263.917 148.74 270.933 138.383C270.9 139.312 270.496 139.98 270.055 140.604C264.789 148.144 257.86 153.502 249.183 156.531C246.943 157.32 244.641 157.928 242.194 157.565Z" fill="#98958B"/>
<path d="M200.366 219.64C193.54 215.815 184.121 198.924 185.021 191.969C186.23 197.193 188.095 202.152 190.712 206.829C193.342 211.515 196.701 215.66 200.366 219.64Z" fill="#98958B"/>
<path d="M214.97 173.625C215.25 174.846 214.962 175.89 214.57 176.861C212.617 181.753 209.185 185.304 204.491 187.651C202.556 188.621 200.506 189.216 198.41 189.656C196.842 189.986 195.256 190.267 193.66 190.49C192.73 190.629 191.784 190.618 190.796 190.422C192.091 190.16 193.374 189.889 194.684 189.655C197.383 189.172 200.043 188.524 202.602 187.527C207.229 185.74 210.64 182.538 213.09 178.291C213.7 177.233 214.114 176.035 214.411 174.807C214.504 174.456 214.38 173.97 214.97 173.625Z" fill="#98958B"/>
<path d="M208.928 177.167C205.277 183.527 199.657 187.159 192.575 188.717C187.42 189.853 180.754 189.574 178.776 188.156C182.319 188.514 185.815 188.839 189.318 188.371C194.669 187.668 199.632 185.945 203.847 182.463C205.731 180.902 207.322 179.046 208.928 177.167Z" fill="#98958B"/>
<path d="M166.282 174.827C169.888 177.031 173.751 177.425 177.717 177.406C181.368 177.39 184.775 176.421 188.004 174.772C189.705 173.912 191.348 172.961 193.022 172.065C193.572 171.778 194.058 171.36 194.736 171.284C194.677 171.711 194.392 171.942 194.1 172.134C190.646 174.37 187.165 176.57 183.125 177.576C177.891 178.899 172.746 178.552 167.757 176.442C167.101 176.169 166.507 175.783 166.282 174.827Z" fill="#98958B"/>
<path d="M167.178 173.12C177.894 175.833 186.846 172.097 195.159 165.396C194.697 166.612 194.712 166.639 194.291 166.965C189.566 170.728 184.425 173.608 178.324 174.49C174.768 175.008 171.31 174.727 167.939 173.538C167.679 173.44 167.425 173.261 167.178 173.12Z" fill="#98958B"/>
<path d="M163.274 149.316C163.18 148.348 163.687 147.875 164.074 147.403C166.301 144.647 168.92 142.391 172.102 140.761C176.498 138.516 181.172 137.594 186.057 137.549C186.543 137.547 187.132 137.426 187.614 138.165C186.292 138.27 185.088 138.354 183.88 138.47C178.589 138.99 173.625 140.469 169.231 143.617C167.388 144.948 165.79 146.521 164.291 148.198C164.011 148.52 163.711 148.846 163.274 149.316Z" fill="#98958B"/>
<path d="M220.547 137.845C216.535 144.47 199.91 150.818 194.626 147.703C199.613 147.661 204.214 146.965 208.659 145.361C213.057 143.776 216.793 141.116 220.547 137.845Z" fill="#98958B"/>
<path d="M174.541 48.5445C171.026 54.6885 168.961 61.1829 167.005 67.7197C165.839 71.6444 164.729 75.5901 163.166 79.3899C162.4 81.2568 161.657 83.1401 160.48 84.8033C160.349 84.9881 160.248 85.2286 159.862 85.2846C163.414 78.5253 165.181 71.1785 167.457 64.0186C168.644 60.283 169.949 56.5781 171.683 53.0737C172.448 51.5521 173.044 49.8768 174.541 48.5445Z" fill="#98958B"/>
<path d="M180.597 140.463C178.657 141.344 176.698 142.177 174.768 143.116C171.66 144.643 168.717 146.426 166.273 148.925C163.646 151.608 161.661 154.658 160.793 158.359C160.628 159.057 160.472 159.744 160.307 160.442C160.294 160.485 160.215 160.498 160.056 160.576C159.978 158.164 160.62 155.983 161.589 153.879C163.568 149.612 166.967 146.695 170.884 144.319C173.922 142.5 177.136 141.117 180.597 140.463Z" fill="#98958B"/>
<path d="M216.313 113.235C220.139 108.906 224.385 105.012 227.678 100.236C230.922 95.5286 233.686 90.5689 236.031 85.0008C236.091 86.1174 236 86.8332 235.708 87.4414C234.516 89.9599 233.3 92.4621 231.921 94.9008C230.566 97.3049 228.943 99.5013 227.423 101.771C225.801 104.211 223.729 106.281 221.701 108.364C220.031 110.112 218.291 111.81 216.313 113.235Z" fill="#98958B"/>
<path d="M185.578 151.233C184.457 151.861 183.252 152.118 182.123 152.514C178.048 153.912 174.178 155.732 170.563 158.097C168.308 159.569 166.369 161.403 164.578 163.395C163.691 164.379 163.418 165.746 162.473 166.689C162.665 164.849 163.716 162.923 165.291 161.334C170.204 156.352 176.267 153.466 182.908 151.649C183.703 151.432 184.525 151.25 185.335 151.061C185.374 151.054 185.427 151.126 185.578 151.233Z" fill="#98958B"/>
<path d="M129.189 133.482C129.351 139.351 130.479 144.69 132.804 149.733C134.758 153.976 137.505 157.566 141.643 159.922C142.003 160.125 142.341 160.381 142.676 160.618C142.722 160.651 142.732 160.71 142.762 160.766C139.735 159.802 137.39 158.022 134.976 154.893C132.07 151.137 130.486 146.81 129.499 142.229C129.019 140.017 128.755 137.769 128.803 135.497C128.804 134.908 128.753 134.318 129.189 133.482Z" fill="#98958B"/>
<path d="M196.087 225.712C203.9 234.585 214.068 239.371 224.997 243.031C224.697 243.357 224.377 243.147 224.107 243.112C223.747 243.083 223.405 242.979 223.062 242.875C219.668 241.964 216.477 240.521 213.295 239.067C210.806 237.93 208.471 236.502 206.098 235.153C205.175 234.621 204.233 234.041 203.468 233.309C201.992 231.918 200.239 230.868 198.899 229.331C197.88 228.176 196.791 227.093 196.087 225.712Z" fill="#98958B"/>
<path d="M254.568 167.586C249.616 165.937 244.867 164.761 240.004 164.041C235.101 163.327 230.196 163.67 225.008 164.02C231.504 161.527 249.647 163.689 254.568 167.586Z" fill="#98958B"/>
<path d="M155.545 141.819C156.653 131.926 156.876 122.083 155.218 112.226C155.778 112.293 155.693 112.805 155.785 113.164C156.626 116.533 156.911 119.975 157.077 123.439C157.336 128.804 157.187 134.159 156.184 139.446C156.061 140.086 155.917 140.73 155.782 141.362C155.718 141.526 155.62 141.664 155.545 141.819Z" fill="#98958B"/>
<path d="M185.97 144.456C181.608 145.477 177.35 146.693 173.505 149.138C169.697 151.556 166.682 154.813 163.678 158.078C168.846 149.844 176.121 145.026 185.97 144.456Z" fill="#98958B"/>
<path d="M169.094 74.588C176.035 65.6853 181.528 55.9141 186.032 45.5814C184.061 51.5014 178.522 64.62 169.094 74.588Z" fill="#98958B"/>
<path d="M176.618 133.765C174.324 134.828 171.973 135.799 169.761 137.111C166.887 138.821 164.237 140.828 162.169 143.456C161.079 144.85 160.276 146.449 159.738 148.166C159.574 148.691 159.541 149.326 159.043 149.736C158.434 149.323 158.721 148.868 158.82 148.435C159.577 145.209 161.315 142.557 163.74 140.355C167.131 137.277 171.08 135.15 175.426 133.736C175.763 133.627 176.121 133.586 176.464 133.517C176.512 133.499 176.606 133.513 176.609 133.533C176.639 133.589 176.629 133.651 176.618 133.765Z" fill="#98958B"/>
<path d="M208.063 162.983C208.151 162.075 208.645 161.939 209.082 161.763C210.364 161.249 211.67 160.873 213.006 160.553C219.284 159.102 225.64 158.938 232.033 159.284C233.429 159.37 234.833 159.394 236.18 159.792C231.428 159.896 226.696 159.528 221.967 160.013C217.282 160.511 212.65 161.203 208.063 162.983Z" fill="#98958B"/>
<path d="M132.571 158.096C129.933 156.68 127.739 154.833 125.988 152.433C121.967 146.97 119.261 140.948 118.259 134.207C118.034 132.713 117.78 131.234 117.984 129.696C118.311 131.488 118.579 133.289 118.945 135.074C120.285 141.655 122.945 147.645 127.2 152.875C128.59 154.586 130.152 156.125 131.99 157.373C132.221 157.537 132.5 157.682 132.571 158.096Z" fill="#98958B"/>
<path d="M185.227 201.647C184.735 202.27 184.12 201.939 183.586 201.786C181.874 201.268 180.319 200.427 178.819 199.436C175.37 197.134 172.441 194.316 170.018 190.955C169.247 189.889 168.588 188.764 168.048 187.567C167.749 186.888 167.407 186.195 167.515 185.405C167.901 185.349 167.929 185.629 168.025 185.835C169.705 189.659 172.275 192.812 175.338 195.586C176.047 196.226 176.683 196.919 177.452 197.498C179.655 199.161 182 200.525 184.631 201.364C184.856 201.437 185.036 201.599 185.241 201.726L185.227 201.647Z" fill="#98958B"/>
<path d="M163.382 55.6927C162.431 57.4289 161.481 58.9924 160.522 60.5674C158.03 64.6278 155.879 68.843 154.772 73.5191C153.981 76.8418 153.706 80.218 153.812 83.6206C153.828 84.0136 153.981 84.434 153.746 84.8397C153.394 84.7985 153.493 84.4871 153.486 84.326C152.867 78.2201 153.693 72.3742 156.466 66.8141C158.174 63.3952 160.125 60.1481 162.255 56.9922C162.545 56.5567 162.787 56.0687 163.382 55.6927Z" fill="#98958B"/>
<path d="M178.178 65.6943C183.149 57.2001 186.974 48.2422 189.38 38.4007C189.67 39.6807 189.442 40.6636 189.196 41.599C187.881 46.544 186.306 51.3916 183.961 55.9547C182.956 57.9131 181.995 59.8846 180.955 61.8185C180.221 63.2231 179.229 64.4791 178.178 65.6943Z" fill="#98958B"/>
<path d="M163.341 168.083C171.128 168.393 177.617 165.029 184.057 161.44C184.056 161.907 183.808 162.061 183.564 162.235C179.977 164.584 176.301 166.767 172.141 167.966C169.783 168.654 167.381 169.035 164.912 168.9C164.331 168.887 163.746 168.907 163.341 168.083Z" fill="#98958B"/>
<path d="M218.477 185.865C228.692 183.578 238.911 184.274 249.108 186.03C247.665 186.257 246.231 186.005 244.803 185.844C238.525 185.163 232.244 184.756 225.923 185.189C223.437 185.371 220.949 185.604 218.477 185.865Z" fill="#98958B"/>
<path d="M272.099 143.594C276.298 138.297 287.582 134.304 293.04 135.359C292.416 135.801 291.848 135.746 291.332 135.814C287.156 136.326 283.146 137.388 279.365 139.254C276.854 140.475 274.533 142.04 272.099 143.594Z" fill="#98958B"/>
<path d="M230.267 121.046C234.41 112.643 240.538 106.163 248.785 101.686C241.204 106.79 235.14 113.35 230.267 121.046Z" fill="#98958B"/>
<path d="M288.607 154.043C280.496 159.137 272.184 163.707 262.373 164.443C266.964 163.393 271.511 162.208 275.832 160.291C280.203 158.375 284.369 156.088 288.607 154.043Z" fill="#98958B"/>
<path d="M218.434 134.755C218.009 135.65 217.318 135.941 216.739 136.294C210.612 140.053 204.013 142.473 196.816 143.065C195.565 143.168 194.315 143.22 193.079 142.934C192.782 142.863 192.493 142.831 192.242 142.377C201.794 142.792 210.277 139.695 218.434 134.755Z" fill="#98958B"/>
<path d="M147.479 161.521C138.657 156.647 133.877 145.57 134.231 138.922C134.36 139.498 134.509 140.072 134.619 140.652C135.709 145.896 137.603 150.789 140.891 155.057C142.043 156.565 143.335 157.947 144.862 159.097C145.819 159.826 146.457 160.884 147.479 161.521Z" fill="#98958B"/>
<path d="M256.27 244.812C255.494 244.488 255.216 243.754 254.691 243.296C252.254 241.155 249.405 239.694 246.532 238.268C242.606 236.321 238.495 234.782 234.421 233.216C234.04 233.068 233.705 232.831 233.383 232.551C235.563 232.95 237.572 233.834 239.621 234.538C243.039 235.709 246.359 237.14 249.517 238.924C251.473 240.03 253.386 241.246 255.059 242.776C255.637 243.306 256.095 243.908 256.27 244.812Z" fill="#98958B"/>
<path d="M245.858 191.235C255.008 192.389 264.232 192.434 273.561 193.09C270.681 193.877 249.682 192.641 245.858 191.235Z" fill="#98958B"/>
<path d="M235.463 71.4253C232.037 77.7367 225.782 85.4258 218.706 91.4079C219.244 89.9861 220.392 89.2211 221.293 88.3158C224.379 85.1787 227.324 81.9238 230.016 78.4381C231.824 76.0781 233.621 73.7099 235.463 71.4253Z" fill="#98958B"/>
<path d="M183.559 181.887C193.083 182.144 200.398 177.735 206.648 171.082C203.166 177.839 190.548 183.816 183.559 181.887Z" fill="#98958B"/>
<path d="M128.475 114.379C125.461 109.698 125.422 94.4697 128.447 87.5976C126.503 96.5176 125.972 105.449 128.475 114.379Z" fill="#98958B"/>
<path d="M152.919 162.407C149.259 160.354 146.382 157.781 144.322 154.348C142.132 150.683 140.703 146.726 139.75 142.585C139.715 142.439 139.744 142.251 139.749 141.926C140.256 142.336 140.27 142.831 140.392 143.247C141.553 147.067 142.945 150.808 145.08 154.208C146.508 156.501 148.25 158.497 150.468 160.066C151.346 160.687 152.171 161.358 152.919 162.407Z" fill="#98958B"/>
<path d="M188.042 36.5186C187.429 37.3848 186.828 38.2592 186.203 39.1172C183.97 42.1996 182.154 45.5251 180.474 48.929C179.321 51.268 178.123 53.5744 176.912 55.8726C176.676 56.3292 176.426 56.8287 175.867 57.1782C177.449 53.3751 179.229 49.7816 181.11 46.2419C182.423 43.7739 183.751 41.3338 185.381 39.0551C186.092 38.0503 186.884 37.1027 188.042 36.5186Z" fill="#98958B"/>
<path d="M236.155 78.4324C237.329 76.5769 238.427 74.9272 239.807 73.4424C241.382 71.7315 243.054 70.1763 244.968 68.8438C245.937 68.1602 246.971 67.5569 248.074 67.1244C248.673 66.8898 249.306 66.7307 250.057 67.0893C249.066 67.5838 248.022 68.0062 247.075 68.5844C246.017 69.2224 244.969 69.9195 244.036 70.7493C243.158 71.5492 242.212 72.2492 241.357 73.0655C240.469 73.928 239.588 74.8299 238.819 75.7939C238.079 76.7429 237.316 77.6246 236.155 78.4324Z" fill="#98958B"/>
<path d="M204.24 166.622C202.575 171.008 194.221 177.229 186.569 178.245C188.744 177.253 191.103 176.687 193.212 175.544C195.301 174.405 197.287 173.141 199.15 171.635C201.014 170.128 202.548 168.302 204.24 166.622Z" fill="#98958B"/>
<path d="M194.735 182.896C194.665 183.557 194.256 183.597 193.954 183.73C189.578 185.799 184.936 186.726 180.119 186.87C178.806 186.912 177.518 186.676 176.243 186.346C175.935 186.267 175.711 186.143 175.464 185.708C182.213 186.654 188.527 185.349 194.735 182.896Z" fill="#98958B"/>
<path d="M147.364 135.303C146.614 127.423 145.745 119.563 144.927 111.705C145.379 111.556 145.354 111.885 145.376 112.075C146.256 118.989 147.186 125.904 147.656 132.858C147.704 133.672 147.752 134.485 147.364 135.303Z" fill="#98958B"/>
<path d="M106.484 110.725C105.997 117.903 105.335 125.061 106.755 132.583C104.432 128.321 104.931 117.01 106.484 110.725Z" fill="#98958B"/>
<path d="M170.027 154.667C172.384 150.771 181.709 146.363 188.513 146.03C187.976 146.569 187.406 146.616 186.916 146.72C184.823 147.18 182.779 147.814 180.754 148.495C176.76 149.829 173.328 152.132 170.027 154.667Z" fill="#98958B"/>
<path d="M243.914 199.029C235.503 198.277 227.067 197.559 218.998 194.779C227.2 196.735 235.563 197.8 243.914 199.029Z" fill="#98958B"/>
<path d="M277.734 121.668C275.194 129.178 270.403 134.992 264.863 140.275C265.687 138.449 267.295 137.23 268.492 135.685C269.107 134.889 269.826 134.167 270.406 133.347C272.284 130.742 274.205 128.149 275.671 125.27C276.149 124.325 276.592 123.356 277.035 122.387C277.172 122.12 277.232 121.815 277.734 121.668Z" fill="#98958B"/>
<path d="M189.805 192.875C197.747 193.434 204.603 191.093 210.51 185.514C210.184 186.341 209.753 186.902 209.194 187.373C204.24 191.581 198.584 193.818 192.007 193.463C191.258 193.418 190.488 193.428 189.805 192.875Z" fill="#98958B"/>
<path d="M173.861 164.018C179.518 161.192 185.044 158.256 189.248 153.344C189.573 153.938 189.282 154.252 189.01 154.562C187.174 156.765 185.038 158.633 182.594 160.127C179.846 161.805 176.962 163.162 173.861 164.018Z" fill="#98958B"/>
<path d="M253.621 95.4888C243.306 99.3866 242.013 101.557 237.132 105.123C237.165 104.661 237.468 104.355 237.763 104.061C238.046 103.759 238.367 103.501 238.685 103.223C242.163 100.12 245.911 97.4688 250.388 95.9917C251.434 95.64 252.512 95.4148 253.621 95.4888Z" fill="#98958B"/>
<path d="M125.387 145.958C122.178 142.214 120.08 130.017 121.371 126.061C121.691 132.908 122.56 139.641 125.387 145.958Z" fill="#98958B"/>
<path d="M188.082 65.1453C192.264 59.75 197.644 56.0171 204.141 53.8896C201.229 55.4338 198.301 56.9501 195.635 58.9291C193.006 60.8816 190.575 63.0437 188.082 65.1453Z" fill="#98958B"/>
<path d="M249.9 72.7495C247.842 76.4412 245.4 79.8436 242.557 82.9796C241.241 84.423 239.948 85.8827 238.548 87.2491C237.923 87.8637 237.283 88.5722 235.896 88.5964C238.861 86.1704 240.99 83.4306 243.43 80.9625C245.894 78.4598 247.69 75.432 249.9 72.7495Z" fill="#98958B"/>
<path d="M149.333 68.0757C151.718 61.0798 156.295 55.7387 161.982 51.2528C156.845 56.1622 152.525 61.7029 149.333 68.0757Z" fill="#98958B"/>
<path d="M143.722 126.121C141.72 118.344 140.712 110.437 140.727 102.405C141.32 106.344 141.496 110.333 142.01 114.285C142.528 118.256 143.239 122.174 143.722 126.121Z" fill="#98958B"/>
<path d="M151.221 119.589C152.184 126.337 152.251 133.075 150.16 139.828C149.628 139.33 149.823 138.931 149.904 138.572C151.339 132.429 151.551 126.201 151.149 119.937C151.148 119.815 151.199 119.695 151.221 119.589Z" fill="#98958B"/>
<path d="M145.857 140.25C147.235 140.826 148.074 141.698 148.802 142.629C152.036 146.754 154.111 151.464 155.933 156.653C155.109 156.226 155.011 155.654 154.817 155.17C153.458 151.921 151.953 148.758 150.081 145.77C149.103 144.211 148.162 142.627 146.736 141.409C146.437 141.146 146.228 140.755 145.857 140.25Z" fill="#98958B"/>
<path d="M165.084 66.6374C163.022 74.1565 161.111 81.7309 157.54 88.737C160.411 81.4955 162.473 73.9764 165.084 66.6374Z" fill="#98958B"/>
<path d="M142.793 153.595C139.17 150.46 136.189 140.931 137.157 135.62C137.58 136.907 137.404 137.891 137.582 138.815C137.793 139.865 137.896 140.944 138.115 141.982C138.315 142.973 138.594 143.95 138.881 144.916C139.168 145.882 139.495 146.841 139.869 147.782C140.273 148.779 140.733 149.745 141.209 150.689C141.655 151.577 142.154 152.415 142.793 153.595Z" fill="#98958B"/>
<path d="M182.92 192.146C177.068 192.408 168.902 185.797 167.192 181.624C175.545 190.395 174.804 188.969 182.92 192.146Z" fill="#98958B"/>
<path d="M201.35 154.662C202.752 153.783 204.247 153.679 205.588 153.155C206.921 152.643 208.248 152.091 209.492 151.411C210.799 150.689 212.072 149.944 213.377 149.203C214.581 148.53 215.707 147.697 217.14 147.117C213.138 151.131 204.655 155.233 201.35 154.662Z" fill="#98958B"/>
<path d="M184.296 131.537C177.602 130.734 171.707 132.525 166.307 136.383C169.363 132.236 181.214 128.888 184.296 131.537Z" fill="#98958B"/>
<path d="M201.491 59.8152C206.12 56.14 211.145 53.3003 217.16 52.5647C214.57 53.7999 211.752 54.4752 209.166 55.7301C206.563 57.0081 204.079 58.5093 201.491 59.8152Z" fill="#98958B"/>
<path d="M235.156 173.61C228.596 173.769 222.179 174.705 216.036 177.239C219 174.691 228.511 172.86 235.156 173.61Z" fill="#98958B"/>
<path d="M176.088 170.62C175.245 170.439 174.457 170.818 173.66 170.964C171.293 171.37 168.928 171.43 166.563 170.952C166.332 170.91 166.09 170.86 165.873 170.775C165.775 170.741 165.696 170.633 165.523 170.51C167.13 170.59 168.66 170.755 170.192 170.746C173.588 170.723 176.764 169.712 179.869 168.46C181.084 167.968 182.281 167.428 183.481 166.908C183.783 166.775 184.045 166.527 184.414 166.667C184.385 167.149 183.933 167.175 183.642 167.317C181.538 168.428 179.372 169.408 177.087 170.114C176.703 170.24 176.259 170.256 176 170.645L176.088 170.62Z" fill="#98958B"/>
<path d="M192.358 64.6878C196.364 60.3986 201.011 57.0654 206.652 55.2163C204.188 56.7141 201.575 57.933 199.224 59.6145C196.897 61.2613 194.726 63.1049 192.358 64.6878Z" fill="#98958B"/>
<path d="M275.314 208.664C269.645 210.823 263.768 210.824 257.805 210.262C258.222 210.211 258.633 210.12 259.038 210.112C262.297 210.061 265.575 210.058 268.835 209.713C271.037 209.468 273.153 208.902 275.314 208.664Z" fill="#98958B"/>
<path d="M294.525 136.323C288.799 137.384 283.467 139.556 278.018 142.113C280.076 139.792 289.306 136.547 294.525 136.323Z" fill="#98958B"/>
<path d="M251.875 78.5322C249.895 83.3881 246.449 87.0334 242.351 90.1306C245.774 86.4689 249.124 82.7385 251.875 78.5322Z" fill="#98958B"/>
<path d="M141.714 137.752C142.934 138.234 143.647 139.258 144.385 140.249C146.724 143.36 148.207 146.922 149.921 150.527C149.263 150.477 149.209 149.989 149.068 149.698C148.045 147.813 147.061 145.921 146.078 144.029C144.897 141.755 143.427 139.692 141.714 137.752Z" fill="#98958B"/>
<path d="M244.962 85.2884C247.205 81.5546 250.138 78.2916 252.185 74.4189C250.94 78.8242 247.907 82.0335 244.962 85.2884Z" fill="#98958B"/>
<path d="M264.509 165.417C268.621 165.779 272.297 165.017 275.886 163.692C273.292 165.913 266.884 166.959 264.509 165.417Z" fill="#98958B"/>
<path d="M206.477 167.061C204.603 170.813 201.45 173.21 197.943 175.252C200.913 172.622 204.123 170.266 206.477 167.061Z" fill="#98958B"/>
<path d="M256.075 246.459C252.839 244.394 249.384 243.007 246.149 241.185C247.408 241.366 248.529 241.864 249.653 242.382C250.777 242.9 252.007 243.268 253.012 243.979C254.04 244.706 255.522 244.889 256.075 246.459Z" fill="#98958B"/>
<path d="M245.249 96.1509C241.92 97.9897 239.199 100.536 236.349 102.922C238.73 99.8756 241.532 97.3861 245.249 96.1509Z" fill="#98958B"/>
<path d="M175.997 170.626C176.912 170.926 177.714 170.454 178.545 170.21C179.943 169.778 181.279 169.163 182.625 168.608C179.904 170.738 176.69 171.41 173.359 171.757C174.104 170.95 175.369 171.464 176.088 170.62L175.997 170.626Z" fill="#98958B"/>
<path d="M189.478 199.854C187.951 197.872 186.329 193.917 186.265 192.294C186.312 192.276 186.368 192.246 186.427 192.236C186.478 192.237 186.549 192.235 186.584 192.26C186.66 192.348 186.747 192.445 186.784 192.54C187.638 194.86 188.481 197.172 189.478 199.854Z" fill="#98958B"/>
<path d="M123.016 128.022C123.266 130.903 123.552 133.757 123.888 136.613C122.993 133.812 122.605 130.955 123.016 128.022Z" fill="#98958B"/>
<path d="M113.514 231.101C113.741 232.25 113.246 232.68 112.908 233.133C111.664 234.818 110.702 236.668 109.639 238.464C109.165 239.255 109.074 240.144 108.982 241.032C108.143 249.469 106.57 257.767 104.028 265.866C103.804 266.574 103.774 267.401 102.894 268.131C105.523 258.292 107.567 248.593 108.225 238.625C107.68 238.048 107.174 237.465 106.635 236.928C106.112 236.418 105.322 236.137 104.986 235.119C106.385 235.468 107.086 236.536 108.315 237.076C108.609 233.159 108.613 229.332 108.428 225.526C107.592 224.675 106.762 223.914 105.846 223.248C104.953 222.599 103.75 222.389 103.053 221.341C104.269 221.214 104.269 221.214 105.744 222.241C106.564 222.821 107.384 223.401 108.366 224.096C108.237 220.971 107.964 218.074 107.526 215.216C105.857 213.827 103.797 213.358 102.013 212.303C103.964 212.02 105.46 213.286 107.166 213.887C107.409 213.054 107.035 212.529 106.38 212.083C104.867 211.012 103.317 210.019 101.535 209.451C101.041 209.292 100.567 209.079 100.024 208.868C101.178 208.142 101.35 208.194 106.622 210.884C106.825 210.474 106.644 210.069 106.565 209.666C105.54 204.624 104.043 199.734 102.051 194.98C101.551 193.777 100.75 193.071 99.5734 192.603C97.4033 191.726 95.13 191.313 92.8466 190.842C92.226 190.714 91.5338 190.762 91.0067 190.233C92.7215 189.696 95.2204 190.181 100.612 192.09C98.9436 188.569 96.8932 185.368 94.5427 182.37C93.8148 181.439 92.9345 180.625 92.1952 179.686C91.7056 179.08 91.1042 178.828 90.3767 178.729C88.3474 178.437 86.3299 178.569 84.3143 178.772C83.0862 178.891 81.8629 178.979 80.6376 178.996C82.3406 178.034 84.2162 177.784 90.0284 177.702C90.0561 177.271 89.6789 177.143 89.4364 176.972C87.1115 175.309 84.8405 173.546 82.4094 172.034C79.5577 170.259 76.3365 169.349 73.1091 168.521C72.5789 168.388 72.045 168.53 71.5158 168.641C69.5109 169.025 67.651 169.841 65.8359 170.741C64.6773 171.325 63.5037 171.881 62.107 172.556C63.4585 170.965 65.6209 169.722 69.7534 168.07C69.5323 167.55 69.0331 167.716 68.6694 167.667C64.0397 167.008 59.3936 167.083 54.7485 167.402C53.836 167.466 53.0068 167.781 52.2325 168.238C50.4001 169.334 48.5562 170.421 46.4483 171.685C47.7007 169.989 49.5155 169.384 50.5996 167.95C47.7564 168.832 45.6373 170.921 43.0642 172.254C44.3811 170.638 46.1509 169.533 47.7218 168.097C47.0412 168.153 46.3537 168.169 45.6914 168.272C43.6811 168.566 41.6892 168.907 39.6756 169.181C38.2883 169.378 37.0122 169.809 35.8561 170.586C34.9164 171.203 33.9718 171.852 33.0172 172.442C32.4939 172.765 32.0405 173.259 31.2381 173.315C32.1765 172.038 33.633 171.474 34.6345 170.328C32.8982 170.087 28.3967 170.889 25.9384 171.766C23.1828 172.746 20.5168 173.892 17.8229 175.054C19.4297 173.175 21.8237 172.633 23.9178 171.584C18.9984 171.605 14.0735 172.245 9.3077 170.554C14.2886 171.427 19.271 171.122 24.6173 170.571C22.0098 169.333 19.4858 168.76 17.388 167.12C17.8564 166.654 18.1899 166.942 18.5262 167.128C20.6185 168.262 22.7741 169.233 25.0374 170.002C25.7803 170.25 26.5261 170.397 27.3068 170.273C29.9054 169.859 32.4842 169.448 35.0827 169.033C35.2405 169.006 35.4044 168.897 35.782 168.731C33.336 167.191 30.6704 166.206 28.9269 163.967C29.0004 163.863 29.0658 163.77 29.1394 163.666C29.7284 164.083 30.329 164.508 30.918 164.925C32.5234 166.061 34.0798 167.266 35.8909 168.063C36.3836 168.273 36.8803 168.624 37.3883 168.567C39.07 168.371 40.77 168.222 42.7234 167.715C39.7107 166.363 36.9781 165.105 34.7108 163.068C35.945 163.577 37.1744 164.118 38.2798 164.882C39.6509 165.835 41.1834 166.486 42.6948 167.192C43.7298 167.664 44.7347 167.665 45.9645 167.2C42.7333 165.521 39.5101 164.124 36.47 161.782C37.6271 161.959 38.3262 162.367 39.0369 162.784C41.3554 164.112 43.682 165.429 46.1374 166.491C46.8395 166.797 47.5645 167.119 48.3636 167.043C51.0829 166.801 53.8105 166.547 56.8917 166.283C55.2564 165.092 53.7622 164.19 52.4988 163.036C51.2619 161.919 49.7938 160.932 49.0881 159.063C50.6899 159.763 51.5295 161.051 52.5932 162.046C54.139 163.486 55.8743 164.61 57.5966 165.777C58.1361 166.141 58.8111 166.29 59.4673 166.269C63.1642 166.164 66.8412 166.356 70.7637 167.034C68.2334 164.291 65.506 161.997 64.4214 158.508C65.0861 158.181 65.1787 158.663 65.3164 158.933C66.5689 161.328 68.2623 163.393 70.1442 165.314C71.3619 166.556 72.6872 167.598 74.4784 167.982C75.9223 168.293 77.3114 168.877 78.7149 169.368C79.0493 169.483 79.3578 169.684 79.732 169.498C77.7681 163.186 77.563 161.81 78.353 160.081C78.8731 160.155 78.7713 160.568 78.7743 160.882C78.8248 163.726 79.5506 166.423 80.4621 169.079C80.7087 169.808 81.1188 170.306 81.7718 170.681C83.4719 171.659 85.2585 172.49 86.8583 173.83C87.2154 173.129 86.976 172.561 86.893 172.017C86.4884 169.062 86.9724 166.198 87.8317 163.391C87.9484 163.006 88.0897 162.586 88.5658 162.403C88.8274 163.16 88.4207 163.808 88.2609 164.475C87.5436 167.399 87.328 170.349 87.6883 173.343C87.8062 174.327 88.1712 175.036 89.2615 175.357C89.1797 171.382 89.2066 167.449 90.9958 163.672C91.699 164.221 91.3278 164.721 91.1962 165.079C90.2113 167.744 89.9572 170.528 89.8989 173.33C89.879 174.044 90.0006 174.754 90.0317 175.469C90.0741 176.487 90.5506 177.136 91.5437 177.423C91.3851 169.858 91.8641 166.609 93.3965 165.006C93.6711 165.721 93.3366 166.316 93.155 166.915C92.1488 170.346 92.087 173.838 92.2754 177.369C92.3079 178.033 92.4684 178.614 92.956 179.15C95.1176 181.46 96.9907 183.981 98.7392 186.605C98.7921 186.677 98.9451 186.681 99.1626 186.766C99.8678 182.585 101.242 178.635 103.265 174.918C103.48 174.516 103.674 174.046 104.204 173.885C104.643 174.195 104.36 174.497 104.187 174.791C102.451 177.93 101.204 181.26 100.315 184.721C100.077 185.645 99.9875 186.604 99.8321 187.534C99.7438 188.026 99.8181 188.46 100.077 188.903C101.479 191.404 102.663 193.992 103.826 196.808C104.961 195.497 105.176 193.846 106.063 192.568C106.984 191.243 107.622 189.753 108.588 188.461C109.852 186.773 111.008 185.58 112.113 185.096C111.465 186.354 110.647 187.266 109.886 188.218C107.658 190.975 105.991 194.042 104.574 197.268C104.386 197.707 104.333 198.172 104.488 198.663C105.062 200.352 105.596 202.047 106.146 203.719C106.71 203.754 106.741 203.343 106.84 203.031C107.888 199.786 109.39 196.758 111.236 193.905C111.556 193.403 111.764 192.84 112.049 192.314C112.504 191.475 112.673 191.334 113.747 190.846C112.503 193.069 111.296 195.265 110.062 197.425C108.746 199.7 107.78 202.119 106.934 204.589C106.588 205.592 106.696 206.517 107.358 207.713C109.041 202.37 111.428 197.698 114.381 193.305C114.52 193.109 114.67 192.921 115.003 192.965C115.334 193.183 115.072 193.431 114.94 193.666C113.772 195.734 112.56 197.789 111.427 199.881C109.88 202.704 108.682 205.67 107.803 208.774C107.628 209.413 107.607 210.056 107.729 210.715C108.242 213.469 108.695 216.234 108.963 219.284C110.016 218.139 110.718 217.024 111.363 215.868C111.996 214.704 112.614 213.513 113.546 212.612C114.505 211.697 115.045 210.345 116.387 209.821C116.005 210.851 115.365 211.681 114.703 212.495C112.946 214.684 111.467 217.069 109.872 219.372C109.017 220.604 109.085 221.953 109.398 223.543C111.519 219.861 113.379 216.203 116.613 213.274C116.537 214.434 115.945 215.124 115.366 215.772C112.976 218.414 111.436 221.571 109.683 224.611C109.485 224.939 109.44 225.272 109.442 225.637C109.463 229.257 109.476 232.889 109.525 236.615C110.858 234.855 112.108 233.088 113.514 231.101Z" fill="#98958B"/>
<path d="M36.8994 356.35C37.5489 355.579 38.3035 355.125 39.0465 354.663C47.0914 349.54 55.297 344.704 63.937 340.626C65.2698 339.992 66.1693 338.843 67.013 337.724C68.851 335.298 70.5965 332.807 72.2728 330.267C73.1746 328.894 73.8488 327.378 74.7357 325.978C74.2295 328.653 72.8018 330.866 71.2422 333.021C69.7072 335.142 68.3801 337.409 66.487 339.276C69.0002 338.541 71.3416 337.633 72.8063 335.22C73.7975 333.599 75.2887 332.349 76.3655 330.754C78.387 327.799 80.1414 324.707 81.711 321.485C81.9359 321.02 82.1574 320.535 82.9678 320.051C80.1571 326.399 76.9059 332.072 71.7483 336.985C73.2077 336.735 74.2164 336.461 74.955 335.735C75.7542 334.949 76.5995 334.195 77.235 333.223C78.2921 331.631 79.4069 330.08 80.5449 328.546C82.2059 326.272 83.3525 323.721 84.6425 321.236C85.3764 319.832 85.825 318.243 87.0767 317.135C84.4248 323.7 81.12 329.889 76.3956 335.316C76.9309 335.123 77.4581 334.941 77.9819 334.74C80.6042 333.753 83.1899 332.671 85.8638 331.807C88.3077 331.023 90.0686 329.392 91.7168 327.577C94.3733 324.655 96.576 321.396 98.8249 318.168C100.432 315.873 101.787 313.418 103.147 310.983C103.799 309.816 104.619 308.731 105.311 307.557C104.9 309.78 103.628 311.601 102.516 313.466C101.367 315.409 100.345 317.441 98.9596 319.252C97.6154 321.004 96.4478 322.899 95.054 324.6C93.6241 326.327 92.2901 328.138 90.7996 329.926C92.0165 329.505 93.23 329.064 94.4469 328.642C96.5834 327.901 98.6964 327.021 100.871 326.446C103.901 325.643 106.389 323.989 108.755 322.041C113.873 317.845 117.915 312.697 121.441 307.15C122.447 305.557 123.461 303.952 124.495 302.344C124.592 303.088 124.307 303.736 123.933 304.338C122.398 306.753 120.975 309.23 119.327 311.582C116.13 316.149 112.349 320.146 108.001 323.621C107.832 323.762 107.556 323.809 107.551 324.257C108.977 323.809 110.381 323.417 111.764 322.957C116.4 321.401 121.022 319.818 125.666 318.252C127.172 317.74 128.387 316.832 129.509 315.736C132.607 312.729 135.133 309.282 137.56 305.73C139.209 303.326 140.884 300.959 142.167 297.897C142.316 299.181 141.809 299.897 141.49 300.642C140.359 303.17 138.659 305.329 137.108 307.594C135.075 310.54 133.015 313.451 130.333 315.869C130.201 315.983 130.152 316.174 130.057 316.333C131.687 316.185 132.591 315.716 133.975 314.373C137.715 310.728 140.626 306.443 143.51 302.123C144.197 301.102 144.631 299.901 145.192 298.79C145.345 298.5 145.4 298.105 145.829 298.062C145.603 300.952 140.617 308.465 134.88 314.563C135.351 314.705 135.684 314.456 136.014 314.308C139.93 312.693 143.819 311.043 147.761 309.464C149.091 308.932 150.143 308.082 151.008 307.03C153.438 304.087 155.555 300.923 157.125 297.406C157.41 296.759 157.908 296.227 158.041 295.108C158.267 296.602 157.95 297.245 156.788 299.646C156.084 301.107 155.095 302.382 154.445 303.864C153.808 305.303 152.429 306.199 151.445 307.859C152.855 307.262 153.947 306.822 155.032 306.342C157.051 305.448 159.043 304.518 161.063 303.624C162.231 303.099 163.149 302.292 163.916 301.258C165.526 299.104 166.82 296.761 168.037 294.381C168.227 294.013 168.383 293.621 168.794 293.409C168.851 294.749 168.609 295.237 164.602 301.709C165.115 301.743 165.453 301.461 165.827 301.276C168.661 299.867 171.3 298.146 173.897 296.361C174.434 295.996 174.928 295.566 175.837 295.359C174.756 296.691 173.508 297.524 172.326 298.386C171.083 299.31 169.761 300.125 168.424 300.912C167.107 301.696 165.737 302.408 164.399 303.367C165.051 303.327 165.704 303.286 166.369 303.253C167.858 303.181 169.342 303.191 170.835 303.433C171.452 303.54 172.159 303.521 172.601 304.145C172.342 304.586 171.98 304.312 171.682 304.292C170.437 304.191 169.194 303.988 167.947 303.937C164.611 303.778 161.432 304.302 158.451 305.919C157.096 306.658 155.624 307.194 154.224 307.85C153.866 308.013 153.391 308.023 153.198 308.615C155.18 308.509 157.119 308.512 159.057 308.687C161.191 308.88 163.301 309.229 165.376 309.848C166.007 310.035 166.643 310.19 167.022 310.805C166.623 311.198 166.258 310.905 165.864 310.8C161.471 309.563 156.994 309.03 152.43 309.406C151.541 309.487 150.638 309.611 149.787 309.858C148.822 310.146 147.914 310.595 147.001 311.249C147.351 311.22 147.721 311.187 148.071 311.157C152.971 310.724 157.838 310.875 162.645 311.92C163.668 312.141 163.679 312.149 164.582 312.857C163.764 313.058 163.093 312.757 162.433 312.636C156.885 311.536 151.33 311.279 145.711 312.018C144.451 312.183 143.268 312.507 142.104 313.001C139.681 314.025 137.236 314.982 134.817 315.974C134.515 316.107 134.225 316.248 133.99 316.654C134.613 316.679 135.232 316.736 135.852 316.741C142.111 316.837 148.148 318.006 153.995 320.202C154.873 320.528 155.685 320.948 156.317 321.793C155.8 321.618 155.27 321.486 154.758 321.279C147.486 318.231 139.874 317.23 132.051 317.362C131.454 317.372 130.869 317.513 130.305 317.721C128.235 318.492 126.161 319.243 124.031 320.024C124.281 320.651 124.839 320.474 125.242 320.517C131.038 321.29 136.675 322.731 142.106 324.927C144.035 325.703 145.96 326.511 147.64 327.786C147.944 328.018 148.415 328.161 148.333 328.693C148.171 328.873 148.005 328.789 147.866 328.691C144.14 326.02 139.875 324.528 135.55 323.218C131.961 322.117 128.284 321.387 124.582 320.812C122.925 320.558 121.419 320.776 119.969 321.552C120.155 322.048 120.603 321.88 120.901 321.9C128.862 322.627 136.419 324.855 143.677 328.119C144.701 328.584 145.669 329.199 146.647 329.753C146.995 329.947 147.333 330.204 147.417 330.869C146.614 330.509 145.906 330.286 145.284 329.915C141.435 327.59 137.19 326.216 132.928 324.915C128.483 323.555 123.908 322.745 119.269 322.27C118.361 322.182 117.485 322.221 116.646 322.598C116.66 322.798 116.685 323.007 116.711 323.216C115.725 323.09 114.796 323.178 113.862 323.47C110.063 324.699 106.238 325.892 102.447 327.11C102.197 327.193 101.886 327.216 101.658 327.661C111.244 328.517 120.496 330.383 129.077 334.791C131.024 335.788 133.002 336.789 134.706 338.202C134.989 338.438 135.448 338.623 135.359 339.115C135.189 339.307 135.001 339.278 134.863 339.18C128.244 334.375 120.785 331.593 112.854 329.916C108.948 329.093 105.015 328.477 101.016 328.177C100.111 328.109 99.2261 328.159 98.3738 328.457C94.7808 329.762 91.1995 331.076 87.6296 332.398C87.3242 332.511 86.9297 332.578 86.6823 333.149C90.8133 333.385 94.8214 334.089 98.7407 335.164C102.617 336.226 106.528 337.191 110.013 339.345C109.755 339.856 109.486 339.648 109.242 339.527C104.013 337.144 98.5144 335.68 92.9007 334.55C90.5664 334.077 88.1821 333.846 85.8113 333.694C84.7221 333.616 83.685 333.784 82.6721 334.211C81.27 334.796 79.8348 335.306 78.4333 336.013C80.6639 336.828 83.1207 336.712 85.1447 338.04C81.9738 337.721 78.9341 336.211 75.6464 336.987C77.3333 337.591 79.2075 337.392 80.9076 338.37C80.3477 338.598 79.9508 338.473 79.5443 338.411C78.8991 338.318 78.2458 338.237 77.6054 338.113C75.1344 337.613 72.8581 338.013 70.4956 338.975C61.8515 342.496 53.778 347.096 45.7527 351.799C43.6496 353.032 41.5234 354.249 39.3938 355.446C38.6175 355.833 37.8725 356.224 36.8994 356.35Z" fill="#98958B"/>
<path d="M117.71 322.882C127.413 324.601 136.852 326.375 145.177 332.075C144.485 332.538 144.222 332.248 143.945 332.052C139.447 328.904 134.365 327.145 129.116 325.771C125.608 324.849 122.082 324.052 118.49 323.469C118.252 323.439 118.012 323.46 117.71 322.882Z" fill="#98958B"/>
</g>
</svg>
