<svg width="40" height="40" viewBox="0 0 40 40" fill="none" xmlns="http://www.w3.org/2000/svg">
<circle cx="20" cy="20" r="19.29" stroke="#FEFBF7" stroke-width="1.42"/>
<path d="M28.817 14.996C28.8117 14.9959 28.8063 14.9959 28.8008 14.9959H26.4556C26.2924 14.9959 26.2318 15.0362 26.2096 15.0531C26.1781 15.0772 26.1363 15.1253 26.0912 15.2294L26.0898 15.2329L26.0782 15.2608C26.0683 15.2848 26.0538 15.3193 26.0349 15.3635C25.9972 15.4518 25.942 15.5786 25.8706 15.7362C25.728 16.0511 25.5202 16.4902 25.2581 16.9907C24.7384 17.983 23.9866 19.252 23.0857 20.2675L23.0735 20.2812L23.0606 20.2943C22.5554 20.8076 22.1036 21.2354 21.4627 21.2354C20.6961 21.2354 20.3881 20.4698 20.3881 19.8481V15.1566C20.3881 15.0899 20.3853 15.0371 20.3813 14.9959H17.0143C17.0561 15.0484 17.1048 15.1106 17.1542 15.1785C17.4495 15.5843 17.7359 16.1491 17.7873 17.1017L17.7883 17.1208V17.1399V20.627C17.7883 21.0018 17.764 21.3988 17.5957 21.706C17.4934 21.8927 17.3389 22.048 17.1319 22.1424C16.9446 22.2278 16.7638 22.2401 16.6431 22.2401C16.3391 22.2401 16.0807 22.1066 15.9024 21.988C15.7106 21.8606 15.5242 21.6912 15.3476 21.5043C14.9929 21.1289 14.6129 20.6127 14.2361 20.0112C13.4798 18.8042 12.6864 17.1737 12.0956 15.4364L28.817 14.996ZM28.817 14.996L28.8146 15.0072C28.7638 15.2431 28.5761 15.6762 28.2652 16.2536C27.9666 16.8081 27.5914 17.4299 27.2198 18.0175C26.8492 18.6036 26.4871 19.1481 26.2173 19.5466C26.0825 19.7456 25.971 19.9078 25.8935 20.0199C25.8547 20.0759 25.8244 20.1194 25.804 20.1488L25.7808 20.182L25.775 20.1902L25.7736 20.1921L25.7733 20.1926L25.7733 20.1926L25.7733 20.1926L25.7607 20.2106L25.7492 20.2292C25.7441 20.2375 25.7388 20.2461 25.7333 20.255C25.6277 20.4259 25.4506 20.7126 25.4234 21.0525C25.3904 21.4633 25.5711 21.7992 25.7834 22.078C25.9453 22.3018 26.2384 22.5916 26.5 22.8503C26.5169 22.867 26.5336 22.8835 26.5501 22.8998C26.8589 23.2055 27.176 23.5209 27.4249 23.8175L27.4304 23.824L27.4359 23.8303C27.935 24.397 28.36 24.9059 28.6831 25.3477C29.011 25.796 29.1953 26.1243 29.2664 26.3419C29.2752 26.3735 29.2808 26.3996 29.2843 26.4208C29.2488 26.427 29.1996 26.432 29.1344 26.432H26.7904C26.6737 26.432 26.6052 26.4111 26.5403 26.3767C26.4596 26.3341 26.3531 26.2534 26.1841 26.0822C26.046 25.9423 25.8952 25.773 25.6996 25.5533C25.652 25.4998 25.6018 25.4434 25.5484 25.3837C25.2827 25.0863 24.9593 24.7303 24.5499 24.3167L24.5499 24.3166L24.5404 24.3073C23.1381 22.943 22.3614 22.5755 21.7108 22.5755C21.4598 22.5755 20.9898 22.5967 20.6719 22.9955C20.5276 23.1765 20.4625 23.3793 20.4293 23.5518C20.3963 23.7238 20.387 23.9103 20.387 24.0978V26.2216C20.387 26.2724 20.385 26.3077 20.3826 26.3314C20.3483 26.345 20.2873 26.3644 20.1876 26.3823C20.0181 26.4128 19.7734 26.4331 19.4234 26.4331C17.2241 26.4331 14.695 25.0722 12.857 22.4071L12.8571 22.4071L12.8525 22.4005C11.43 20.3869 10.5306 18.6275 9.98897 17.3064C9.718 16.6454 9.53783 16.0972 9.4265 15.6846C9.32932 15.3244 9.29343 15.0997 9.28412 15.0005C9.30908 14.9984 9.33936 14.997 9.37562 14.997H11.7197C11.8195 14.997 11.8681 15.0083 11.887 15.0144C11.8978 15.0179 11.8992 15.0194 11.9003 15.0205C11.9004 15.0207 11.9006 15.0209 11.9008 15.0211C11.9223 15.0411 11.9891 15.124 12.0956 15.4364L28.817 14.996Z" fill="#FEFBF7" stroke="#FEFBF7" stroke-width="1.42"/>
</svg>
