<svg width="31" height="96" viewBox="0 0 31 96" fill="none" xmlns="http://www.w3.org/2000/svg">
<path d="M21.7288 71.3244C21.9651 72.2201 22.1769 73.4389 22.0927 74.8722C22.0384 75.8114 21.9053 76.015 21.7614 77.3912C21.6012 78.9167 21.6175 80.0758 21.6283 81.0395C21.6446 82.3234 21.6609 83.5151 21.8944 85.0514C22.2339 87.2855 22.6114 87.4728 22.4593 88.6671C22.367 89.3783 22.2067 90.6215 21.297 91.5852C20.8598 92.0466 20.2027 92.5 19.6052 93.5423C19.3418 94.0038 19.3337 94.1558 19.3717 94.2725C19.5971 94.9348 21.5659 95.1031 23.054 94.4381C23.4016 94.2834 24.409 93.8328 24.7729 92.8501C24.9875 92.272 24.8816 91.7806 24.811 91.3192C24.811 91.3192 24.5584 89.6769 24.8761 87.0737C24.9929 86.1237 25.0907 86.3815 25.9705 83.1595C26.3833 81.6502 26.5897 80.8956 26.701 80.2414C26.9671 78.6562 26.8639 77.8065 26.8666 75.8983C26.8721 73.3277 26.8748 72.0437 27.1328 70.7923C27.6026 68.504 27.5917 68.6968 28.6535 65.1109C28.8653 64.3943 29.6338 62.8281 29.87 61.517C30.2122 59.6331 30.31 58.3981 29.9352 56.4871C29.6827 55.1895 29.5876 54.2313 29.2889 53.6124C28.8327 52.6624 28.3195 51.6227 27.2332 50.651C26.9698 50.4148 26.4973 49.9968 25.7723 49.633C25.164 49.3263 23.665 48.5744 21.9569 49.0684C21.6799 49.1498 19.5998 49.7525 19.2359 51.5223C19.2142 51.6227 18.9752 52.8823 19.7655 53.7455C21.0391 55.1353 23.6759 54.063 23.8795 53.9789C25.3541 53.3573 26.1226 52.1955 26.6983 51.2916C27.0051 50.8138 27.6949 49.3751 27.9203 46.3159C28.1538 43.1644 28.0968 42.6243 28.2842 41.0417C28.314 40.792 28.8137 39.2067 28.982 38.786C29.775 36.78 29.9298 35.8109 29.9787 35.4689C30.2366 33.5932 30.2285 31.2262 30.2448 30.5937C30.3181 27.6539 30.2122 26.0497 29.9135 23.9623C29.9135 23.9623 28.7838 18.8048 26.9671 12.5886C26.9671 12.5886 26.128 9.71944 24.3466 5.25956C23.4912 3.12056 23.0404 1.28557 22.7471 1.34529C22.2964 1.43758 22.0574 4.74924 22.2502 6.41864C22.5924 9.3937 23.2115 10.1999 23.942 13.6826C24.5095 16.3943 24.4715 17.7271 24.5231 20.2977C26.4159 22.8113 26.2502 23.4547 26.4973 24.193C26.481 24.516 26.6684 24.9829 26.6956 26.0171C26.7091 26.5003 26.8612 28.0964 26.147 29.9504C25.593 31.3891 24.7186 32.3717 23.2577 32.8277C21.8076 33.2811 21.3649 33.015 19.8958 32.6513C18.6141 32.3337 17.5088 29.5785 17.4735 26.3021C17.4491 24.0898 17.0879 23.5985 17.7397 21.9889C18.1144 21.0605 19.3337 20.1539 21.1775 19.7847C22.9264 19.4318 24.3194 20.2787 24.6127 20.5475C27.4532 23.1479 27.1708 30.0644 24.8245 31.9645C23.2957 33.2023 22.7444 33.1752 20.4308 32.7897C20.0261 32.7219 19.054 32.369 18.6113 31.4325C17.4898 29.0492 17.6989 28.5334 17.574 27.1138C16.6752 20.447 18.6548 22.9362 18.3561 18.6582C18.1389 15.542 20.1999 12.0919 20.1999 12.0919C20.9739 7.28999 21.8727 3.62274 21.4871 3.47073C20.9983 3.278 19.035 7.81931 17.8782 10.3682C17.0526 12.1842 15.8931 15.1728 15.092 20.2516C13.946 27.4938 13.7097 31.7881 15.4721 36.723C16.3873 39.2882 16.5991 40.0835 17.574 43.1346C17.9216 44.2285 18.5434 45.051 17.5088 50.4962C16.6181 55.1733 15.9392 56.4219 15.5835 57.7602C15.1517 59.3861 18.5326 60.2602 19.4722 59.7173C20.0234 59.3997 20.2787 58.4306 20.0017 57.7276C19.3283 56.012 15.4097 55.7189 12.7023 56.2021C12.7023 56.2021 6.99691 57.22 2.22296 65.4258C1.83735 66.0882 0.992796 67.5404 1.55763 68.6696C1.62009 68.7945 1.67986 68.8786 1.72059 68.9329C2.46465 69.9563 4.07769 70.1164 5.0743 70.13C6.29901 70.1463 8.21346 69.9617 11.7763 68.5393C13.7749 67.7413 14.7525 67.1658 17.0173 66.5496C19.3717 65.909 20.0614 66.0529 20.4009 66.4166C21.1015 67.1658 20.0017 68.5176 20.8001 69.997C21.2916 70.9091 22.3425 71.5659 22.7906 71.3244C23.3065 71.0448 22.5571 69.8314 22.8558 67.6761C23.0486 66.2863 23.4668 66.0176 23.9176 63.6967C24.257 61.9459 24.1158 61.5957 23.9176 61.441C23.4505 61.0745 22.6168 61.7423 21.3975 62.1712C19.2577 62.9231 18.3045 62.106 15.426 62.1712C14.1551 62.201 12.0967 62.2472 9.98401 63.2977C7.82243 64.3726 7.4694 65.5724 4.47686 67.3422C3.4015 67.9774 2.4728 68.4009 1.88895 68.6479" stroke="#5B6158"/>
</svg>
