<svg width="75" height="81" viewBox="0 0 75 81" fill="none" xmlns="http://www.w3.org/2000/svg">
<path d="M42.5338 38.5407C42.5962 41.8007 43.0633 45.0418 43.0633 45.0418C43.3539 47.0451 43.7367 48.8584 42.7972 49.6184C42.3681 49.9659 42.0911 49.7487 40.7415 50.1477C40.0898 50.3405 39.0416 50.6526 38.1536 51.3421C36.8229 52.3763 36.3912 53.8421 36.2282 54.3932C36.0191 55.1071 35.3837 57.2597 36.6274 59.2358C37.5426 60.6907 38.9709 61.2445 39.5466 61.4236C40.4183 61.6951 41.0701 61.6435 42.3328 61.5567C47.2507 61.2201 45.8549 61.4182 47.7069 61.2255C48.193 61.1739 50.3247 60.9486 53.6133 60.4302C53.8468 60.3922 56.5596 59.9578 59.9839 59.0376C60.9371 58.7825 62.8108 58.2559 63.5006 56.9149C63.5902 56.7385 63.7966 56.3259 63.6337 55.9866C63.3947 55.4898 62.4687 55.3595 61.8414 55.5875C60.9126 55.9296 60.5841 57.0886 60.3804 57.8433C60.1604 58.6603 59.84 60.3867 60.7796 63.8802C61.4748 66.4617 61.8142 66.1278 62.1075 67.9248C62.5284 70.5117 62.6753 70.6674 62.6753 73C62.6753 73.8342 62.6753 74.5 62.3709 75.6855C62.2626 76.1075 62.1617 76.6145 62.1753 77C62.1916 77.4859 62.3926 77.5829 62.9032 77.7403C63.506 77.9276 63.9339 77.8477 65.1753 77.6073C66.3238 77.4642 66.7439 77.3724 67.6753 77.5C68.7615 77.6466 68.7606 77.6513 70.2705 77.8055C72.1753 78 73.8387 78.2289 74.0533 77.6073C74.227 77.1024 73.3758 76.3216 72.3288 75.8158C71.6753 75.5 71.3235 75.5026 70.2705 75C68.1753 74 67.0525 73.0063 66.8869 72.6968C66.0749 71.1849 66.1591 69.7435 66.2243 69.1816C66.0152 62.7103 65.9066 58.1907 65.9582 56.3802C65.9636 56.22 65.9772 55.7857 65.8251 55.2537C65.3173 53.4702 63.4979 52.5392 62.838 52.2026C58.7348 50.1043 50.2731 51.9149 47.3783 52.6016C42.8325 53.6793 40.3559 54.2683 37.2276 55.9838C33.1515 58.2206 31.0334 59.3851 28.6681 61.6218C27.7829 62.4606 26.5636 63.7337 24.4889 64.4069C22.7917 64.9579 22.1236 64.5887 20.2418 64.738C15.237 65.1343 14.4739 68.1854 9.16227 68.7826C8.54041 68.8532 7.5764 68.9835 5.64564 69.2468C2.8106 69.6322 2.18329 69.7462 1.66462 70.3081C0.877108 71.1605 0.961304 72.3738 1.06721 73.8885C1.14868 75.0449 1.30074 77.2463 2.92464 78.4651C3.38086 78.8071 3.78004 78.9428 4.51596 79.1953C6.27021 79.7925 8.14124 79.8603 8.23085 79.5265C8.30689 79.2469 7.01969 79.0867 6.24033 77.9358C5.58588 76.9694 5.45011 75.5443 5.90904 74.5535C6.61508 73.028 8.64905 72.6941 11.351 72.2327C14.4956 71.6952 17.6131 71.0084 20.774 70.5741C27.6226 69.6322 32.7279 67.3656 34.1101 66.7277C38.9193 64.5073 42.0612 61.9448 44.3287 60.0963C46.9167 57.9871 48.2772 56.4752 49.3716 54.9225C50.1401 53.8313 50.6614 52.1836 51.2969 50.0799C52.0056 47.7373 51.8807 46.6895 52.136 44.2872C52.2935 42.8187 52.174 43.2557 52.3967 42.026C52.4646 41.6569 52.1849 43.3968 52.4944 41.4479C52.6031 40.7611 53.3878 38.7171 53.7246 37.7996C53.9174 37.2703 54.0016 36.893 53.9228 36.5727C53.8169 36.1384 53.5209 35.5629 53.1109 35.229C52.9968 35.1367 52.7741 34.8816 52.4809 34.6807C51.8345 34.2409 52.136 34.4499 50.6098 33.1633C48.0844 31.0324 47.544 29.6942 46.1862 29.7811C44.0436 29.9168 41.9526 32.5987 41.3416 36.3474C41.3715 36.665 41.4666 37.0287 41.7408 37.2106C42.3763 37.6313 43.6227 36.8468 44.1957 36.3474C45.8359 34.925 45.2059 33.0873 46.2514 28.4537C46.6723 26.5861 46.7483 27.0069 47.6445 23.6111C48.4727 20.4704 48.8882 18.9015 49.0375 17.5741C49.3607 14.7103 49.8087 10.758 48.0409 7.69069C47.8155 7.2998 47.1122 6.15158 46.914 4.50661C46.7863 3.45339 46.5908 1.45283 46.9927 1.36325C47.2969 1.29539 47.9893 2.58205 49.635 6.2303C51.0742 9.41709 51.8182 11.0051 51.8916 11.4692C52.4347 14.9818 51.8128 15.769 52.0898 19.0969C52.1251 19.5366 52.5542 20.5926 52.4401 21.9797C52.3967 22.5117 52.3342 23.2908 51.8889 24.1377C51.4653 24.9466 51.7151 24.4363 50.694 25.8614C50.5202 26.1029 49.9228 26.7951 49.8223 27.6719C49.7408 28.3804 50.0205 28.8961 50.2975 29.1106C50.7483 29.4635 52.0192 28.9016 52.7524 28.0492C54.303 26.2468 53.3498 23.288 53.2168 22.8754C52.6736 21.1898 51.6445 20.1338 50.7619 19.2272C49.3824 17.8129 48.6465 17.1506 47.5114 16.7733C46.121 16.3091 44.011 16.9796 44.1685 16.9117C44.5677 16.738 45.4611 14.7293 45.8929 14.6587C47.2534 14.4389 47.5684 19.2136 48.231 18.7549C48.6193 18.4861 48.0572 14.9519 47.7096 12.7939C47.267 10.0523 47.419 9.80797 46.9791 8.41545C46.6478 7.36495 46.2867 6.63204 45.9825 6.02671C45.3851 4.82692 44.3695 3.23352 44.0708 3.3041C43.544 3.42897 44.4048 7.38666 44.5243 8.54574C44.7198 10.4649 44.9913 11.7325 44.9886 13.9855C44.9859 15.4622 44.8691 16.3173 44.2581 16.8385C43.6526 17.3542 43.1719 17.0258 42.2676 17.4356C40.6329 18.1767 40.0789 20.218 39.8779 20.9509C39.6363 21.8358 39.2696 23.1849 39.9431 24.5991C40.66 26.1057 42.0803 26.6893 42.3328 26.787C43.8725 27.3896 44.6247 26.6404 45.1869 27.1182C46.5039 28.2528 42.417 32.4032 42.5338 38.5407Z" stroke="#5B6158" stroke-width="0.75"/>
</svg>
