<svg width="89" height="42" viewBox="0 0 89 42" fill="none" xmlns="http://www.w3.org/2000/svg">
<path d="M33.1377 33.574C26.012 31.2639 16.4397 31.1798 8.80355 32.5669C6.54693 32.9415 2.66096 32.2357 2.41113 31.0631C2.41113 30.4442 3.16334 29.9366 3.91555 29.9366C5.08596 29.9366 5.85989 29.8823 6.51434 29.9176C7.33444 29.961 8.05134 29.9447 8.6379 29.714C9.27334 29.4643 9.9468 28.4735 10.403 28.0663C10.4302 28.0419 10.6447 27.7161 11.0222 27.6673C11.9074 27.556 12.2279 27.9387 12.2822 27.9767C12.9502 28.4599 13.2924 28.7531 13.9713 28.8589C15.6142 29.1114 21.955 26.8692 26.8511 27.3035C29.4173 27.5315 29.3983 28.2319 32.4914 29.1819C37.3794 30.6858 42.2674 26.9208 47.1554 28.0554C48.1574 28.2889 50.6503 28.0962 51.6062 28.0609L48.6 30.3926C47.9537 30.7563 47.3482 31.0522 46.3923 31.3888C45.5831 31.6738 44.5837 31.9236 42.9408 32.2737C42.3135 32.4067 41.2545 32.6212 38.4276 33.0691C35.6686 33.5061 34.5498 33.8373 33.7378 33.688C31.8586 33.3432 31.9021 33.2156 29.048 32.537C27.6115 32.1977 26.4683 32.0946 24.9774 32.271C24.7466 32.2982 23.5816 32.613 21.2625 33.2428C20.1709 33.5387 19.0629 33.7721 17.9903 34.1277C17.1023 34.4236 16.7004 34.6027 15.9563 34.657C15.5273 34.6896 14.957 34.619 13.8328 34.4806C12.6026 34.3286 11.9862 34.2526 11.7092 34.1277C10.8728 33.7504 10.604 33.2401 10.0283 33.3324C9.71326 33.3839 9.51231 33.5794 9.23261 33.8617C8.31475 34.7873 8.05406 35.0968 7.48108 35.5338C7.03029 35.8785 6.66098 36.0658 4.89587 35.8948C4.10292 35.8188 3.79607 35.7374 3.30455 35.8948C2.68269 36.093 2.25363 36.511 1.88974 36.8666C1.2706 37.4719 0.958308 37.776 1.00447 38.0175C1.18642 38.9757 6.58223 38.6772 11.7934 37.966C14.8185 37.5534 14.6203 37.6511 17.0181 37.3986C18.4601 37.2466 20.9285 37.0783 26.9272 37.6647C32.1546 38.175 31.7663 38.4464 35.4214 38.726C39.2938 39.0219 38.6339 38.631 45.4174 38.8156C48.9259 38.9106 52.4453 38.5577 55.9456 38.8156C56.4507 38.8536 57.7216 38.9568 59.2179 38.4627C60.0869 38.175 60.5403 37.8465 61.6945 37.1353C65.0536 35.0642 65.1106 35.4334 65.9416 34.6597C68.057 32.6918 67.1256 30.8405 68.5078 30.1483C70.1235 29.3394 75.5275 34.7167 81.9851 37.1C84.9043 38.1777 88.2173 38.6636 88.3721 37.5968C88.7143 36.2423 85.9417 35.732 84.1847 34.7683C83.886 34.6055 81.1922 33.5984 80.0788 32.9523C76.5051 30.8812 73.0401 27.0972 72.6517 26.8394C71.9946 26.4023 71.2858 26.652 70.8785 27.1081C70.4413 27.5967 70.3136 28.9214 71.2695 29.2878C72.1792 29.638 73.6809 27.8763 73.9932 27.1379C74.2132 26.6195 75.59 24.8605 74.539 22.7975C74.1724 22.0809 74.2512 22.2546 72.9342 20.1509C72.1711 18.9321 71.5058 17.7133 71.3564 17.3713C70.7264 15.938 70.6938 16.033 70.539 15.824C69.5696 14.5319 67.8995 13.8452 66.3897 14.0515C66.0556 14.0976 64.3801 14.3582 63.1174 15.8213C62.8377 16.1443 62.2158 16.9451 61.966 18.1205C61.6945 19.4071 62.0692 20.1889 63.2939 23.6037C64.5458 27.0945 64.7576 27.9713 64.8852 28.5549C65.3523 30.6966 65.0536 30.7021 65.4148 31.5625C65.9036 32.7189 66.7834 33.5061 71.3428 35.808C75.0441 37.6755 74.5581 37.6239 77.7706 39.2608C80.1847 40.4931 80.9586 40.5963 82.4902 40.9356C84.8473 41.4595 87.5113 41.3075 87.6226 40.7592C87.6715 40.5176 87.2207 40.2407 86.9138 40.0507C85.7 39.2988 84.5975 39.2173 84.0978 39.0599C81.1351 38.1316 81.7869 38.3324 79.6959 37.2249C78.7264 36.7119 77.8928 36.3237 73.0238 32.6212C72.9151 32.537 72.6925 32.3334 72.391 32.062C72.391 32.062 72.2525 31.9371 72.1168 31.8095C71.6633 31.3915 70.0991 29.8171 69.8384 29.524C68.7712 28.3215 69.4148 25.8893 69.5723 21.2123C69.6266 19.6351 69.5669 19.4777 69.6619 14.4912C69.7081 12.0319 69.7379 11.223 70.1914 10.1589C70.4847 9.46944 70.8649 8.89398 70.9871 7.85977C71.036 7.44717 71.1527 6.4618 70.721 5.47102C70.6042 5.205 70.2946 4.58611 67.8886 2.99542C66.3462 1.97478 65.5777 1.46719 64.7033 1.2256C63.4433 0.880863 62.3788 0.965005 61.3414 1.04915C60.2416 1.13873 59.5818 1.19031 58.7752 1.57848C58.3869 1.76578 57.3007 2.3521 56.5648 3.61162C55.9565 4.65126 55.9076 5.60676 55.856 6.61925C55.8234 7.2653 55.7773 8.34023 56.209 9.62689C56.467 10.3951 56.9151 11.7279 58.1561 12.4581C58.7508 12.8055 59.7393 13.1394 60.0135 12.811C60.3421 12.4174 59.761 10.9407 58.6856 10.6882C58.1154 10.5525 57.4528 10.7778 57.0943 11.2176C56.3041 12.1921 56.8065 14.4614 58.3326 15.1074C59.6225 15.653 61.0998 14.8115 61.7841 13.78C62.5254 12.6617 62.5173 11.0438 61.6945 10.1535C61.1486 9.56173 60.1765 9.22786 59.837 9.53459C59.4487 9.88476 59.9321 11.0248 60.0135 11.2149C60.2145 11.6845 60.4752 11.9831 60.5892 12.1025C60.5892 12.1025 60.8852 12.4174 61.2518 12.6291C62.2104 13.1829 64.5023 12.6779 65.9416 11.1253C66.3299 10.7072 67.1201 9.8549 66.8269 9.179C66.6313 8.73111 66.0095 8.48137 65.499 8.56009C64.7359 8.67953 64.3829 9.51016 64.2607 9.79789C64.0407 10.3164 64.057 10.7072 64.2226 12.5286C64.3964 14.4233 64.448 14.7219 64.3476 15.2811C64.1846 16.204 63.7936 16.8121 63.5519 17.2274C63.169 17.8816 63.1717 18.0255 61.3414 24.1249C61.2355 24.4805 60.7332 26.1472 60.1031 28.3703C59.5682 30.2542 59.2586 31.416 59.3075 32.9686C59.3156 33.2102 59.4052 35.6179 60.0162 35.7102C60.4019 35.77 60.9341 34.8905 61.078 34.1196C61.2301 33.2917 60.9395 32.5723 60.6354 31.8204C60.5729 31.6657 60.372 31.1852 60 30.5908C59.8207 30.3057 59.1364 29.2525 57.8058 28.1939C57.0156 27.5668 56.6218 27.2547 55.9483 27.0429C55.7474 26.9805 54.6775 26.6629 53.3821 27.0429C52.3312 27.3524 51.6876 27.9577 51.2586 28.3703C50.5525 29.0516 48.9368 30.1537 48.4072 30.4876" stroke="#5B6158"/>
</svg>
