<svg width="88" height="69" viewBox="0 0 88 69" fill="none" xmlns="http://www.w3.org/2000/svg">
<path d="M69.8801 13.792C72.6283 10.8576 72.7505 10.5807 74.502 8.6019C75.0994 7.92871 75.3547 7.59483 76.8456 5.79513C77.5163 4.9835 80.3079 1.5307 79.4769 0.99866C78.8713 0.613205 73.4945 4.96179 71.9684 6.81306C68.7939 10.6567 65.9344 13.5504 65.3261 14.1421C61.4185 17.956 61.3261 18.6074 58.7083 20.6541C56.7667 22.1715 55.5637 23.0945 53.6302 23.7351C50.2222 24.8643 47.1292 24.259 45.9968 23.9794C43.1156 23.2736 43.9574 22.101 40.3702 21.1672C38.5942 20.7057 37.3994 21.3355 34.7435 20.8523C31.8135 20.3176 30.7571 20.2415 27.8677 19.4869C22.5127 18.089 22.7245 18.7432 17.9098 16.8376C11.0123 14.1068 11.96 13.602 9.76312 13.5232C8.80182 13.4879 8.4488 14.0254 5.93419 13.8978C4.11205 13.8055 3.46574 13.7377 2.85203 14.039C1.73593 14.5846 0.250513 15.8848 0.535646 16.4087C0.714873 16.7372 1.93145 16.6286 2.85203 16.6313C4.23424 16.634 5.61645 16.8295 6.99595 16.9C8.54653 16.9815 9.64092 17.3724 13.2173 19.2209C19.9709 22.7117 18.385 21.7481 20.6878 22.8664C26.92 25.8985 26.7191 25.9447 30.3063 27.5516C33.8637 29.1423 36.5684 30.1005 40.7639 31.3084C40.7639 31.3084 44.7314 32.1716 52.3675 33.0349C53.8366 33.2004 55.1564 32.8828 55.1917 32.7498C55.2568 32.5001 54.1 32.2911 52.7287 32.1038C51.4008 31.9219 49.8692 31.7238 47.7456 31.4007C45.9615 31.1293 44.954 30.8904 42.9825 30.4208C40.897 29.9241 40.3186 29.6933 39.7619 29.1613C38.7761 28.2221 38.5562 27.0277 38.5019 26.7101C38.2249 25.0869 38.9228 23.8464 39.1319 23.4908C39.3356 23.1406 40.4733 21.2921 42.6349 21.0396C45.1685 20.7437 46.8658 22.9017 47.0477 23.1406C47.9547 24.3323 48.0796 25.5918 48.0986 28.67C48.1231 32.9751 47.9113 36.2868 47.8896 36.6505C47.7728 38.4719 47.7429 40.9448 47.6805 45.8906C47.6805 45.8906 47.4605 51.3847 47.7511 57.1611C47.7755 57.6714 47.8352 58.7002 48.2426 59.9624C48.4164 60.5026 49.0111 62.2941 50.415 63.7437C52.9133 66.3251 56.6174 65.8827 56.5305 66.5314C56.506 66.7133 56.0172 67.2535 55.2297 67.4706C54.2059 67.7529 53.1496 67.5982 51.8162 67.5765C51.1998 67.5656 51.1319 67.5086 50.6132 67.4896C49.3396 67.4381 48.6782 67.3715 47.5356 67.3715C46.6782 67.3715 46.0356 66.8715 46.0356 66.8715C46.0356 66.8715 45.4498 66.2319 45.4184 65.7062C45.2826 63.4342 45.5791 62.6174 45.5356 61.3715C45.5166 60.815 45.565 60.584 44.2507 56.8625C42.9418 53.1599 42.7897 52.6496 42.6621 51.8679C42.4041 50.2636 42.6431 49.8564 42.6621 47.5274C42.6757 45.9422 42.7028 42.7879 41.7741 39.4057C41.5433 38.5588 40.9024 36.9138 39.6261 33.6185C38.3308 30.277 38.5317 28.0538 38.7789 27.6873C39.6696 26.3708 43.7375 30.2335 53.6791 32.3128C57.2664 33.062 59.2406 33.3389 61.337 32.4051C63.4144 31.4795 64.2616 29.9648 66.1001 27.3182C67.4579 25.361 71.1076 20.1031 75.3927 15.8848C81.8856 9.49224 83.132 8.25444 83.132 8.25444C83.7077 7.64369 85.128 6.03672 86.5048 3.93843C86.9474 3.26253 87.1565 1.35154 86.5971 1.04481C85.6982 0.550772 83.648 4.72291 78.7057 9.0715C74.741 12.5623 71.3492 15.5455 67.1727 17.6601C66.5508 17.975 64.8591 18.8029 63.9982 20.5999C63.4415 21.7617 63.0424 23.7296 63.9982 24.848C65.2365 26.2948 67.6697 24.9376 70.8496 24.5223C71.6289 24.4191 73.6059 23.4718 73.7906 22.4213C73.8883 21.8675 73.9073 21.5825 73.6385 21.2079C73.3533 20.8089 72.2997 20.874 71.5828 21.4413C70.3798 22.3941 68.4436 24.4788 68.191 26.1618C68.0281 27.2557 68.0335 28.1352 68.3648 28.6293C69.0003 29.5766 71.8978 29.4735 72.4436 29.4002C73.8448 29.2129 74.8252 28.518 75.3846 28.1624C76.3622 27.5435 76.9352 26.8459 77.3452 26.341C78.426 25.0082 78.8415 23.7812 78.9338 23.4935C79.2244 22.595 79.4525 21.8919 79.2135 21.0206C78.961 20.095 78.3364 19.5358 78.092 19.3403C77.2094 18.6319 76.1884 18.5694 75.8055 18.5477C72.2644 18.336 68.172 20.5076 67.2134 20.2986C66.6622 20.1683 65.1225 18.8707 69.8801 13.792Z" stroke="#5B6158" stroke-width="0.75"/>
</svg>
