<svg width="80" height="53" viewBox="0 0 80 53" fill="none" xmlns="http://www.w3.org/2000/svg">
<path d="M14.3326 20.1437C13.9008 19.837 11.1391 22.9342 10.3923 24.571C9.82206 25.8197 9.64284 26.3653 9.64284 26.3653C9.2708 27.3913 9.41744 27.3289 8.4154 28.5341C7.56543 29.5575 6.48192 31.6476 5.93881 33.8979C5.40113 36.1265 4.96121 37.9479 3.75007 40.1331C3.27213 40.9963 2.24294 42.6874 1.69439 44.9078C1.56676 45.4236 1.4174 46.1565 1.82745 46.6994C2.19134 47.1826 3.03317 47.5572 3.61973 47.1636C4.24159 46.7455 4.26603 45.676 3.88585 45.372C3.37532 44.9675 1.96596 45.7982 1.16215 46.7102C0.741243 47.188 0.472388 47.4947 0.502259 47.891C0.545708 48.4855 1.33323 48.7407 4.19543 50.0572C7.19069 51.4361 6.57969 51.219 7.20427 51.4063C9.1296 51.9817 9.2002 52.1012 9.94698 52.2233C11.4079 52.4676 11.8723 52.4676 12.6462 52.3998C13.5994 52.3183 13.7352 52.2532 13.7895 51.8704C13.89 51.1728 12.1927 50.1386 10.987 49.4817C8.763 48.2711 8.3964 48.1761 7.27216 47.3427C6.88655 47.0577 5.9714 46.6532 5.99584 45.4372C6.01214 44.6038 6.35702 44.0202 6.57698 43.746C7.18255 42.8394 7.89945 41.4279 8.99925 39.8671C10.5878 37.6086 11.3835 36.4794 12.1846 35.4886C14.3706 32.7877 15.1011 32.9316 19.2831 28.9875C21.7895 26.6259 23.5655 24.6524 24.1928 23.9467C27.0143 20.7735 26.3897 20.9363 28.9695 18.1106C29.8194 17.1795 30.664 16.0313 32.353 13.7321C32.5051 13.5231 33.4555 12.2012 33.48 10.548C33.4881 10.0784 33.4175 9.788 33.2139 9.6197C32.7251 9.21253 31.5655 9.58441 31.0251 10.282C30.4603 11.0095 30.645 11.9976 30.759 12.6708C31.1663 15.0595 31.0957 17.5107 31.4895 19.8994C32.2879 24.7502 32.0027 23.9955 32.2852 25.0732C33.0319 27.9125 33.852 31.0206 36.3313 32.3018C36.8934 32.5923 38.3436 32.6737 41.2411 32.8311C44.9451 33.0347 46.5445 31.1672 46.9682 30.7193C48.0164 29.6172 48.2961 27.0846 47.0632 26.0993C46.3164 25.5021 46.1834 25.3935 44.9396 25.2876C43.8236 25.1899 42.349 25.9907 41.8548 27.0113C41.1922 28.3794 41.5099 29.5195 41.9715 30.5103C42.3463 31.3138 42.6667 31.5608 44.4916 33.6265C45.2519 34.487 45.3144 34.6118 45.9526 35.3502C48.7876 38.6293 51.7258 41.1863 51.7258 41.1863C55.0931 44.1152 58.0123 45.9773 60.2853 47.1554C65.0891 49.6473 67.7069 50.3585 70.6017 51.1348C72.4075 51.618 72.7877 51.694 75.3892 52.1175C77.32 52.4323 78.637 52.2315 79.0009 51.8026C79.2534 51.5067 78.9819 50.9177 78.3519 50.6598C76.8692 50.0545 75.6716 49.8807 75.1448 49.7532C73.5969 49.3786 72.7035 49.3677 69.4177 48.1272C66.2975 46.9491 63.7775 45.7629 62.5392 44.9676C61.3661 44.2129 58.3871 42.2096 55.3076 38.9306C54.8623 38.4555 52.8528 36.3192 53.1189 36.0125C53.309 35.7926 54.5093 36.6776 56.8338 38.0022C57.9825 38.6564 59.5684 39.4327 62.7401 40.9881C65.9526 42.5625 67.5168 43.2764 68.4455 43.708C74.0368 46.3112 77.5807 45.6407 78.4659 45.5756C80.5542 45.4181 74.3464 44.1641 71.7639 42.8475C69.4856 41.6858 68.1712 41.1727 66.5555 40.1114C62.3654 37.3535 56.8528 33.108 55.3755 32.2231C51.3049 29.7909 50.3463 32.2991 51.3945 34.5223C52.2744 36.3898 54.6749 40.0462 55.3755 42.3047C56.2472 45.1114 55.8725 45.9882 54.5799 47.093C52.679 48.7162 50.2594 48.1923 50.0666 48.1543C47.4027 47.6386 45.9634 45.334 45.1569 44.0419C44.0679 42.2992 43.7801 40.7221 43.5656 39.5305C43.2424 37.7525 43.0605 36.7508 43.6307 35.8822C44.2689 34.9131 46.1752 35.1303 48.0544 33.7704C49.3416 32.8393 49.6376 32.3344 50.2648 31.3165C51.2832 29.6688 50.3653 27.0439 49.8005 26.52C49.5181 26.2567 49.586 26.0993 47.6335 24.6199C45.0836 22.6845 44.0978 21.8864 42.7672 20.7626C41.5235 19.7121 40.8609 18.211 39.9484 16.3163C39.7801 15.9688 39.6063 15.8168 38.1236 12.1822C36.7387 8.78907 36.7305 9.64413 36.7305 8.5882C36.7305 6.49806 36.5078 4.54364 35.514 3.28141C34.9383 2.55122 32.6327 1.08269 30.8459 0.982252C29.2274 0.88996 27.6361 1.6473 26.6205 2.50779C24.945 3.92745 24.592 6.01217 23.2586 9.08495C21.9443 12.1143 21.184 14.5953 20.5594 16.7343C20.0923 18.3359 20.0244 18.6263 17.9932 26.463C17.1079 29.8832 16.7332 33.5586 16.2226 37.0983C16.1167 37.8285 15.7393 38.803 16.3991 39.7965C16.7495 40.3231 16.7304 40.3339 19.2749 41.6315C21.0292 42.5272 21.4962 42.8964 22.0176 43.2221C23.0794 43.8845 23.4867 44.3595 22.9898 44.7911C22.4005 45.3014 20.1385 44.9105 19.0088 44.726C17.6266 44.4979 17.2382 44.3269 15.226 43.8628C14.6748 43.7352 13.0156 43.442 12.5729 42.5815C12.6109 41.8052 12.6598 40.467 12.6381 38.8003C12.5403 31.1129 11.0848 28.8816 12.372 24.6823C13.2301 21.9054 14.6422 20.3609 14.3326 20.1437Z" stroke="#5B6158" stroke-width="0.75"/>
</svg>
