<svg width="81" height="34" viewBox="0 0 81 34" fill="none" xmlns="http://www.w3.org/2000/svg">
<path d="M30.5705 26.5187C32.2243 26.5322 34.8285 26.6001 37.6391 26.7847C40.1266 26.9475 41.9324 27.1511 44.0098 27.3819C47.0295 27.7185 49.3079 28.0388 51.7736 28.5084C54.0465 28.9427 57.0309 29.149 58.7852 30.3542C59.1735 30.6202 59.5102 30.9677 59.1382 31.0382C58.9237 31.079 58.1009 31.0681 57.6935 31.0382M49.9678 15.7938C51.3907 15.4002 53.0526 14.9849 53.8401 14.7243C54.8395 14.3958 55.0893 14.2873 57.0689 13.6195C58.7933 13.0359 57.5143 13.4865 59.8117 12.7346C61.6664 12.1292 62.5951 12.1727 63.0622 12.2595C64.0751 12.4496 64.3439 13.1119 64.4553 13.9507C64.5068 14.3497 64.6318 14.6049 64.4987 16.1738C64.3331 18.1418 64.4634 18.739 64.553 19.5235C64.6942 20.7287 64.6779 20.6934 64.7513 21.4697C64.83 22.2759 64.83 23.1392 64.6291 23.7906C64.4254 24.4448 64.2054 24.9741 64.0534 25.3379C63.5944 26.4345 63.4152 26.6055 63.3011 27.238C63.2278 27.6479 63.1436 28.1582 63.3908 28.6984C63.4722 28.8775 63.7031 29.3879 64.2299 29.5372C64.4879 29.6104 65.5469 29.6132 65.68 29.5779M24.4795 31.7033C36.6018 31.3694 46.0356 32.3683 52.7023 32.2788C55.9311 32.2353 59.2984 32.4063 59.3826 31.9693C59.5265 31.2038 50.2285 28.4975 40.6262 28.3428C29.4599 28.1636 26.022 27.6723 21.6499 26.972C21.2833 26.9123 19.8984 26.5241 18.6411 27.1919C17.4897 27.8026 16.523 29.2359 16.8705 30.1533C17.3621 31.4509 20.4116 31.5567 22.5325 31.1251C24.2813 30.7695 24.8054 30.1696 28.4605 27.8542C32.9168 25.0311 35.1435 23.6196 36.1564 23.0333C38.0953 21.9149 39.3173 21.2987 39.9609 19.8058C40.0913 19.5045 40.9141 17.5908 39.8279 16.1358C39.0648 15.1152 37.4273 14.4067 36.1999 15.1179C35.0811 15.7666 34.6439 17.4008 35.1381 18.3888C35.6432 19.4013 36.4624 19.983 40.4814 20.9222C40.9127 21.023 41.9658 21.2241 42.9814 21.4222C43.7174 21.5661 45.4115 21.505 46.4814 21.0409C47.068 20.7857 48.1522 20.0694 48.5611 19.4827C49.8211 17.6749 49.6881 15.7694 50.3534 14.9849C50.9997 14.2194 51.8171 14.0321 53.2292 13.4376C54.8395 12.7563 55.2414 12.8459 57.9189 12.0234C60.2298 11.3149 61.6854 10.7096 62.033 10.563C63.2849 10.0391 64.6861 9.71065 65.9705 9.07003C67.2143 8.44842 68.0534 8.10097 68.8898 6.93646C69.2048 6.49672 69.2428 5.46522 69.2102 5.25621C69.1314 4.75946 68.2679 4.15956 67.9285 4.08355C67.475 3.98312 66.5137 3.71982 65.8728 4.19485C65.0092 4.83547 64.6345 5.43265 64.1484 6.67045C63.4043 8.56244 64.6372 10.3241 65.2536 12.7292C65.9189 15.3215 65.6664 15.1912 65.8836 18.2558C66.033 20.3812 66.109 21.4426 66.3697 22.5013C66.6386 23.5843 66.864 24.0132 66.8558 24.9334C66.8477 25.7776 66.6521 26.0083 66.1036 27.941C65.3813 30.4791 65.4302 31.098 65.7044 31.611C65.7832 31.7603 65.9923 32.3195 66.644 32.4281C67.2604 32.5312 67.8633 32.5068 68.048 32.4932C70.9237 32.3168 73.0907 32.3168 77.4248 32.5366C77.6148 32.5475 79.7466 32.1186 79.6814 31.4319C79.6271 30.87 78.0846 30.4655 75.7004 29.5752C73.6637 28.8151 71.6786 28.0442 70.8776 26.3042C70.5598 25.6147 70.5381 25.0094 70.5245 24.4909C70.4404 21.4073 70.3996 19.8682 70.6576 16.4887C71.217 9.1569 70.2095 9.01575 70.4404 5.66881C70.5055 4.7106 70.2747 4.13784 69.4682 2.99233C68.3412 1.3935 68.0153 1.53195 67.7655 1.40165C66.2367 0.603597 65.7642 1.13835 65.0771 1.30122C61.1287 2.24585 56.5829 3.40764 53.2998 4.45272C46.2013 6.64058 43.3255 7.98153 40.8869 9.90066C38.7091 11.6162 37.1422 13.1092 33.7206 14.499C32.0125 15.1939 30.4456 15.5875 29.9867 15.6391C26.7742 16.0028 25.1394 15.0012 23.0865 15.9268C21.9758 16.4263 20.971 17.2596 19.6811 18.8449C18.4944 20.3025 18.5922 21.0517 17.267 23.1201C16.7212 23.9752 15.7816 25.3976 13.9839 26.1169C12.7375 26.6164 11.6404 26.5485 11.1652 26.516C10.1794 26.4454 8.79447 26.3449 8.41158 25.555C7.91735 24.5317 9.20182 22.5583 10.9316 21.9068C12.3057 21.391 13.9486 21.7141 15.0457 22.7347C16.0477 23.6712 16.3845 24.9768 16.2949 26.0409C16.1455 27.8216 14.8013 28.902 13.8509 29.6674C12.0233 31.136 10.0572 31.4671 9.30501 31.5567C7.14614 31.8146 2.56771 31.5839 1.31041 28.6712C0.0856905 25.8373 2.68176 22.0208 5.6553 20.5143C9.20996 18.7118 13.8916 19.9062 15.8739 22.7021C16.1129 23.0414 17.0905 24.4177 17.0688 26.2499C17.0416 28.4975 15.5291 29.4693 15.8522 30.4628C16.4116 32.1702 21.7015 31.7793 24.4795 31.7033Z" stroke="#5B6158"/>
</svg>
