<svg width="256" height="255" viewBox="0 0 256 255" fill="none" xmlns="http://www.w3.org/2000/svg">
<g opacity="0.2">
<path d="M192.582 201.219C190.646 199.536 191.225 200.139 189.351 198.391C188.705 197.197 187.395 196.603 186.755 195.403C186.704 195.307 186.604 195.25 186.523 195.174C185.506 194.165 184.644 193.028 183.689 191.965C183.067 191.274 182.463 190.563 181.884 189.839C181.085 188.847 180.274 187.856 179.506 186.832C178.869 185.98 178.184 185.156 177.542 184.298C176.811 183.334 176.111 182.349 175.369 181.41C174.551 180.376 173.825 179.281 173.044 178.22C171.916 176.675 170.825 175.092 169.734 173.52C169.009 172.475 168.309 171.402 167.583 170.357C166.871 169.335 166.14 168.333 165.421 167.319C164.829 166.483 164.236 165.635 163.644 164.799C162.78 163.587 161.929 162.362 161.035 161.171C160.304 160.207 159.506 159.29 158.745 158.346C158.279 157.764 157.826 157.169 157.397 156.56C157.025 156.04 156.567 155.576 156.152 155.103C155.518 154.376 154.901 153.628 154.267 152.901C153.254 151.723 152.046 150.744 151.059 149.564C149.644 147.863 147.91 146.504 146.354 144.954C145.82 144.42 145.293 143.854 144.68 143.418C143.304 142.43 142.154 141.173 140.809 140.152C140.033 139.564 139.373 138.825 138.549 138.352C137.512 137.754 136.739 136.861 135.751 136.198C134.932 135.656 134.137 135.013 133.354 134.394C132.522 133.728 131.695 133.055 130.765 132.52C130.215 132.204 129.769 131.727 129.213 131.38C128.126 130.711 127.161 129.835 126.067 129.173C124.524 128.226 123.011 127.246 121.462 126.306C119.457 125.088 117.439 123.908 115.349 122.844C115.105 122.715 114.947 122.445 114.586 122.392C114.613 123.093 114.645 123.739 114.664 124.385C114.739 126.683 114.335 128.929 113.802 131.189C113.285 133.366 112.377 135.387 111.281 137.332C110.703 138.356 110.143 139.435 109.253 140.266C108.884 140.612 108.796 141.109 108.428 141.467C107.648 142.229 106.786 142.866 105.869 143.549C105.493 144.344 105.615 145.245 105.488 146.111C104.896 149.893 103.738 153.503 101.795 156.874C100.376 159.33 98.6064 161.533 96.5297 163.45C94.9753 164.881 93.2826 166.158 91.4576 167.251C88.5907 168.972 85.5059 170.071 82.3769 171.092C81.1092 171.51 79.8286 171.879 78.5799 172.328C75.7857 173.329 72.9593 174.213 70.2419 175.421C69.9022 175.572 69.5751 175.735 69.2417 175.892C68.6058 176.198 67.9514 176.511 67.2052 176.381C66.2936 175.875 66.0054 175.053 66.0374 174.011C66.0701 173.032 66.3395 172.126 66.8078 171.258C68.1461 168.788 69.5156 166.335 70.8289 163.855C71.9355 161.76 72.9609 159.626 74.0676 157.544C74.6574 156.432 75.2659 155.325 76.0369 154.32C76.1593 154.164 76.2382 154.003 76.1733 153.746C75.7888 153.769 75.4938 154.036 75.1603 154.18C73.0046 155.112 70.7844 155.823 68.5186 156.332C65.6027 156.986 62.658 157.268 59.7107 157.326C56.627 157.38 53.5774 157.158 50.5735 156.572C48.3719 156.144 46.2726 155.429 44.1611 154.728C41.2398 153.751 38.4029 152.546 35.3611 151.9C34.6831 151.76 34.1338 151.469 33.9643 150.733C33.8864 150.414 33.8704 150.091 34.0468 149.763C34.3996 149.107 34.765 148.476 35.1865 147.859C36.0478 146.607 37.2098 145.61 38.084 144.394C38.9031 143.249 39.879 142.264 40.811 141.225C41.3137 140.66 41.6101 139.963 42.1629 139.433C42.6664 138.942 43.1947 138.45 43.4913 137.766C43.6063 137.504 43.8835 137.307 44.092 137.083C45.0428 136.062 45.9996 135.033 47.0179 133.939C46.6757 133.867 46.4515 133.793 46.2093 133.776C44.1538 133.657 42.23 133.093 40.3296 132.404C38.2734 131.656 36.406 130.579 34.5629 129.451C33.807 128.992 33.1239 128.392 32.4045 127.869C30.453 126.479 28.8267 124.741 27.0714 123.141C26.1688 122.324 25.5793 121.195 24.5791 120.533C24.5149 120.338 24.4823 120.197 24.4127 120.07C23.6776 118.683 24.5292 117.68 25.4782 117.063C26.4765 116.418 27.5446 115.912 28.6127 115.407C30.786 114.38 32.9593 113.354 35.1071 112.267C37.2673 111.18 39.4215 110.111 41.7736 109.547C41.8664 109.523 41.9458 109.412 42.0504 109.325C41.6239 108.349 41.1913 107.379 40.7711 106.409C40.1788 105.031 39.605 103.634 39.0127 102.257C38.3887 100.813 37.7277 99.3842 37.1408 97.9257C36.7323 96.8922 36.3177 95.8778 35.6439 94.9784C35.0896 94.2399 35.0941 94.084 35.1924 92.8584C36.2359 91.234 37.9045 90.5989 39.492 89.9128C41.9443 88.8637 44.3967 87.827 46.76 86.5841C47.8029 86.0426 48.763 85.313 49.8059 84.7714C51.3178 83.9902 52.8232 83.1783 54.5296 82.5908C54.0802 81.79 53.6623 81.0308 53.2507 80.2776C52.4337 78.7769 51.7832 77.1854 51.102 75.6143C50.2105 73.5518 49.8201 71.3286 49.108 69.2117C48.9796 68.8211 48.9875 68.4099 49.0265 68.0031C49.0756 67.384 49.3493 66.8761 49.9417 66.5668C50.4415 66.3066 50.9547 66.1328 51.4803 65.9582C52.9831 65.4762 54.521 65.3718 56.0577 65.1554C56.7456 65.0582 57.4479 65.1593 58.1314 65.2304C58.4296 65.2624 58.7152 65.2702 59.0003 65.2407C59.0953 64.8492 58.8623 64.5333 58.8272 64.1682C58.6664 62.5162 59.2096 61.681 60.7004 61.2371C61.8324 60.9017 63.0162 60.7624 64.1742 60.5251C64.9977 60.3576 65.8149 60.1718 66.7374 59.9735C65.6904 58.443 64.1826 57.3321 63.9507 55.4168C63.9563 54.7942 64.3365 54.3856 64.7483 54.0187C66.5128 53.0668 68.415 52.7849 70.2979 52.4483C71.865 52.174 73.4259 51.894 75.0005 51.7375C76.2838 51.6172 77.5868 51.589 78.866 51.6618C80.8284 51.7809 82.7678 52.0631 84.624 52.6864C85.4711 52.9718 86.3061 53.2828 87.129 53.6194C87.3409 53.7063 87.5217 53.7764 87.7878 53.7044C86.7426 51.203 86.3096 48.497 85.6726 45.8716C85.3283 44.467 84.9098 43.0794 84.5284 41.6896C84.4121 41.2734 84.2834 40.8579 84.2167 40.4263C84.1029 39.6676 84.2128 38.9454 84.8839 38.4509C86.2607 37.8023 87.5435 38.1985 88.7401 38.6621C91.5946 39.7733 94.4189 40.9547 97.3281 41.9568C98.8792 42.4926 100.431 43.0532 101.97 43.6145C103.814 44.2883 105.579 45.1099 107.241 46.1431C108.51 46.9322 109.748 47.7543 110.943 48.6474C111.637 49.1597 112.307 49.686 112.928 50.2773C113.279 50.6173 113.36 51.1974 113.939 51.4055C114.469 49.8678 114.818 48.2973 115.03 46.6977C115.271 44.9284 115.314 43.1584 115.332 41.3776C115.357 38.5694 115.438 35.7517 115.549 32.9383C115.589 32.0274 115.653 31.0652 116.689 30.468C117.052 30.7077 117.34 31.0016 117.6 31.4279C118.276 32.5885 118.966 33.7732 119.821 34.7924C120.531 35.6398 121.181 36.5531 122.051 37.2665C122.94 37.9974 123.683 38.9363 124.627 39.583C126.059 40.5739 127.264 41.8087 128.512 42.9973C129.591 44.0281 130.535 45.2038 131.534 46.3202C132.363 47.2538 133.119 48.2541 133.862 49.2427C134.951 50.6773 135.881 52.2335 136.643 53.893C137.139 54.9586 137.635 56.0367 138.038 57.1514C138.864 59.4481 139.294 61.8433 139.445 64.3235C139.797 64.2215 139.911 63.8475 140.226 63.698C140.437 63.648 140.641 63.642 140.835 63.7984C141.518 64.3364 142.028 65.0215 142.446 65.7806C143.649 67.9614 144.407 70.3182 144.992 72.7476C145.278 73.9502 145.534 75.1485 145.721 76.3819C146.102 78.8919 146.223 81.43 145.879 83.9896C145.437 87.2708 144.247 90.3104 142.679 93.2669C141.888 94.7455 141.035 96.1781 140.057 97.5186C139.023 98.9433 137.947 100.377 136.632 101.576C133.928 104.028 131.186 106.419 127.922 108.115C125.164 109.555 122.302 110.616 119.293 111.232C118.339 111.426 117.384 111.483 116.46 111.57C116.145 111.732 115.974 111.941 115.928 112.28C115.825 113.082 115.679 113.882 115.551 114.686C115.335 115.962 114.84 117.174 114.487 118.434C114.374 118.82 114.167 119.206 114.308 119.608C116.124 120.576 117.935 121.538 119.727 122.545C121.394 123.484 123 124.527 124.68 125.453C125.61 125.964 126.455 126.629 127.343 127.223C128.35 127.891 129.362 128.54 130.381 129.195C130.918 129.548 131.413 129.961 131.926 130.341C132.639 130.87 133.365 131.412 134.103 131.903C134.966 132.474 135.626 133.312 136.605 133.72C136.674 133.747 136.724 133.806 136.768 133.859C137.622 134.792 138.703 135.468 139.717 136.191C140.911 137.047 141.843 138.223 143.166 138.903C143.26 138.954 143.335 139.036 143.41 139.119C145.712 141.352 148.395 143.177 150.58 145.523C151.855 146.897 153.24 148.152 154.515 149.513C155.049 150.085 155.496 150.724 156.31 151.36C155.503 150.176 154.865 149.162 154.153 148.203C152.881 146.499 151.682 144.741 150.552 142.936C149.295 140.926 147.995 138.938 146.922 136.805C145.305 133.585 144.095 130.241 143.528 126.622C143.221 124.637 142.945 122.655 142.836 120.633C142.788 119.678 142.678 118.726 142.717 117.765C142.861 114.415 143.085 111.078 143.607 107.736C144.273 103.458 145.307 99.2643 146.696 95.1424C147.729 92.0561 148.9 89.0238 150.208 86.0331C151.019 84.1674 151.862 82.3186 152.772 80.4967C153.817 78.4179 154.905 76.3551 156.05 74.3201C156.884 72.8327 157.655 71.3241 158.483 69.8308C159.81 67.4364 161.193 65.0697 162.313 62.5694C163.125 60.7659 163.732 58.9062 164.332 57.0407C164.698 55.9173 165.145 54.8077 165.493 53.6792C165.673 53.0959 166.109 52.7524 166.441 52.3841C166.849 52.2601 167.111 52.3565 167.22 52.6798C167.368 53.1626 167.509 53.6519 167.577 54.1582C167.774 55.6835 167.964 57.203 168.099 58.7321C168.226 60.1931 168.546 61.6116 168.798 63.0403C169.182 65.2576 169.585 67.4677 170.086 69.6593C170.543 71.6359 171.067 73.5897 171.609 75.5362C172.397 78.3517 173.228 81.1584 174.103 83.9439C174.681 85.7638 175.211 87.6115 175.449 89.5326C175.572 90.5459 175.726 91.5635 175.731 92.6025C175.727 93.9407 175.779 95.2694 175.762 96.6083C175.734 99.6718 175.277 102.705 174.571 105.716C173.954 108.341 173.008 110.881 171.955 113.383C171.212 115.164 170.567 116.976 169.911 118.789C168.802 121.83 167.862 124.917 166.927 128.01C166.299 130.108 165.801 132.228 165.334 134.366C164.837 136.611 164.533 138.876 164.21 141.135C164.1 141.87 164.09 142.611 164.06 143.347C163.972 145.456 163.828 147.574 163.956 149.676C164.205 153.738 164.678 157.761 165.942 161.612C166.36 162.875 166.771 164.145 167.299 165.364C167.624 166.11 168.078 166.805 168.545 167.474C169.73 169.195 170.978 170.876 172.114 172.637C173.212 174.339 174.508 175.904 175.637 177.585C176.407 178.734 177.287 179.802 178.039 180.97C178.676 181.959 179.548 182.772 180.216 183.74C180.923 184.768 181.758 185.683 182.508 186.677C182.974 187.297 183.483 187.907 183.992 188.505C184.564 189.174 185.241 189.781 185.653 190.584C185.685 190.65 185.748 190.696 185.804 190.737C186.737 191.484 187.289 192.589 188.216 193.343C188.773 193.801 189.054 194.494 189.611 194.965C190.125 195.394 190.7 195.808 190.962 196.483C192.893 198.284 192.539 197.977 194.471 199.778C194.516 200.183 194.607 200.993 194.607 200.993C191.843 198.575 190.855 197.442 188.392 194.702C188.348 194.648 188.267 194.609 188.241 194.549C188.017 193.934 187.498 193.573 187.047 193.176C186.583 192.769 186.353 192.172 185.89 191.777C185.182 191.166 184.683 190.356 184.061 189.665C183.634 189.192 183.163 188.741 182.81 188.202C182.078 187.101 181.161 186.148 180.392 185.086C179.989 184.538 179.531 184.036 179.128 183.5C178.467 182.625 177.83 181.723 177.175 180.842C176.564 180.013 175.903 179.212 175.304 178.371C174.561 177.332 173.86 176.26 173.141 175.208C172.195 173.833 171.249 172.459 170.297 171.091C169.364 169.752 168.412 168.422 167.461 167.091C166.723 166.046 165.986 165.001 165.236 163.969C164.36 162.758 163.49 161.553 162.584 160.363C161.91 159.488 161.212 158.628 160.538 157.753C159.606 156.539 158.588 155.393 157.663 154.173C157.134 153.482 156.458 152.938 155.96 152.24C155.14 151.094 154.143 150.114 153.158 149.146C150.147 146.178 147 143.354 143.909 140.471C143.752 140.324 143.614 140.121 143.42 140.039C142.703 139.728 142.182 139.18 141.661 138.645C141.109 138.068 140.336 137.791 139.784 137.214C138.93 136.331 137.856 135.724 136.917 134.946C136.347 134.476 135.776 133.956 135.145 133.565C133.802 132.743 132.624 131.718 131.33 130.831C130.273 130.103 129.216 129.376 128.165 128.643C127.703 128.322 127.264 127.95 126.777 127.655C125.896 127.129 125.021 126.584 124.14 126.058C123.016 125.379 121.904 124.698 120.773 124.025C119.736 123.415 118.687 122.819 117.644 122.215C117.55 122.165 117.501 122.192 117.49 122.268C117.413 122.627 117.676 122.873 117.716 123.119C118.871 123.791 119.983 124.409 121.064 125.085C122.239 125.811 123.401 126.563 124.564 127.315C125.483 127.913 126.438 128.472 127.326 129.104C128.427 129.884 129.547 130.657 130.647 131.438C131.923 132.345 133.187 133.265 134.432 134.205C135.458 134.977 136.565 135.676 137.462 136.612C137.538 136.695 137.607 136.784 137.707 136.828C138.873 137.349 139.538 138.535 140.704 139.057C142.366 140.706 144.348 141.988 145.998 143.65C148.031 145.694 150.31 147.475 152.183 149.678C152.994 150.631 153.928 151.477 154.776 152.404C155.455 153.147 156.065 153.938 156.75 154.675C157.711 155.719 158.493 156.917 159.418 158.001C159.744 158.379 159.991 158.819 160.318 159.198C161.06 160.062 161.777 160.952 162.445 161.871C163.491 163.302 164.494 164.767 165.521 166.217C166.259 167.262 167.008 168.294 167.74 169.346C168.629 170.63 169.444 171.969 170.383 173.214C171.604 174.833 172.672 176.556 173.894 178.175C174.763 179.33 175.589 180.544 176.446 181.713C177.309 182.887 178.209 184.034 179.103 185.188C180.349 186.794 181.632 188.36 182.897 189.946C183.363 190.54 183.915 191.055 184.374 191.644C185.186 192.684 186.01 193.724 186.964 194.638C187.095 194.76 187.27 194.862 187.346 195.019C187.67 195.691 188.24 196.148 188.779 196.614C189.33 197.091 189.66 197.743 190.187 198.235C191.679 199.602 191.912 199.748 193.392 201.128L192.582 201.219ZM112.16 85.5962C112.13 85.6665 111.97 85.7632 112.187 85.7937C112.168 85.7264 112.143 85.6657 112.123 85.5984C112.215 85.4871 112.22 85.381 112.126 85.2809C112.259 84.3706 112.367 83.4618 112.512 82.5507C112.908 80.1498 113.26 77.7452 113.997 75.3923C114.969 72.2848 116.357 69.3204 117.453 66.2553C118.23 64.0743 118.845 61.878 119.311 59.6409C119.641 58.0405 119.785 56.4263 119.941 54.8114C120.119 52.9089 120.092 51.0249 119.953 49.16C119.793 46.9666 119.218 44.8789 118.444 42.8404C117.575 40.5525 116.749 38.2434 116.381 35.7824C116.355 35.6222 116.254 35.5286 116.135 35.4423C116.19 35.3706 116.258 35.3105 116.158 35.2294C116.047 35.3107 116.128 35.3743 116.173 35.4401C115.975 37.2131 116.155 38.9697 116.007 40.7397C115.896 41.9536 115.959 43.1696 115.905 44.3988C115.79 46.951 115.246 49.4354 114.559 51.9098C114.052 53.7635 113.589 55.6333 113.181 57.506C112.484 60.7339 112.042 63.9778 111.817 67.2522C111.662 69.508 111.562 71.7543 111.5 73.9984C111.426 76.9215 111.483 79.843 111.732 82.7467C111.79 83.4776 111.86 84.2078 111.917 84.9386C111.932 85.0996 112.032 85.1931 112.151 85.2794C112.04 85.3856 112.054 85.4968 112.16 85.5962ZM139.471 69.0017C139.355 69.1394 139.12 69.253 139.303 69.4848C139.143 69.6063 139.101 69.7769 139.041 69.9671C138.158 72.6399 136.726 75.022 134.844 77.1198C132.354 79.8825 129.796 82.5683 127.262 85.2901C127.054 85.5141 126.808 85.7156 126.662 85.9732C125.936 87.1804 124.999 88.2508 124.242 89.4412C123.626 90.4053 122.916 91.3439 122.306 92.3014C121.599 93.4266 120.879 94.5525 120.233 95.7113C119.607 96.8378 118.98 97.9644 118.347 99.0975C119.318 98.2304 120.252 97.3655 121.217 96.5423C121.444 96.3482 121.615 96.0642 121.868 95.906C122.977 95.2173 123.879 94.261 124.926 93.4889C126.003 92.6963 126.942 91.7129 128.013 90.9145C128.499 90.5556 128.879 90.0599 129.384 89.7683C130.248 89.281 130.734 88.3558 131.617 87.9233C132.83 86.5314 134.22 85.3157 135.258 83.76C136.173 82.3859 136.952 80.9826 137.488 79.4384C138.336 77.0041 138.843 74.5095 139.188 71.9996C139.297 71.1903 139.585 70.3267 139.284 69.5045C139.413 69.3661 139.586 69.2438 139.428 69.023C139.471 68.952 139.544 68.8853 139.438 68.8108C139.346 68.8848 139.409 68.9432 139.471 69.0017ZM68.0751 119.231C68.144 119.283 68.2191 119.341 68.2984 119.218C68.2107 119.149 68.1433 119.221 68.0818 119.275C67.9878 119.187 67.8951 119.223 67.7838 119.267C65.9057 120.04 64.0594 120.891 62.2705 121.881C59.8401 123.234 57.637 124.934 55.478 126.7C54.8629 127.197 54.3483 127.813 53.7202 128.261C52.5872 129.076 51.6552 130.102 50.6477 131.046C49.29 132.304 48.0643 133.721 46.8258 135.102C45.6732 136.391 44.4767 137.639 43.3931 139.004C42.1322 140.598 40.9278 142.257 39.4476 143.671C39.202 143.91 38.9191 144.151 38.732 144.629C40.9333 143.333 43.1704 142.465 45.331 141.415C47.4669 140.378 49.4254 139.004 51.164 137.388C53.0131 135.666 54.63 133.702 56.1907 131.71C56.2335 131.652 56.2825 131.587 56.3253 131.528C57.0582 130.451 57.735 129.347 58.5179 128.304C59.1725 127.437 59.9586 126.681 60.5942 125.784C61.5171 124.49 62.9354 123.659 63.9585 122.446C64.7678 122.105 65.2496 121.336 65.9579 120.839C66.6722 120.336 67.4619 119.903 68.0751 119.231ZM163.779 156.196C163.981 155.954 163.879 155.686 163.833 155.459C163.503 153.661 163.34 151.835 163.333 149.994C163.313 147.661 163.22 145.346 163.393 143.008C163.501 141.533 163.646 140.068 163.86 138.605C164.056 137.261 164.321 135.92 164.591 134.572C165.009 132.475 165.482 130.38 166.13 128.325C167.126 125.142 168.027 121.933 169.222 118.812C170.151 116.391 170.956 113.929 171.941 111.536C173.102 108.741 173.909 105.874 174.454 102.935C174.864 100.744 174.983 98.5406 175.139 96.3345C175.16 96.0096 175.218 95.6701 175.054 95.3688C175.059 95.3 175.244 95.2018 175.02 95.1778C175.046 95.2385 175.065 95.3058 175.091 95.3665C175.005 95.4837 174.895 95.6023 174.84 95.7238C174.423 96.7134 174.03 97.7139 173.6 98.6917C172.729 100.686 171.751 102.642 170.617 104.502C169.696 106.02 168.814 107.572 167.743 109.012C166.82 110.256 166.059 111.627 165.211 112.928C164.161 114.547 163.18 116.192 162.311 117.918C161.036 120.447 159.997 123.048 159.288 125.772C158.669 128.162 158.416 130.573 158.3 133.001C158.204 135.041 158.412 137.058 158.695 139.045C159.179 142.426 160.034 145.723 161.069 148.953C161.595 150.602 162.172 152.235 162.792 153.847C163.092 154.644 163.331 155.483 163.823 156.188C163.767 156.259 163.706 156.338 163.831 156.405C163.898 156.32 163.836 156.262 163.779 156.196ZM165.093 57.3935C164.883 57.5305 164.867 57.7617 164.789 57.9718C164.259 59.4721 163.736 60.9659 163.088 62.4298C162.197 64.4184 161.194 66.3516 160.117 68.2519C158.978 70.243 157.889 72.256 156.794 74.2756C155.876 75.9673 154.969 77.6582 154.107 79.3776C153.226 81.1292 152.383 82.891 151.558 84.6704C150.091 87.8324 148.817 91.0638 147.692 94.3484C146.79 96.9788 145.988 99.6406 145.36 102.354C144.809 104.733 144.357 107.131 144.061 109.539C143.845 111.331 143.678 113.134 143.505 114.93C143.472 115.305 143.52 115.682 143.531 116.148C143.85 115.843 143.859 115.531 143.943 115.265C144.352 114.033 144.754 112.808 145.325 111.629C146.314 109.559 147.44 107.557 148.691 105.634C149.845 103.853 151.085 102.13 152.339 100.418C153.177 99.2789 153.939 98.0944 154.715 96.9092C156.143 94.7328 157.428 92.484 158.588 90.168C160.756 85.8377 162.544 81.3745 163.635 76.6792C164.547 72.7165 164.95 68.722 165.055 64.708C165.103 62.8941 165.077 61.0723 165.02 59.2586C165.001 58.6374 165.329 58.0203 165.062 57.414C165.105 57.343 165.185 57.2698 165.072 57.2018C164.967 57.2641 165.036 57.3284 165.093 57.3935ZM93.3942 137.245C93.4628 137.272 93.5575 137.422 93.5924 137.208C93.5244 137.231 93.4627 137.259 93.3947 137.282C93.295 137.251 93.1952 137.207 93.0959 137.2C91.5305 137.07 90.0194 136.793 88.6276 136.074C87.2358 135.354 86.1019 134.383 85.1941 133.093C84.3808 131.928 83.8826 130.639 83.5572 129.264C83.349 128.38 83.2395 127.453 83.3472 126.52C83.6125 124.108 84.5004 121.883 85.6872 119.752C86.3628 118.536 87.0509 117.331 87.7327 116.12C87.6265 116.058 87.5638 115.999 87.5079 115.996C85.6073 115.849 83.6853 116.026 81.7741 116.041C81.048 116.041 80.3115 116.228 79.5735 116.278C77.8432 116.388 76.1342 116.739 74.4511 117.188C72.6691 117.668 71.0084 118.471 69.38 119.377C67.8194 120.249 66.3846 121.274 65.0386 122.469C64.4485 122.989 63.9344 123.642 63.2871 124.036C62.0602 124.775 61.4157 125.996 60.6391 127.057C59.8503 128.131 59.0929 129.234 58.3354 130.337C57.8894 130.98 57.4123 131.619 56.9725 132.255C56.1599 133.43 55.3659 134.598 54.3781 135.634C53.7278 136.32 53.0713 137.013 52.4273 137.704C51.5563 138.64 50.4901 139.32 49.4365 140.024C47.884 141.063 46.1472 141.708 44.4867 142.523C42.7274 143.382 40.8792 144.058 39.1834 145.05C38.579 145.397 37.9749 145.769 37.4274 146.207C36.4738 146.967 35.8837 148.054 35.1681 149.012C34.8439 149.448 34.4653 150.006 34.6336 150.643C34.9365 151.098 35.3913 151.263 35.9017 151.395C38.1105 151.916 40.229 152.685 42.3474 153.455C43.955 154.043 45.5991 154.567 47.2309 155.092C51.2602 156.375 55.4652 156.703 59.7223 156.684C62.1115 156.672 64.5045 156.442 66.8889 155.994C69.8307 155.439 72.6953 154.639 75.4619 153.39C76.555 152.895 77.6547 152.444 78.1312 151.189C78.1674 151.088 78.2783 151.019 78.358 150.933C78.9161 150.321 79.3738 149.615 79.8195 148.948C80.5767 147.819 81.4968 146.831 82.3294 145.785C83.5597 144.224 85.0281 142.873 86.6346 141.663C87.9703 140.656 89.3253 139.716 90.7431 138.835C91.5994 138.255 92.576 137.897 93.3942 137.245ZM113.183 97.4088C111.127 88.1038 110.503 78.7814 110.964 69.3133C110.887 69.0814 110.644 68.9902 110.549 68.8029C109.833 67.4207 108.846 66.2538 107.705 65.2143C106.821 64.4146 106.029 63.4912 105.047 62.8218C103.74 61.923 102.36 61.1405 100.931 60.4108C98.3035 59.0558 95.5137 58.1896 92.6276 57.5906C89.3371 56.91 85.9492 56.9633 82.5746 57.0906C81.1106 57.1533 79.6361 57.3784 78.1807 57.6584C75.2079 58.2097 72.2942 59.0623 69.3805 59.9149C67.3885 60.4946 65.3964 61.0619 63.3518 61.3709C62.4473 61.5122 61.5304 61.6541 60.6528 61.9929C59.7629 62.3324 59.5005 62.7402 59.5171 63.6913C59.5261 63.9459 59.5784 64.1917 59.6494 64.4426C60.1093 66.2012 60.4082 67.9942 60.6947 69.788C61.1602 72.6228 61.6814 75.4481 62.1593 78.2821C62.5044 80.3276 63.0042 82.3327 63.5287 84.3238C64.2342 86.9762 64.9706 89.6206 66.2938 92.012C67.3197 93.8798 68.3208 95.7616 69.6548 97.4367C70.2464 98.1854 70.8381 98.9466 71.4174 99.7085C72.1981 100.732 73.0649 101.676 73.9501 102.6C75.0675 103.765 76.4237 104.636 77.7373 105.578C78.8069 106.342 79.9255 107.053 81.0923 107.624C84.1683 109.127 87.4081 110.277 90.873 111.022C91.2497 110.29 91.6199 109.527 92.0339 108.793C93.2879 106.565 94.0687 104.191 94.6314 101.736C95.0461 99.9315 95.3488 98.1087 95.9874 96.3529C96.5058 94.9527 97.1429 93.6264 98.2294 92.5346C99.3711 91.3835 100.743 90.8409 102.274 90.6684C103.179 90.5644 103.977 90.9025 104.793 91.196C106.862 91.9435 108.699 93.0658 110.438 94.3557C111.526 95.1369 112.228 96.2836 113.183 97.4088ZM57.8385 124.063C62.2137 120.659 67.1499 118.615 72.2841 117.088C77.4925 115.531 82.794 115.108 88.1109 115.525C88.8728 114.253 89.6285 112.988 90.4208 111.671C90.01 111.559 89.6988 111.478 89.3876 111.397C87.3712 110.883 85.4028 110.217 83.4828 109.435C81.6689 108.704 79.9584 107.785 78.2963 106.752C76.8904 105.884 75.6441 104.845 74.3363 103.871C73.5417 103.278 72.8878 102.508 72.2338 101.726C71.4603 100.795 70.6992 99.8635 69.9257 98.9327C68.6993 97.4565 67.633 95.8587 66.6717 94.2111C64.9197 91.2106 63.6617 87.9689 62.8793 84.5307C62.651 83.5175 62.3484 82.5213 62.1025 81.6025C61.8398 81.4191 61.6545 81.4924 61.4743 81.4721C60.9092 81.4374 60.3776 81.631 59.8325 81.7259C58.1973 82.0228 56.5688 82.3505 55.0181 82.9972C52.5964 84.0009 50.2759 85.1852 48.0197 86.5772C45.8129 87.9415 43.4098 88.9502 41.0125 89.9151C39.7767 90.4122 38.5412 90.9342 37.3943 91.6127C36.6853 92.0347 35.7021 92.3612 35.6775 93.5202C35.7554 93.8267 35.8705 94.1434 36.0788 94.4607C36.4639 95.0538 36.8735 95.6205 37.1477 96.2949C38.3525 99.2037 39.5758 102.105 40.83 104.986C42.2686 108.285 43.7937 111.542 45.7876 114.535C46.5133 115.63 47.3131 116.696 48.2663 117.597C49.3323 118.604 50.3677 119.644 51.5995 120.485C52.8062 121.302 53.9701 122.179 55.2499 122.868C56.0987 123.302 56.9295 123.794 57.8385 124.063ZM165.636 163.124C165.414 162.116 164.952 161.267 164.601 160.373C163.739 158.165 162.815 155.987 161.99 153.764C160.929 150.928 159.991 148.047 159.239 145.105C158.519 142.254 157.929 139.364 157.716 136.409C157.534 133.912 157.568 131.383 157.969 128.876C158.445 125.885 159.351 122.987 160.549 120.165C161.97 116.812 163.866 113.718 165.881 110.685C166.803 109.292 167.719 107.893 168.616 106.489C170.123 104.14 171.468 101.726 172.675 99.22C173.349 97.8169 174.003 96.3837 174.434 94.9142C175.003 92.9945 174.907 91.0213 174.65 89.0826C174.406 87.28 173.878 85.5442 173.338 83.8216C172.354 80.688 171.451 77.5309 170.572 74.3598C169.732 71.3234 169.078 68.251 168.492 65.1434C167.82 61.6363 167.304 58.1138 166.973 54.5428C166.937 54.1155 166.914 53.6378 166.51 53.1018C166.325 53.7415 166.125 54.1828 166.074 54.6401C165.939 55.9302 165.817 57.2195 165.8 58.5087C165.757 61.3615 165.894 64.2097 165.708 67.0648C165.623 68.3892 165.544 69.7195 165.373 71.0366C165.063 73.4075 164.624 75.7675 164.004 78.1071C163.42 80.3326 162.712 82.5157 161.866 84.6573C160.942 86.9965 159.919 89.2918 158.721 91.5105C157.912 93.0089 157.109 94.5132 156.169 95.9385C155.595 96.8068 155.14 97.7488 154.522 98.5761C153.874 99.4488 153.344 100.395 152.677 101.238C152.156 101.885 151.674 102.555 151.222 103.229C150.33 104.552 149.401 105.852 148.566 107.216C146.92 109.928 145.429 112.687 144.519 115.716C143.897 117.794 143.454 119.843 143.664 122.021C143.839 123.884 144.052 125.719 144.395 127.553C144.922 130.347 145.801 133.014 147.057 135.515C147.914 137.225 148.795 138.934 149.855 140.538C151.325 142.746 152.691 145.042 154.21 147.21C155.459 148.978 156.725 150.738 158.041 152.457C159.288 154.088 160.374 155.84 161.486 157.566C162.464 159.094 163.597 160.508 164.68 161.949C164.97 162.342 165.118 162.875 165.636 163.124ZM107.285 129.998C108.02 129.157 108.528 128.511 109.036 127.864C110.175 126.415 111.045 124.838 111.883 123.219C113.093 120.888 113.879 118.433 114.509 115.918C115.306 112.759 115.744 109.609 115.472 106.389C115.281 104.179 114.854 102.057 113.914 100.097C113.012 98.2218 111.876 96.4975 110.316 95.1035C109.833 94.6781 109.296 94.3244 108.795 93.9312C107.243 92.7297 105.46 92.0398 103.587 91.5482C101.832 91.0807 100.046 91.7787 98.8019 93.2409C97.7112 94.5135 96.9759 95.9452 96.478 97.5121C95.992 99.041 95.6739 100.591 95.2874 102.139C94.8836 103.793 94.4235 105.42 93.7458 107.004C92.4144 110.108 90.4651 112.882 88.7779 115.79C87.5839 117.84 86.3461 119.85 85.3458 122.007C84.5152 123.805 84.0575 125.643 84.1036 127.582C84.1529 129.82 84.9561 131.763 86.3024 133.425C87.4536 134.843 89.0331 135.701 90.8314 136.135C93.476 136.779 96.1107 136.516 98.7383 135.606C102.132 134.426 104.946 132.334 107.285 129.998ZM116.702 31.0833C116.462 31.2657 116.358 31.4151 116.354 31.6207C116.354 32.1745 116.304 32.7438 116.379 33.2808C116.749 35.9284 117.583 38.4051 118.812 40.7337C120.168 43.3036 121.364 45.9329 121.633 48.9413C121.839 51.3 121.777 53.6436 121.35 56.0028C120.859 58.7331 120.006 61.3729 119.086 64.0106C118.033 67.0172 116.73 69.9267 115.602 72.9004C115.132 74.1483 114.606 75.3933 114.278 76.6637C113.463 79.8303 112.89 83.0384 112.733 86.2776C112.595 89.0552 112.805 91.7994 113.344 94.5054C113.705 96.3196 114.184 98.0957 114.712 99.8564C115.047 100.981 115.413 102.098 115.76 103.21C115.934 103.175 115.964 103.08 116 102.966C116.575 101.089 117.443 99.3383 118.399 97.6071C119.397 95.7924 120.488 94.0282 121.573 92.2581C122.659 90.488 123.856 88.7859 125.035 87.0787C125.842 85.9227 126.736 84.7864 127.742 83.7554C129.7 81.7402 131.557 79.6314 133.508 77.6104C134.957 76.1173 136.186 74.4817 137.172 72.6678C138.449 70.3262 139.21 67.8474 138.971 65.2231C138.879 64.2391 138.837 63.2521 138.684 62.2718C138.283 59.6696 137.542 57.206 136.424 54.8583C135.497 52.9223 134.459 51.0801 133.168 49.3838C132.545 48.556 131.903 47.7605 131.255 46.9592C130.299 45.7966 129.319 44.6729 128.252 43.6165C126.765 42.1559 125.205 40.7744 123.571 39.4719C122.137 38.3317 120.814 37.0605 119.687 35.5908C119.303 35.0848 118.925 34.5722 118.571 34.0333C117.94 33.0878 117.34 32.0969 116.702 31.0833ZM97.0276 136.94C95.8107 138.021 95.0656 139.124 94.3959 140.309C93.8601 141.25 93.5113 142.266 93.0627 143.239C91.7776 146.029 90.642 148.873 89.0886 151.536C88.4489 152.626 87.8404 153.732 86.9757 154.674C86.0743 155.668 85.1854 156.673 84.2589 157.643C83.2159 158.739 82.022 159.657 80.8338 160.53C79.3748 161.607 77.9599 162.75 76.4567 163.761C75.2616 164.567 74.1169 165.444 72.9596 166.31C72.1839 166.879 71.3707 167.426 70.6704 168.077C69.7857 168.902 68.9203 169.781 68.1986 170.746C67.2015 172.069 66.3046 173.473 66.9756 175.243C67.1758 175.393 67.3033 175.697 67.7875 175.718C68.1335 175.572 68.6091 175.364 69.0848 175.167C70.3077 174.633 71.5115 174.045 72.7538 173.578C74.5586 172.91 76.3953 172.321 78.2132 171.715C80.2537 171.033 82.2883 170.369 84.3225 169.681C85.726 169.205 87.1105 168.687 88.4501 168.04C90.1786 167.203 91.8503 166.275 93.4014 165.099C94.5585 164.221 95.7281 163.355 96.7406 162.304C97.6732 161.328 98.5933 160.339 99.3941 159.227C100.275 158.017 101.118 156.796 101.804 155.48C103.913 151.402 104.952 147.077 105.132 142.579C105.214 140.427 105.085 138.288 104.888 136.159C104.804 135.28 104.738 134.357 104.331 133.473C102.022 135.111 99.5077 136.163 97.0276 136.94ZM140.451 64.4002C140.388 64.8956 140.299 65.2929 140.279 65.7049C140.168 68.0266 140.045 70.349 139.735 72.6701C139.356 75.4932 138.934 78.3002 137.921 81.0118C137.167 83.0421 136.152 84.9263 134.674 86.5643C133.742 87.6033 132.647 88.4405 131.564 89.3018C130.192 90.3858 128.731 91.3382 127.359 92.4223C126.375 93.2031 125.384 93.9904 124.4 94.7836C123.791 95.2744 123.182 95.7775 122.592 96.2858C121.657 97.0885 120.691 97.8495 119.826 98.729C119.322 99.2321 118.932 99.8404 118.491 100.39C117.756 101.305 117.165 102.28 116.724 103.345C116.313 104.328 115.852 105.314 116.187 106.427C116.302 106.793 116.233 107.233 116.237 107.644C116.237 108.739 116.23 109.841 116.23 110.961C118.023 110.91 119.75 110.502 121.458 110.038C123.06 109.6 124.631 109.071 126.143 108.327C127.865 107.483 129.537 106.531 131.101 105.392C131.944 104.775 132.744 104.117 133.549 103.453C134.62 102.567 135.64 101.647 136.634 100.679C137.445 99.8965 138.118 98.985 138.828 98.1086C139.679 97.0558 140.474 95.9627 141.144 94.8149C142.271 92.8992 143.236 90.9061 144.02 88.818C144.997 86.2329 145.421 83.5876 145.447 80.8914C145.48 78.1886 144.98 75.5799 144.374 72.9837C143.879 70.8601 143.211 68.8091 142.303 66.8534C141.877 65.9391 141.414 65.0396 140.451 64.4002ZM57.1861 124.563C53.9227 122.947 50.93 121.116 48.4082 118.653C45.88 116.172 44.0353 113.196 42.5416 109.981C42.2007 110.02 41.9274 109.999 41.6926 110.087C40.2404 110.653 38.7627 111.159 37.3676 111.84C34.0529 113.475 30.7571 115.141 27.4105 116.698C26.7066 117.027 26.0345 117.422 25.4443 117.93C24.5774 118.672 24.724 119.597 25.6107 120.092C28.1582 121.508 30.8331 122.648 33.6777 123.418C36.6219 124.219 39.4204 125.314 42.0074 126.939C43.4509 127.843 44.8637 128.779 46.2765 129.715C47.2392 130.354 48.1782 131.095 49.4152 131.276C51.8977 129.011 54.3294 126.65 57.1861 124.563ZM111.066 68.4235C111.34 62.856 112.319 57.5514 113.758 52.4307C113.312 51.3497 112.505 50.7321 111.777 50.0412C111.232 49.52 110.607 49.1094 110.006 48.6599C109.067 47.9568 108.092 47.2809 107.092 46.681C104.406 45.0743 101.453 43.994 98.457 43.0343C96.6509 42.4578 94.8811 41.7921 93.1295 41.0816C91.9202 40.5939 90.6926 40.1384 89.2404 39.5718C90.2888 40.6728 91.2165 41.5135 92.0337 42.4603C93.0583 43.6498 94.0211 44.868 94.9596 46.1249C96.1752 47.7511 97.1872 49.4953 98.1809 51.2592C99.5671 53.734 100.867 56.2638 102.463 58.614C103.377 59.947 104.328 61.2281 105.526 62.3078C106.491 63.1835 107.475 64.0394 108.378 64.9686C108.975 65.5739 109.46 66.2854 109.983 66.9574C110.329 67.4034 110.644 67.8575 111.066 68.4235ZM69.0016 168.7C69.2124 168.687 69.2979 168.558 69.4022 168.446C70.2606 167.498 71.3455 166.823 72.3423 166.042C73.4499 165.179 74.6141 164.381 75.7407 163.548C76.541 162.953 77.3222 162.315 78.1412 161.737C79.2619 160.936 80.2882 160.009 81.3273 159.119C82.0098 158.537 82.51 157.748 83.3118 157.289C83.4659 157.199 83.6317 157.034 83.6858 156.875C83.9147 156.239 84.4503 155.852 84.8546 155.367C85.0752 155.105 85.3583 154.889 85.5288 154.593C86.3089 153.289 87.1828 152.048 87.9941 150.761C89.2202 148.815 90.3402 146.818 91.3978 144.789C92.0483 143.549 92.5614 142.23 93.2493 141.012C94.004 139.66 94.7711 138.295 95.8689 137.103C95.7508 137.091 95.7135 137.081 95.6888 137.095C93.767 137.851 91.9343 138.801 90.1526 139.885C88.1737 141.092 86.4274 142.578 84.694 144.101C83.1881 145.429 82.1774 147.207 80.7655 148.623C80.7164 148.676 80.655 148.73 80.6247 148.8C79.937 150.042 79.0118 151.124 78.199 152.274C77.319 153.522 76.464 154.793 75.6838 156.084C74.6172 157.859 73.7129 159.724 72.7961 161.578C72.1403 162.899 71.5034 164.238 70.7353 165.503C70.126 166.535 69.5855 167.62 69.0016 168.7ZM102.334 60.4264C102.387 60.1805 102.385 60.0188 102.285 59.9128C101.632 59.2425 101.213 58.4087 100.764 57.6079C98.8396 54.1758 97.1497 50.6053 95.0035 47.2985C93.9808 45.7168 92.8349 44.2171 91.6031 42.8096C90.6792 41.751 89.5893 40.8329 88.5304 39.9068C87.6468 39.132 86.6176 38.6521 85.3302 38.9657C85.1891 39.1172 85.0419 39.2754 84.9131 39.4138C84.7894 40.0248 84.9937 40.5478 85.1174 41.0694C85.6753 43.2763 86.394 45.4363 86.8158 47.6888C87.2707 50.1197 87.9729 52.4736 88.8482 54.7674C89.0847 55.3942 89.2905 56.054 89.7057 56.5644C93.2073 56.6909 99.3282 58.5588 102.334 60.4264ZM49.6257 67.7494C49.8599 69.8637 50.5084 71.8475 51.1693 73.8305C52.1702 76.8199 53.4489 79.6745 55.1778 82.2719C57.4043 81.5786 59.607 80.9739 62.0085 80.9485C60.9355 75.9097 60.1977 70.8757 59.3427 65.9048C56.2345 65.4311 53.293 66.0116 50.417 66.8993C50.1594 67.1761 49.9508 67.4001 49.6257 67.7494ZM105.812 142.881C106.698 142.143 107.468 141.63 108.099 140.914C108.406 140.56 108.531 140.135 108.838 139.793C110.058 138.457 110.904 136.882 111.649 135.275C113.438 131.453 114.282 127.463 114.026 123.321C114.011 123.073 113.94 122.823 113.893 122.57C113.847 122.318 113.925 122.033 113.754 121.763C111.538 126.196 108.644 129.997 104.892 133.084C105.932 136.233 105.7 139.465 105.812 142.881ZM26.3281 120.995C26.5183 121.369 26.5832 121.627 26.7465 121.804C27.7256 122.803 28.8152 123.696 29.6468 124.829C29.9176 125.192 30.3837 125.245 30.7096 125.537C31.4241 126.179 32.1631 126.794 32.9453 127.376C34.1404 128.269 35.366 129.117 36.671 129.841C39.6807 131.516 42.8409 132.777 46.3633 133.107C46.8416 133.147 47.3015 133.207 47.6791 133.116C48.0962 132.668 48.4519 132.285 48.8936 131.811C48.0723 131.624 47.4167 131.258 46.8166 130.859C45.2537 129.82 43.7091 128.748 42.1157 127.754C40.4598 126.727 38.7492 125.796 36.8927 125.148C34.9677 124.473 33.0066 123.912 31.0756 123.256C29.4623 122.712 27.9336 121.963 26.3281 120.995ZM88.0876 54.4519C87.3336 54.1672 86.6042 53.8686 85.863 53.6204C82.9042 52.6213 79.8274 52.1768 76.6629 52.2293C76.0361 52.2356 75.4034 52.261 74.7776 52.3545C73.2781 52.5687 71.7853 52.826 70.2985 53.0643C69.7038 53.1621 69.1152 53.2534 68.4106 53.5195C68.6284 53.575 68.6909 53.6086 68.7467 53.6114C71.4973 53.7269 73.8239 54.8012 75.8963 56.4633C76.297 56.7878 76.7092 57.0245 77.2015 57.2129C78.6244 56.8042 80.0938 56.6727 81.5567 56.5105C83.5402 56.2922 85.5263 56.3103 87.5071 56.4096C87.9231 56.4283 88.3643 56.4828 88.8583 56.2541C88.4922 55.691 88.3244 55.1036 88.0876 54.4519ZM67.7026 59.7042C70.3 58.8767 72.8993 58.2108 75.4982 57.5202C75.4008 57.1215 75.1502 56.9124 74.9073 56.8336C74.4401 56.6687 74.1506 56.3002 73.7692 56.0429C72.6188 55.2654 71.4442 54.5516 70.0084 54.345C68.4793 54.1253 66.9461 54.0988 65.4036 54.3467C65.1271 54.6059 64.8256 54.8418 64.6128 55.2466C64.981 57.1288 66.261 58.4089 67.7026 59.7042ZM118.05 99.7811C118.217 99.7649 118.309 99.6661 118.314 99.4978C118.146 99.514 118.073 99.618 118.05 99.7811Z" fill="#FEFBF7"/>
<path d="M166.37 63.0279C167.038 62.3095 167.541 61.769 168.044 61.2286C167.727 62.2869 167.184 63.1721 166.417 63.9213C166.334 64.2997 166.301 64.6502 166.479 65.0752C167.017 64.3335 167.449 63.567 168.17 63.0446C168.297 63.3233 168.151 63.5561 168.017 63.7882C167.73 64.2721 167.519 64.8387 167.132 65.229C166.07 66.3071 166.382 67.5456 166.317 68.9499C167.374 68.0277 168.302 67.2191 169.249 66.3907C169.191 67.3588 168.217 68.4565 166.276 69.7366C166.044 72.3893 165.72 75.116 165.322 77.9219C167.29 76.7896 168.768 75.1764 170.699 74.0837C170.81 74.6434 170.472 74.8815 170.207 75.0902C168.755 76.2352 167.353 77.4518 165.774 78.4052C165.411 78.6199 165.128 78.8982 165.052 79.357C164.632 81.7846 164.081 84.2013 163.443 86.5983C163.749 86.7605 163.946 86.562 164.162 86.4432C166.802 84.9907 169.348 83.3757 171.603 81.33C171.954 81.0165 172.329 80.6891 172.83 80.5285C172.982 80.8679 172.749 81.0437 172.583 81.2216C171.301 82.6365 169.768 83.7303 168.196 84.7765C166.631 85.8287 165.022 86.8025 163.242 87.4319C162.547 89.7265 161.87 91.9764 161.133 94.3918C162.08 94.192 162.91 94.0303 163.727 93.832C167.274 92.9662 170.578 91.4553 173.704 89.4944C174.302 89.1164 174.301 89.1039 174.903 89.0493C174.796 89.454 174.469 89.6292 174.154 89.8409C170.408 92.3803 166.381 94.1275 161.996 94.9501C161.742 94.9964 161.481 95.0369 161.234 95.1139C160.931 95.2006 160.937 95.2188 160.641 95.9772C163.343 95.5914 165.905 94.8531 168.401 93.8821C170.88 92.9185 173.079 91.4114 175.411 90.1142C175.249 90.6654 174.799 90.935 174.393 91.2208C170.216 94.122 165.668 95.9626 160.69 96.4908C160.616 96.4953 160.548 96.5305 160.375 96.5782C159.648 98.7564 158.909 100.985 158.109 103.392C160.872 102.903 163.442 102.407 165.972 101.627C168.502 100.847 170.886 99.7083 173.268 98.5076C172.994 98.9908 172.613 99.3373 172.157 99.6135C169.395 101.335 166.377 102.324 163.288 103.076C161.549 103.497 159.783 103.771 157.943 104.024C157.36 105.796 156.877 107.598 156.42 109.536C159.132 108.938 161.687 108.169 164.196 107.16C166.705 106.151 169.049 104.828 171.316 103.299C171.171 103.693 170.92 103.963 170.6 104.182C170.285 104.393 170.003 104.647 169.695 104.864C165.801 107.55 161.531 109.206 156.965 110.02C156.749 110.064 156.532 110.084 156.265 110.131C156.094 110.944 155.929 111.738 155.746 112.626C160.277 112.038 164.31 110.247 168.305 108.308C166.553 109.876 164.459 110.804 162.333 111.666C160.195 112.528 157.985 113.065 155.741 113.274C155.29 114.639 154.725 119.16 154.735 121.189C154.979 121.392 155.219 121.184 155.442 121.109C157.006 120.598 158.571 120.063 160.091 119.412C160.542 119.217 160.993 119.034 161.601 119.01C160.575 119.961 159.4 120.38 158.244 120.817C157.088 121.253 155.9 121.598 154.632 122.016C154.515 124.886 154.553 127.766 154.783 130.689C156.146 130.446 157.191 129.487 158.672 129.28C157.486 130.366 156.169 130.862 154.934 131.458C154.875 131.723 154.908 131.939 155.016 132.15C155.122 132.15 155.253 132.186 155.339 132.144C156.284 131.695 157.184 131.118 158.298 130.877C157.82 131.441 157.265 131.761 156.716 132.074C156.192 132.373 155.661 132.653 155.131 132.946C155.139 134.863 156.443 141.127 157.259 143.132C157.902 142.869 158.318 142.309 158.859 141.879C158.924 142.173 158.766 142.407 158.644 142.626C158.498 142.884 158.264 143.097 158.068 143.332C157.878 143.562 157.676 143.792 157.468 144.041C159.642 151.609 163.248 158.457 166.935 165.282C166.352 165.28 166.13 164.901 165.903 164.504C164.353 161.889 162.946 159.185 161.588 156.466C160.566 154.417 159.631 152.326 158.813 150.184C158.628 149.691 158.351 149.346 157.889 149.063C156.008 147.912 154.213 146.644 152.613 145.115C152.086 144.612 151.615 144.086 151.278 143.34C152.387 144.264 153.513 145.055 154.559 145.945C155.567 146.799 156.699 147.51 157.75 148.268C157.861 148.199 157.898 148.185 157.922 148.158C157.947 148.132 157.965 148.087 157.959 148.069C157.193 145.594 156.353 143.136 155.761 140.626C152.601 138.874 149.797 136.751 147.275 134.251C146.735 133.71 146.331 133.062 145.841 132.494C145.734 132.37 145.731 132.158 145.748 131.94C147.149 133.517 148.703 134.906 150.368 136.188C151.983 137.435 153.641 138.6 155.415 139.688C155.457 139.518 155.475 139.486 155.469 139.455C155.054 137.345 155.024 137.39 153.211 136.217C151.886 135.35 150.579 134.439 149.382 133.396C148.78 132.872 148.142 132.388 147.571 131.855C146.524 130.879 145.471 129.884 144.792 128.561C147.841 131.54 151.147 134.181 154.84 136.505C154.33 133.517 153.988 130.6 153.863 127.664C150.667 126.062 147.987 123.895 145.564 121.401C144.886 120.707 144.257 119.961 143.752 119.12C143.638 118.927 143.549 118.746 143.67 118.477C144.164 118.765 144.522 119.173 144.874 119.575C146.527 121.499 148.364 123.213 150.411 124.727C151.312 125.395 152.267 125.967 153.181 126.609C153.362 126.741 153.556 126.836 153.803 126.771C153.886 126.442 153.864 126.114 153.786 125.77C151.207 124.362 148.934 122.55 146.882 120.451C145.953 119.498 145.042 118.526 144.285 117.414C144.159 117.222 144.058 117.054 144.129 116.738C144.66 117.061 145.08 117.466 145.426 117.899C146.71 119.528 148.307 120.833 149.8 122.249C150.96 123.344 152.31 124.172 153.736 125.144C153.922 124.025 153.793 123.006 153.919 122.015C153.36 121.408 152.637 121.127 152.018 120.71C150.192 119.475 148.378 118.227 146.846 116.638C146.15 115.914 145.434 115.198 144.928 114.307C144.82 114.108 144.707 113.928 144.816 113.685C145.068 113.502 145.213 113.661 145.351 113.84C146.182 114.935 147.075 115.965 148.097 116.893C149.57 118.23 151.19 119.372 152.84 120.468C153.159 120.679 153.405 121.019 153.94 121.124C154.177 118.403 154.44 115.742 154.926 113.13C152.59 111.185 150.212 109.36 148.662 106.721C148.567 106.558 148.416 106.343 148.667 106.036C149.536 106.575 149.845 107.615 150.56 108.269C151.306 108.952 151.788 109.894 152.626 110.479C153.451 111.052 154.203 111.729 155.049 112.431C155.625 109.447 156.37 106.62 157.239 103.836C155.976 102.399 154.399 101.274 153.715 99.4165C154.116 99.1622 154.31 99.3186 154.443 99.5534C155.013 100.577 155.896 101.34 156.57 102.277C156.772 102.563 157.005 102.854 157.49 102.95C158.343 100.384 159.197 97.8312 160.05 95.2781C159.612 94.3397 158.503 94.0077 158.232 92.9908C158.212 92.9111 158.304 92.7998 158.358 92.6534C159.218 93.0002 159.588 93.837 160.19 94.4358C160.478 94.1136 160.555 93.804 160.57 93.3986C159.652 92.9369 158.962 92.2065 158.44 91.0179C159.555 91.4552 160.037 92.3227 160.77 92.9821C161.455 90.937 162.079 88.9454 162.566 86.9495C162.129 86.1728 161.385 85.6261 161.417 84.5723C162.268 84.6521 162.203 85.5771 162.84 85.9249C162.977 85.4125 163.134 84.9302 163.246 84.4442C164.913 77.4049 165.829 70.3172 165.645 63.1522C165.572 60.4119 165.585 57.6664 165.784 54.9097C165.833 54.2658 166.069 53.6729 166.28 53.069C166.352 52.8531 166.486 52.6707 166.747 52.68C167.017 52.9564 166.734 53.1849 166.655 53.395C166.276 54.4322 166.076 55.4773 166.144 56.5749C166.251 58.4231 166.284 60.2759 166.354 62.1264C166.325 62.3335 166.346 62.5501 166.37 63.0279Z" fill="#FEFBF7"/>
<path d="M104.124 148.756C103.526 149.689 103.059 150.669 102.417 151.561C101.567 152.726 100.66 153.826 99.6403 154.846C98.3016 156.196 96.8996 157.438 95.3153 158.485C92.6829 160.217 89.8147 161.422 86.9018 162.51C86.8152 162.54 86.7095 162.528 86.5854 162.535C86.7672 162.138 87.1523 162.14 87.4428 162.017C89.8967 160.981 92.2999 159.848 94.5691 158.405C97.1528 156.763 99.3466 154.683 101.233 152.304C103.296 149.709 104.617 146.778 104.903 143.473C104.919 143.254 104.972 143.033 105.001 142.813C105.024 142.637 105.04 142.456 105.063 142.255C105.312 142.315 105.24 142.494 105.241 142.606C105.264 146.285 104.677 149.863 102.92 153.237C101.716 155.551 99.9925 157.441 98.0431 159.157C94.9498 161.876 91.3107 163.556 87.6084 165.14C83.4674 166.918 79.3519 168.757 75.2172 170.554C74.5497 170.843 73.9019 171.224 73.1125 171.165C74.6749 170.381 76.231 169.578 77.8124 168.824C81.7473 166.94 85.7525 165.232 89.7576 163.511C92.4956 162.333 95.1002 160.895 97.3887 158.953C100.631 156.201 103.14 152.938 104.124 148.756Z" fill="#FEFBF7"/>
<path d="M79.5324 112.744C77.1604 112.008 74.9006 111.316 72.6531 110.61C66.7509 108.759 60.8489 106.922 54.9588 105.033C50.2766 103.533 45.7881 101.599 41.5667 99.1379C39.7931 98.0989 38.0989 96.9371 36.5757 95.5411C36.4503 95.4241 36.3309 95.2881 36.1112 95.0586C37.1564 95.3198 37.7903 95.9725 38.5031 96.4651C43.1673 99.6956 48.293 102.015 53.6675 103.841C60.1754 106.047 66.7313 108.114 73.2511 110.269C75.1814 110.901 77.0879 111.621 79.0001 112.297C79.1806 112.354 79.367 112.381 79.5324 112.744Z" fill="#FEFBF7"/>
<path d="M61.4873 64.0891C61.6902 63.9467 61.8336 64.019 61.9401 64.106C63.3606 65.222 64.9638 66.0662 66.5242 66.9564C69.9948 68.9525 73.4044 71.0392 76.8019 73.1515C79.2501 74.6732 81.6679 76.2402 84.049 77.859C86.1365 79.2777 88.1873 80.7482 90.2259 82.2319C93.8965 84.8937 97.096 88.0743 100.357 91.2016C100.382 91.225 100.389 91.2681 100.414 91.3039C100.104 91.3097 99.9832 91.062 99.8076 90.8983C98.014 89.164 96.0429 87.6204 94.1331 86.0235C92.6994 84.8336 91.2163 83.6716 89.6541 82.6323C88.0981 81.5864 86.6092 80.4557 85.0654 79.3967C83.4028 78.2514 81.7403 77.1185 80.0411 76.0251C77.7672 74.5678 75.4813 73.136 73.1831 71.7173C70.7974 70.2417 68.3872 68.7923 65.9832 67.3364C64.6533 66.5382 63.3904 65.6429 62.1336 64.741C61.8712 64.57 61.6086 64.3866 61.4873 64.0891Z" fill="#FEFBF7"/>
<path d="M125.401 86.9137C125.444 86.3012 125.774 85.8582 126.043 85.419C128.097 82.0411 129.038 78.3752 129.405 74.5444C129.807 70.4252 129.409 66.385 128.553 62.4221C127.311 56.7209 125.661 51.1438 123.622 45.7082C123.175 44.5152 122.536 43.4145 122.15 42.1804C122.422 42.0895 122.468 42.2921 122.531 42.4252C125.865 49.3019 128.061 56.5952 129.515 64.1569C130.371 68.5991 130.463 73.1056 129.595 77.651C129.166 79.8985 128.563 82.1066 127.332 84.1096C126.746 85.0532 126.211 86.0437 125.401 86.9137Z" fill="#FEFBF7"/>
<path d="M89.7049 135.956C87.7284 136.292 85.9994 136.551 84.2837 136.896C78.2573 138.11 72.251 139.465 66.2511 140.839C61.4153 141.943 56.5598 142.956 51.7635 144.27C50.1791 144.701 48.614 145.187 47.0176 145.656C47.0249 145.182 47.4171 145.289 47.6273 145.215C51.3808 143.901 55.193 142.851 59.0438 141.923C66.083 140.226 73.1353 138.59 80.2207 137.146C82.9211 136.598 85.6344 136.1 88.3692 135.855C88.7288 135.821 89.0941 135.731 89.7049 135.956Z" fill="#FEFBF7"/>
<path d="M85.0543 68.7676C86.9555 69.6942 88.5821 70.9537 90.2511 72.1299C91.1949 72.7893 92.0291 73.6041 92.979 74.257C94.2663 75.1386 95.3948 76.2034 96.5965 77.177C98.418 78.655 100.166 80.2241 101.713 82.01C101.832 82.1459 101.939 82.295 102.071 82.4178C103.833 84.0731 105.361 85.9408 106.884 87.8274C108.432 89.7375 109.821 91.7438 111.012 93.8982C111.26 94.3373 111.494 94.7895 111.711 95.249C111.819 95.4725 111.934 95.7143 111.77 96.0406C111.402 95.8198 111.279 95.4232 111.096 95.1046C109.663 92.5418 107.979 90.1614 106.136 87.9021C104.903 86.3961 103.584 84.9697 102.265 83.5308C100.16 81.2246 97.8542 79.1475 95.5298 77.0901C94.2957 76.0003 93.0123 74.9383 91.6802 73.9413C90.7608 73.2556 89.829 72.5582 88.9462 71.8208C88.1135 71.13 87.22 70.5298 86.3568 69.872C85.9186 69.5124 85.4925 69.1272 85.0543 68.7676Z" fill="#FEFBF7"/>
<path d="M115.638 111.576C113.003 103.874 107.885 98.9284 99.9895 97.067C99.9919 96.7246 100.192 96.8246 100.303 96.8055C100.452 96.7842 100.595 96.8068 100.744 96.8352C102.864 97.1627 104.875 97.7954 106.668 98.914C108.049 99.771 109.381 100.706 110.523 101.869C112.927 104.321 114.905 107.04 115.725 110.5C115.745 110.605 115.808 110.701 115.885 110.883C118.871 107.661 121.008 103.943 123.231 100.083C122.574 102.978 118.71 109.407 115.638 111.576Z" fill="#FEFBF7"/>
<path d="M55.432 103.455C55.9136 103.24 56.1198 103.37 56.3189 103.421C64.7638 105.698 73.1243 108.204 81.3225 111.174C83.5776 111.985 85.7599 112.949 87.8815 114.042C88.387 114.304 88.8744 114.611 89.3434 114.938C88.6971 114.852 88.0931 114.658 87.5132 114.4C83.123 112.397 78.4971 110.963 73.9378 109.381C68.3071 107.427 62.5381 105.862 56.8896 103.978C56.4537 103.83 56.03 103.668 55.432 103.455Z" fill="#FEFBF7"/>
<path d="M68.7447 169.139C69.4943 168.421 70.259 167.94 71.0113 167.459C74.8036 165.048 78.7483 162.939 82.8714 161.217C85.5727 160.091 88.2738 158.953 90.7712 157.366C93.1761 155.84 95.3921 154.076 97.218 151.875C98.3026 150.572 99.3556 149.226 100.277 147.795C100.705 147.134 101.201 146.513 101.709 145.904C101.453 146.859 100.891 147.665 100.34 148.445C99.2524 149.992 98.1456 151.521 96.9009 152.947C94.0191 156.244 90.4992 158.577 86.5688 160.306C83.1636 161.798 79.7072 163.155 76.4105 164.909C74.0893 166.143 71.7809 167.414 69.5927 168.883C69.3584 169.034 69.1743 169.231 68.7447 169.139Z" fill="#FEFBF7"/>
<path d="M125.294 55.2812C127.093 60.3086 128 65.5263 127.719 70.9645C127.581 73.6803 127.43 76.3845 126.938 79.0779C126.083 83.7724 124.3 88.1303 121.688 92.1831C121.627 92.2739 121.528 92.342 121.313 92.5354C121.653 91.8179 121.919 91.2418 122.193 90.6715C122.49 90.0624 122.794 89.4591 123.091 88.85C125.282 84.3058 126.534 79.5503 126.864 74.5884C127.083 71.2827 127.264 67.9792 126.949 64.6929C126.725 62.3784 126.371 60.0904 125.843 57.8376C125.635 56.9911 125.471 56.1358 125.294 55.2812Z" fill="#FEFBF7"/>
<path d="M47.8185 139.979C48.6293 139.762 49.2671 139.618 49.8857 139.419C52.1004 138.714 54.2447 137.82 56.3824 136.896C60.0339 135.314 63.6661 133.677 67.4135 132.358C71.1053 131.06 74.8828 130.212 78.7065 129.616C79.227 129.535 79.7607 129.515 80.3025 129.676C79.194 129.923 78.0859 130.207 76.9771 130.416C71.7177 131.422 66.6715 133.193 61.7224 135.313C58.6515 136.623 55.5999 138.001 52.4714 139.146C51.4512 139.525 50.4246 139.873 49.3592 140.086C48.9009 140.188 48.4366 140.309 47.8185 139.979Z" fill="#FEFBF7"/>
<path d="M121.033 36.7195C121.701 37.0343 121.956 37.6413 122.296 38.1187C124.249 40.8394 126.092 43.6414 127.596 46.6565C130.826 53.1649 132.342 60.0932 131.741 67.5463C131.66 68.5779 131.653 69.6174 131.435 70.6696C131.086 70.5784 131.232 70.3084 131.236 70.1401C131.26 68.8818 131.289 67.6169 131.35 66.3563C131.601 60.9651 130.527 55.8647 128.748 50.9185C127.525 47.5132 125.741 44.409 123.846 41.3738C122.924 39.9106 122.051 38.4196 121 37.0451C120.974 37.0093 121.017 36.9134 121.033 36.7195Z" fill="#FEFBF7"/>
<path d="M101.012 87.7818C100.769 87.6904 100.689 87.689 100.639 87.6422C99.0765 86.0869 97.294 84.7809 95.6218 83.3565C94.5321 82.4261 93.3748 81.5557 92.236 80.6779C90.9534 79.6906 89.6523 78.723 88.3147 77.8072C86.2456 76.3814 84.1398 74.995 81.9123 73.8024C77.7878 71.5903 73.645 69.3979 69.5266 67.1793C69.0586 66.9271 68.5357 66.7467 68.0584 66.2277C70.3568 67.1177 72.3907 68.1913 74.4613 69.2129C77.9538 70.9339 81.416 72.725 84.7201 74.7742C86.5564 75.9091 88.3376 77.1157 90.0824 78.3867C92.4402 80.1063 94.7184 81.9239 96.9233 83.8329C98.2074 84.9445 99.5404 85.9911 100.647 87.2811C100.735 87.3878 100.804 87.5018 101.012 87.7818Z" fill="#FEFBF7"/>
<path d="M107.13 130.941C106.953 131.219 106.831 131.425 106.679 131.677C108.019 133.862 108.368 136.292 108.092 138.879C107.929 140.4 107.69 141.236 106.945 142.338C107.138 141.263 107.34 140.429 107.43 139.578C107.52 138.726 107.517 137.874 107.501 137.022C107.485 136.134 107.364 135.257 107.1 134.408C106.855 133.614 106.617 132.813 106.255 132.082C105.765 132.055 105.571 132.465 105.269 132.651C103.796 133.591 102.187 134.011 100.514 134.223C96.499 134.724 92.7439 134.065 89.3092 132.08C87.7667 131.183 86.4448 130.036 85.3309 128.628C85.925 129.047 86.5314 129.452 87.1071 129.891C91.4193 133.236 96.3221 134.436 101.851 133.328C103.752 132.959 105.442 132.049 107.13 130.941Z" fill="#FEFBF7"/>
<path d="M96.9368 95.0876C96.7562 95.5711 96.4701 95.501 96.2344 95.5026C95.3414 95.5183 94.4832 95.3206 93.6371 95.0972C88.2501 93.7381 83.1351 91.747 78.4498 88.8161C76.1821 87.4022 74.0797 85.7857 72.0381 84.066C70.2346 82.5561 68.4863 80.9993 66.7933 79.3833C66.4546 79.0551 66.11 78.746 65.8142 78.3717C67.1622 79.6413 68.7429 80.6482 70.0847 81.9243C71.2636 83.0485 72.5588 84.035 73.8415 85.0224C77.3954 87.7344 81.2724 89.9483 85.4415 91.6597C88.2957 92.8335 91.2098 93.8296 94.2386 94.539C95.1033 94.755 95.9981 94.9009 96.9368 95.0876Z" fill="#FEFBF7"/>
<path d="M82.9521 145.42C82.5803 146.046 81.9816 146.362 81.4206 146.713C78.5356 148.541 75.415 149.83 72.2433 150.984C67.4084 152.742 62.4404 153.675 57.3769 153.828C54.7087 153.913 52.0681 153.679 49.4624 153.244C49.108 153.184 48.7476 153.156 48.4403 152.869C60.6368 154.492 72.084 151.747 82.9521 145.42Z" fill="#FEFBF7"/>
<path d="M128.831 83.2031C129.125 82.2706 129.763 81.5851 130.164 80.7769C132.089 76.9086 132.907 72.8451 133.079 68.6336C133.323 62.5817 132.347 56.7708 130.479 51.1378C130.389 50.8693 130.225 50.6053 130.296 50.2899C130.575 50.3167 130.609 50.5574 130.68 50.7586C132.26 55.052 133.493 59.4408 133.668 64.1232C133.816 67.992 133.716 71.8382 132.715 75.6575C132.149 77.8137 131.352 79.8656 130.112 81.7509C129.758 82.2949 129.341 82.7432 128.831 83.2031Z" fill="#FEFBF7"/>
<path d="M37.4098 91.4255C38.3204 91.2902 39.1531 91.4022 39.9799 91.5457C44.387 92.2594 48.7106 93.2891 52.9087 94.7432C57.711 96.4039 62.3616 98.3785 66.8729 100.666C67.1287 100.794 67.4025 100.865 67.5177 101.182C63.3921 99.5489 59.3702 97.7545 55.2087 96.2485C49.5647 94.2087 43.7408 92.7397 37.7854 91.7266C37.661 91.6967 37.4938 91.7253 37.4098 91.4255Z" fill="#FEFBF7"/>
<path d="M66.9741 138.038C56.3683 141.162 45.62 143.747 35.1747 147.92C35.2998 147.446 35.6283 147.395 35.8567 147.276C37.8932 146.183 40.0517 145.45 42.2099 144.692C50.2244 141.897 58.4156 139.919 66.6392 138.07C66.7568 138.045 66.8624 138.045 66.9741 138.038Z" fill="#FEFBF7"/>
<path d="M91.3575 99.9714C89.9972 99.7847 88.8199 99.3383 87.6248 98.9615C82.7573 97.4218 78.2108 95.2226 73.9072 92.5612C72.1332 91.46 70.4325 90.2549 68.8293 88.9072C66.932 87.322 65.3173 85.5086 63.8066 83.5709C63.4353 83.1016 62.8734 82.7743 62.7661 82.0717C63.0647 82.1535 63.2283 82.3552 63.3917 82.5445C64.2023 83.4603 64.9944 84.396 65.8172 85.2986C66.9666 86.5551 68.1896 87.7449 69.5286 88.7725C71.0115 89.9096 72.5494 90.9751 74.136 91.9631C78.2898 94.5338 82.6434 96.6885 87.2519 98.3555C88.4103 98.7718 89.5747 99.1816 90.7453 99.5848C90.9446 99.6601 91.1683 99.6966 91.3575 99.9714Z" fill="#FEFBF7"/>
<path d="M120.94 52.59C121.505 53.2034 121.933 54.8458 122.619 58.0348C124.384 66.2191 123.897 74.4324 121.827 82.6843C121.884 82.1706 121.928 81.6452 121.997 81.1308C122.34 78.5087 122.759 75.8946 122.972 73.2617C123.322 68.9713 123.059 64.7487 122.392 60.5565C122.005 58.0902 121.55 55.6342 120.922 53.2259C120.876 53.0232 120.793 52.8104 120.94 52.59Z" fill="#FEFBF7"/>
<path d="M59.9642 67.1319C60.8152 68.822 61.7182 70.2046 62.7748 71.4726C63.3723 72.1895 63.9208 72.959 64.5858 73.616C66.4803 75.4935 68.4362 77.3177 70.5875 78.9067C73.2829 80.8926 76.094 82.7039 79.0755 84.2566C80.2606 84.8706 81.4152 85.53 82.5821 86.1762C82.7069 86.2434 82.789 86.3691 83.0272 86.5913C81.0839 85.8105 79.4118 84.9018 77.7339 84.0246C75.981 83.1021 74.2158 82.1802 72.5907 81.0575C71.2282 80.1183 69.835 79.2119 68.6189 78.0777C68.1675 77.6567 67.6247 77.3592 67.1612 76.9638C65.5391 75.5737 64.101 74.0236 62.7484 72.3691C61.8111 71.2246 60.9291 70.0459 60.2499 68.7247C60.0402 68.2958 59.7998 67.8873 59.9642 67.1319Z" fill="#FEFBF7"/>
<path d="M70.323 72.6878C72.6196 73.9698 74.713 75.3694 76.8062 76.7442C78.7368 78.0042 80.649 79.284 82.4881 80.6675C84.2395 81.9816 86.0459 83.2241 87.828 84.5053C89.3724 85.614 90.917 86.7352 92.4737 87.8307C93.9802 88.8795 95.505 89.8962 97.0113 90.9325C97.1863 91.0466 97.3858 91.1467 97.4383 91.3923C96.7634 91.4631 96.3912 90.9194 95.9228 90.6299C94.1804 89.5578 92.4988 88.3825 90.799 87.2394C89.2492 86.1994 87.687 85.1601 86.1615 84.0813C84.8986 83.186 83.6845 82.2257 82.4338 81.3172C81.2394 80.4489 80.0208 79.6318 78.8141 78.7767C77.7888 78.0539 76.7695 77.312 75.7318 76.5899C74.2878 75.5872 72.8315 74.5852 71.3691 73.6022C71.0191 73.3617 70.7119 73.0752 70.323 72.6878Z" fill="#FEFBF7"/>
<path d="M42.5327 106.753C43.5948 106.857 44.1103 107.461 44.7103 107.861C48.5792 110.411 52.7151 112.423 57.173 113.824C60.9337 115.006 64.7772 115.834 68.7337 116.214C69.1499 116.257 69.5604 116.345 69.947 116.521C65.0387 116.472 60.3073 115.591 55.7295 114.016C50.9649 112.378 46.6449 109.985 42.5327 106.753Z" fill="#FEFBF7"/>
<path d="M117.635 93.6629C116.517 91.9062 115.49 82.5385 115.779 77.231C116.028 72.6976 116.949 67.8314 117.86 66.5632C116.923 71.1814 116.284 75.707 116.39 80.2628C116.489 84.7754 117.046 89.2232 117.635 93.6629Z" fill="#FEFBF7"/>
<path d="M37.548 149.673C49.0285 151.195 60.4107 150.533 71.7552 146.425C70.106 147.718 63.2253 149.661 57.4975 150.328C50.7717 151.11 44.0825 151.261 37.548 149.673Z" fill="#FEFBF7"/>
<path d="M84.1773 126.157C83.6409 126.494 83.2736 126.398 82.9075 126.413C77.4407 126.609 72.0289 127.3 66.8245 129.355C63.2272 130.777 59.8589 132.697 56.5283 134.664C56.5438 134.383 56.8094 134.261 57.0188 134.112C57.2344 133.956 57.4438 133.806 57.6719 133.662C61.1 131.527 64.6421 129.597 68.3944 128.159C71.0464 127.148 73.7906 126.616 76.5615 126.257C78.5204 126.003 80.4736 125.806 82.4422 125.868C82.964 125.899 83.5102 125.892 84.1773 126.157Z" fill="#FEFBF7"/>
<path d="M85.513 120.722C92.1419 127.077 99.9086 129.706 109.323 127.015C108.121 127.74 106.842 128.196 105.492 128.439C102.513 128.971 99.5936 128.71 96.7375 127.991C94.1428 127.344 91.7484 126.28 89.5598 124.755C88.1528 123.775 86.9974 122.538 85.7439 121.406C85.5623 121.248 85.3678 121.055 85.513 120.722Z" fill="#FEFBF7"/>
<path d="M36.0323 92.7413C39.9091 92.6405 60.5581 99.3341 63.1447 101.513C54.29 98.0907 45.2244 95.2474 36.0323 92.7413Z" fill="#FEFBF7"/>
<path d="M113.202 95.7743C112.791 95.6618 112.769 95.3833 112.686 95.1457C111.668 92.3521 110.132 89.8627 108.442 87.4756C107.068 85.5299 105.577 83.6844 103.963 81.9333C103.127 81.0314 102.225 80.2018 101.414 79.286C99.881 77.5487 98.1639 75.9964 96.5572 74.3381C98.4867 76.0271 100.679 77.4207 102.303 79.4636C102.731 79.9978 103.3 80.4057 103.777 80.8997C106.984 84.1857 109.785 87.7941 111.917 91.9084C112.513 93.1042 113.086 94.3263 113.202 95.7743Z" fill="#FEFBF7"/>
<path d="M106.714 68.9686C103.378 65.7336 99.9676 62.59 95.6464 60.6142C91.375 58.6603 86.8823 57.4349 82.1492 56.8957C82.3057 56.4758 82.5681 56.6344 82.7419 56.6489C88.6153 57.0829 94.032 58.8255 99.0095 61.7949C100.627 62.7623 102.147 63.8723 103.464 65.1873C104.625 66.356 105.909 67.4304 106.714 68.9686Z" fill="#FEFBF7"/>
<path d="M85.2902 118.673C80.4725 118.65 75.9325 119.6 71.5124 121.29C67.1169 122.966 63.0131 125.197 59.2536 128.254C59.1226 127.639 59.6042 127.399 59.8997 127.17C60.8168 126.449 61.7527 125.745 62.7329 125.12C67.4551 122.111 72.497 119.942 77.9297 118.877C80.135 118.446 82.3428 118.239 84.5606 118.374C84.7655 118.381 85.0007 118.317 85.2902 118.673Z" fill="#FEFBF7"/>
<path d="M119.943 95.8509C119.115 93.3923 118.734 90.8572 118.569 88.278C118.092 80.9627 118.198 73.6249 118.651 66.2664C118.656 66.123 118.691 65.9715 118.738 65.6451C118.959 65.9866 118.905 66.2325 118.908 66.444C118.847 70.5614 118.681 74.6789 118.751 78.7948C118.83 83.1653 118.971 87.5321 119.533 91.8488C119.648 92.7194 119.825 93.5863 119.965 94.4555C120.045 94.9237 120.155 95.3839 119.943 95.8509Z" fill="#FEFBF7"/>
<path d="M70.8166 59.1278C71.5284 58.9796 72.1689 59.1094 72.8025 59.1836C76.3128 59.6274 79.6495 60.6353 82.9141 61.8591C86.347 63.1536 89.5246 64.9238 92.5441 66.9772C93.2692 67.4689 93.9206 68.0149 94.5046 68.6457C92.0068 67.2021 89.6006 65.6223 86.9994 64.3527C82.196 62.0014 77.1458 60.3305 71.7769 59.5682C71.2985 59.5034 71.3047 59.5093 70.8166 59.1278Z" fill="#FEFBF7"/>
<path d="M95.5617 99.8462C96.0786 99.4796 96.4143 99.5467 96.7368 99.54C100.588 99.5164 104.122 100.463 107.266 102.584C110.291 104.618 112.573 107.313 114.192 110.581C114.776 111.766 115.169 113.005 115.172 114.385C114.806 114.401 114.89 114.097 114.869 113.943C114.496 111.627 113.265 109.753 111.973 107.921C110.813 106.285 109.34 104.936 107.775 103.723C105.472 101.932 102.842 100.757 99.8961 100.285C98.8833 100.128 97.8707 99.9827 96.8346 99.9634C96.4809 99.9533 96.1269 99.9059 95.5617 99.8462Z" fill="#FEFBF7"/>
<path d="M74.9489 97.504C73.5536 96.9648 72.3658 96.1397 71.1723 95.3585C69.4478 94.2419 67.7842 93.0221 66.3407 91.5406C65.8637 91.0465 65.3624 90.5912 64.9589 90.0182C64.6813 89.6118 64.2559 89.2888 63.8616 88.9825C60.8764 86.6285 57.5455 84.9478 53.76 84.1833C53.6543 84.1585 53.5486 84.1336 53.4489 84.0898C53.424 84.0788 53.4049 84.0364 53.2917 83.9063C53.6701 83.915 53.9676 83.8974 54.2532 83.9303C57.1227 84.32 59.7324 85.3034 62.1321 86.8899C63.4507 87.7632 64.5238 88.8625 65.5726 90.0005C67.0797 91.6275 68.8253 92.9605 70.577 94.2869C71.7531 95.1749 73.0087 95.9649 74.2397 96.7687C74.5209 96.9573 74.7959 97.14 74.9489 97.504Z" fill="#FEFBF7"/>
<path d="M67.6038 143.952C68.0401 143.546 68.3687 143.508 68.6782 143.427C73.1464 142.188 77.6146 140.95 82.0828 139.712C85.8703 138.663 89.6645 137.658 93.5117 136.961C94.0321 136.868 94.5889 136.698 95.0387 136.957C95.1089 137.133 95.0785 137.191 94.9794 137.21C92.3268 137.593 89.7208 138.265 87.1211 138.943C81.7359 140.336 76.351 141.766 70.9659 143.172C69.9259 143.433 68.8793 143.651 67.6038 143.952Z" fill="#FEFBF7"/>
<path d="M85.0934 71.7203C81.9508 69.7489 78.9942 67.7665 75.7756 66.2165C71.3907 64.1077 66.8309 62.451 61.9223 61.7856C61.4315 61.7216 60.9344 61.6517 60.4594 61.3441C60.8661 61.0959 61.1902 61.2259 61.5007 61.2571C65.4934 61.5727 69.2407 62.6931 72.8625 64.2377C75.6365 65.4223 78.1972 66.9493 80.7397 68.521C81.7829 69.1617 82.8079 69.8347 83.8083 70.534C84.2335 70.8322 84.5919 71.2525 85.0934 71.7203Z" fill="#FEFBF7"/>
<path d="M139.768 97.1515C140.599 95.3529 141.137 93.4909 141.545 91.5931C142.844 85.528 142.531 79.6215 140.73 73.8539C140.556 73.2855 140.32 72.7208 140.332 72.079C143.95 76.574 143.601 92.8953 139.768 97.1515Z" fill="#FEFBF7"/>
<path d="M111.037 63.2214C110.546 63.0825 110.503 62.6499 110.345 62.3547C109.166 60.1491 107.931 57.9903 106.37 56.0434C105.42 54.8624 104.36 53.7749 103.459 52.5661C102.608 51.429 101.445 50.5899 100.65 49.4184C100.493 49.1853 100.249 49.0069 100.035 48.8081C98.2736 47.1403 96.5119 45.485 94.7501 43.8172C94.5746 43.6535 94.4174 43.47 94.2229 43.2763C94.6302 43.1156 94.8254 43.3714 95.0384 43.5578C97.4632 45.7211 99.9066 47.8772 102.16 50.2246C103.899 52.043 105.577 53.9395 107.064 55.9777C108.696 58.1877 110.075 60.5431 111.037 63.2214Z" fill="#FEFBF7"/>
<path d="M79.8388 59.716C85.2898 60.2261 97.4773 65.7036 103.951 74.7659C102.962 73.9664 102.015 73.1084 101.173 72.1509C100.099 70.9273 98.9383 69.7959 97.6066 68.8612C96.8126 68.3051 96.0979 67.6385 95.3099 67.0634C92.5581 65.0624 89.5694 63.4922 86.4713 62.115C84.333 61.1535 82.1403 60.3134 79.8388 59.716Z" fill="#FEFBF7"/>
<path d="M65.6616 91.3263C66.2593 91.5272 66.3338 92.0762 66.6662 92.3986C68.3912 94.0935 70.1527 95.7365 72.1716 97.103C75.8093 99.5613 79.7865 101.34 83.8734 102.951C83.9669 102.989 84.0729 103.039 84.075 103.225C82.3784 102.922 80.8025 102.325 79.2507 101.664C76.5208 100.495 73.8882 99.1467 71.4501 97.463C69.8373 96.3522 68.3591 95.0842 67.0157 93.6713C66.1181 92.7358 65.8583 92.2475 65.6616 91.3263Z" fill="#FEFBF7"/>
<path d="M54.2577 123.418C46.0611 121.264 37.6472 120.224 28.9871 119.939C32.4735 118.697 50.926 121.222 54.2577 123.418Z" fill="#FEFBF7"/>
<path d="M92.2255 62.3635C93.2991 62.4682 94.186 63.0252 95.0786 63.5508C96.9139 64.6239 98.6576 65.8204 100.365 67.0812C102.391 68.5781 104.093 70.3862 105.751 72.2278C107.925 74.6483 109.736 77.3324 110.896 80.4401C110.998 80.7075 111.088 80.9881 111.166 81.2694C111.185 81.3242 111.149 81.4009 111.144 81.482C110.783 81.3665 110.699 81.0421 110.565 80.7454C109.617 78.7439 108.596 76.7965 107.279 75.028C106.372 73.8135 105.471 72.6048 104.392 71.537C103.802 70.9501 103.261 70.3231 102.684 69.7231C101.473 68.4829 100.078 67.4523 98.7018 66.402C97.1566 65.2187 95.514 64.1902 93.8288 63.2202C93.2984 62.922 92.7558 62.6493 92.2255 62.3635Z" fill="#FEFBF7"/>
<path d="M111.217 54.8393C110.206 53.7614 109.183 52.6965 108.203 51.5981C106.758 49.98 105.178 48.5191 103.452 47.2035C101.506 45.7081 99.4325 44.4129 97.3346 43.1564C96.192 42.4716 95.0191 41.8444 93.84 41.2114C93.5217 41.0374 93.1977 40.8949 92.9586 40.5982C94.5694 40.5283 100.89 44.4577 103.253 46.1709C106.505 48.5281 109.052 51.542 111.217 54.8393Z" fill="#FEFBF7"/>
<path d="M75.3096 103.971C74.3234 103.974 73.8982 103.122 73.1372 102.744C72.3387 102.344 71.6556 101.732 70.9119 101.235C70.1993 100.755 69.4684 100.294 68.7374 99.8339C67.9692 99.3633 67.201 98.9052 66.4205 98.4478C65.6775 98.013 64.9222 97.5914 64.1607 97.1764C63.3619 96.7512 62.5633 96.3384 61.7587 95.9446C60.979 95.5618 60.1934 95.198 59.4078 94.8466C58.5848 94.4726 57.7558 94.1176 56.933 93.756C56.1475 93.4046 55.3558 93.0598 54.5391 92.6917C54.8218 92.4634 55.0223 92.6381 55.2028 92.6957C59.6493 94.2601 63.9501 96.1067 67.9663 98.5611C69.7151 99.6265 71.4275 100.756 73.1031 101.925C73.9098 102.506 74.5761 103.287 75.3096 103.971Z" fill="#FEFBF7"/>
<path d="M137.131 84.6956C137.635 89.3536 136.828 93.8595 134.821 98.2067C133.184 101.754 131.084 104.955 128.026 107.484C128.886 106.045 130.152 104.911 131.08 103.51C132.021 102.097 132.93 100.667 133.689 99.146C134.437 97.6632 135.072 96.1372 135.607 94.5675C136.154 92.9597 136.527 91.3249 136.738 89.65C136.95 87.9999 136.894 86.3472 137.131 84.6956Z" fill="#FEFBF7"/>
<path d="M95.1726 98.8556C94.7368 99.2735 94.3384 99.1479 93.9531 99.0962C91.0699 98.6833 88.3309 97.8513 85.7 96.7017C81.7286 94.9539 77.9091 92.9172 74.3393 90.4736C73.6954 90.033 72.9471 89.6919 72.4559 89.0368C72.708 88.829 72.8711 88.9934 73.0337 89.1082C78.2114 92.7685 83.8327 95.5999 89.8974 97.5775C91.068 97.9556 92.305 98.1742 93.5057 98.4697C94.0653 98.5857 94.619 98.7206 95.1726 98.8556Z" fill="#FEFBF7"/>
<path d="M53.4034 126.549C52.9607 126.924 52.4888 126.902 52.03 126.942C48.6757 127.211 45.4016 126.866 42.1675 126.213C38.722 125.523 35.3488 124.629 32.0171 123.565C31.5749 123.424 31.1268 123.301 30.7202 123.008C31.0526 122.764 31.3033 122.986 31.5523 123.058C35.884 124.205 40.2398 125.289 44.6908 125.993C47.0468 126.369 49.4258 126.569 51.8329 126.512C52.354 126.493 52.8819 126.53 53.4034 126.549Z" fill="#FEFBF7"/>
<path d="M108.446 140.629C110.318 136.489 110.808 132.476 109.632 128.226C110.907 129.563 111.127 132.133 110.481 136.604C110.816 136.559 110.831 136.278 110.922 136.055C111.894 133.525 112.108 130.967 111.639 128.374C111.506 127.623 111.268 126.884 111.254 126.106C111.539 126.064 111.603 126.247 111.654 126.406C112.799 130.048 112.752 133.648 110.785 137.183C110.676 137.377 110.586 137.637 110.419 137.741C109.944 138.012 109.85 138.491 109.631 138.915C109.351 139.454 109.266 140.125 108.446 140.629Z" fill="#FEFBF7"/>
<path d="M60.8011 120.417C60.1697 120.529 59.647 120.386 59.1249 120.293C55.9614 119.741 53.0452 118.571 50.2738 117.044C48.3388 115.977 46.4954 114.774 44.9087 113.245C44.1875 112.548 43.5337 111.778 43.0152 110.901C42.9203 110.739 42.838 110.588 42.9413 110.401C43.1206 110.347 43.2149 110.46 43.3029 110.566C45.7638 113.71 49.0559 115.76 52.5923 117.472C54.9125 118.59 57.3172 119.504 59.8786 120.024C60.177 120.081 60.5243 120.073 60.8011 120.417Z" fill="#FEFBF7"/>
<path d="M65.2522 93.4137C62.9891 92.4351 60.7879 91.4404 58.544 90.5167C55.3838 89.2184 52.1335 88.1805 48.7509 87.5239C47.9986 87.3759 47.2463 87.2404 46.4645 87.2373C46.3031 87.2345 46.0804 87.2976 45.9896 86.9422C46.589 86.7135 47.2033 86.7204 47.7996 86.7843C48.6694 86.8817 49.5395 87.0164 50.4039 87.195C55.1118 88.1893 59.4995 89.9557 63.6514 92.2898C64.2009 92.6054 64.8057 92.8742 65.2522 93.4137Z" fill="#FEFBF7"/>
<path d="M113.337 121.121C113.33 120.463 113.063 119.944 112.785 119.45C111.753 117.627 110.31 116.208 108.665 114.943C105.724 112.668 102.25 111.53 98.776 110.381C98.5519 110.307 98.2485 110.356 98.0894 109.999C98.6736 110.101 99.2015 110.163 99.7115 110.294C102.604 111.037 105.443 111.938 107.948 113.574C109.929 114.868 111.671 116.407 112.953 118.426C113.326 119.02 113.563 119.659 113.694 120.348C113.748 120.655 113.713 120.931 113.337 121.121Z" fill="#FEFBF7"/>
<path d="M90.1508 113.165C91.3013 112.847 92.3781 113.15 93.4297 113.429C98.9241 114.862 104.37 116.422 108.859 120.03C106.821 119.213 104.996 117.978 102.957 117.147C100.907 116.305 98.7964 115.654 96.6917 114.97C94.5436 114.284 92.3595 113.711 90.1508 113.165Z" fill="#FEFBF7"/>
<path d="M114.749 117.266C113.418 113.726 110.97 111.097 108.196 108.781C105.409 106.44 102.076 105.089 98.4278 104.416C98.458 104.345 98.4882 104.275 98.5184 104.205C98.6113 104.193 98.71 104.15 98.797 104.17C101.655 104.647 104.392 105.381 106.811 107.035C109.368 108.78 111.538 110.902 113.273 113.454C114.03 114.591 114.627 115.837 114.749 117.266Z" fill="#FEFBF7"/>
<path d="M103.04 134.655C103.165 135.744 103.008 136.706 102.845 137.65C102.238 141.124 100.864 144.288 98.7228 147.181C97.3893 148.991 95.8299 150.591 94.264 152.173C92.9376 153.51 91.4414 154.664 89.9264 155.8C89.754 155.935 89.5311 155.998 89.2902 156.118C89.6362 155.406 90.3037 155.117 90.821 154.725C93.1115 152.958 95.0626 150.849 96.9699 148.699C98.3621 147.14 99.4853 145.404 100.421 143.542C101.581 141.225 102.286 138.792 102.549 136.241C102.594 135.803 102.682 135.355 102.764 134.914C102.776 134.876 102.862 134.834 103.04 134.655Z" fill="#FEFBF7"/>
<path d="M44.4663 116.16C36.8391 115.67 35.569 114.744 25.4447 117.479C25.429 117.181 25.6707 117.148 25.8684 117.061C27.9989 116.069 30.2332 115.493 32.5206 115.226C36.3452 114.779 40.1036 115.083 43.7991 115.87C44.0292 115.912 44.3268 115.882 44.4663 116.16Z" fill="#FEFBF7"/>
<path d="M128.139 91.4973C127.829 97.0573 123.54 106.211 119.987 108.316C119.99 108.023 120.224 107.859 120.378 107.682C123.033 104.691 124.833 101.233 126.126 97.5138C126.746 95.7397 127.347 93.9604 127.786 92.141C127.834 91.9513 127.806 91.6915 128.139 91.4973Z" fill="#FEFBF7"/>
<path d="M106.747 123.418C102.437 124.21 98.3734 123.693 94.5613 121.787C91.4854 120.247 88.7147 118.254 88.1673 117.005C93.6135 121.358 99.5318 124.085 106.747 123.418Z" fill="#FEFBF7"/>
<path d="M68.4848 118.921C67.9674 119.275 67.404 119.39 66.8276 119.455C63.952 119.789 61.1678 119.408 58.4241 118.757C55.5746 118.081 52.8946 117.021 50.4022 115.521C50.2834 115.448 50.1953 115.328 50.0511 115.194C50.3656 115.02 50.5412 115.183 50.7471 115.289C54.6667 117.345 58.8564 118.569 63.3344 118.93C64.471 119.017 65.6071 119.068 66.7543 118.993C67.3372 118.958 67.908 118.949 68.4848 118.921Z" fill="#FEFBF7"/>
<path d="M59.2012 112.073C66.1452 114.327 73.3118 115.373 80.7099 115.466C80.4559 115.512 80.1961 115.59 79.9418 115.599C77.5043 115.714 75.0714 115.685 72.6545 115.425C68.6287 115.006 64.6923 114.252 60.9107 112.904C60.3189 112.697 59.6781 112.555 59.2012 112.073Z" fill="#FEFBF7"/>
<path d="M88.4611 119.507C89.5246 119.723 90.1289 120.508 90.8916 121.023C94.1178 123.232 97.7177 124.448 101.638 124.867C104.054 125.127 106.481 125.125 108.921 124.68C109.02 124.662 109.143 124.617 109.194 124.751C104.037 126.316 94.1292 125.396 88.4611 119.507Z" fill="#FEFBF7"/>
<path d="M65.9631 135.715C69.7974 133.282 81.785 130.56 84.4704 131.477C83.0136 131.657 81.7859 131.78 80.5589 131.966C79.3071 132.153 78.0681 132.376 76.8169 132.625C75.6091 132.866 74.4079 133.137 73.2194 133.444C71.9939 133.767 70.7751 134.132 69.5626 134.516C68.3502 134.9 67.163 135.319 65.9631 135.715Z" fill="#FEFBF7"/>
<path d="M111.822 109.542C109.728 107.035 107.08 105.464 104.261 104.151C101.436 102.833 98.4319 102.184 95.2537 102.592C95.1305 102.12 95.4156 102.091 95.6073 102.036C96.4484 101.799 97.2923 101.811 98.1369 101.885C101.229 102.136 103.997 103.265 106.619 104.763C108.417 105.788 109.983 107.101 111.396 108.603C111.653 108.88 111.653 108.88 111.822 109.542Z" fill="#FEFBF7"/>
<path d="M135.859 61.2001C136.282 61.8408 136.334 62.5784 136.416 63.2955C136.793 66.5657 136.947 69.8492 136.158 73.1518C135.813 74.5916 135.282 75.943 134.464 77.187C134.305 77.433 134.178 77.7332 133.799 77.7123C133.566 77.4212 133.874 77.2285 133.984 77.0476C135.21 75.0261 135.694 72.8061 135.961 70.5306C136.256 67.9983 136.111 65.4861 135.959 62.968C135.916 62.3855 135.891 61.7957 135.859 61.2001Z" fill="#FEFBF7"/>
<path d="M138.467 78.2086C139.073 78.552 139.089 78.9493 139.205 79.2785C139.634 80.5287 139.816 81.8436 139.942 83.168C140.399 88.0389 139.619 92.7785 137.77 97.4078C137.746 97.4715 137.704 97.5425 137.655 97.5952C137.636 97.615 137.587 97.6179 137.432 97.6583C138.552 94.4793 139.255 91.2941 139.499 88.0119C139.736 84.7114 139.217 81.5309 138.467 78.2086Z" fill="#FEFBF7"/>
<path d="M85.0379 120.604C77.8211 120.843 71.1691 123.345 64.6742 126.584C64.7327 126.257 64.9676 126.168 65.1897 126.043C70.1624 123.243 75.4438 121.433 80.9895 120.51C82.3341 120.286 83.7046 120.161 85.0379 120.604Z" fill="#FEFBF7"/>
<path d="M99.3859 132.44C98.7554 132.639 98.3705 132.613 97.9856 132.586C95.2978 132.416 92.8685 131.528 90.5594 130.285C89.2488 129.579 88.0726 128.691 86.9638 127.731C86.1055 126.979 85.3264 126.105 84.769 125.081C84.5156 124.611 84.2495 124.116 84.3655 123.4C87.7285 128.985 92.8085 131.706 99.3859 132.44Z" fill="#FEFBF7"/>
<path d="M111.716 99.4932C110.405 98.2337 109.036 97.264 107.526 96.4956C105.972 95.6986 104.322 95.1563 102.593 94.8489C100.902 94.5517 99.1859 94.7849 97.4621 94.8878C97.9964 94.3893 98.6215 94.2461 99.2722 94.1637C101.106 93.9173 102.871 94.1727 104.596 94.6982C107.13 95.4739 109.371 96.74 111.29 98.5418C111.566 98.7991 111.56 98.8057 111.716 99.4932Z" fill="#FEFBF7"/>
<path d="M65.3671 146.29C62.5561 148.065 46.948 150.536 42.8807 149.23C50.412 149.445 57.8292 148.31 65.3671 146.29Z" fill="#FEFBF7"/>
<path d="M59.439 64.6905C59.7182 64.7177 59.8135 64.9047 59.9396 65.0837C61.0572 66.7642 62.3404 68.3046 63.7279 69.7705C65.3917 71.531 67.2511 73.0688 69.025 74.711C69.445 75.1027 69.865 75.4944 70.2361 75.9387C67.4669 73.9818 64.7833 71.933 62.5331 69.3557C61.5337 68.215 60.5653 67.0663 59.7747 65.7767C59.5724 65.4531 59.2897 65.1403 59.439 64.6905Z" fill="#FEFBF7"/>
<path d="M38.7514 101.192C42.8753 104.398 47.413 106.909 52.2736 108.897C48.384 108.294 40.1642 103.801 38.7514 101.192Z" fill="#FEFBF7"/>
<path d="M105.143 96.8403C110.511 98.3077 115.352 103.953 115.746 107.97C115.111 107.194 114.989 106.306 114.528 105.618C114.054 104.894 113.642 104.128 113.132 103.431C112.603 102.704 112.061 101.977 111.39 101.377C110.745 100.799 110.112 100.209 109.491 99.6051C108.864 98.9955 108.127 98.5541 107.378 98.1134C106.635 97.6786 105.886 97.2627 105.143 96.8403Z" fill="#FEFBF7"/>
<path d="M103.005 54.7997C103.985 55.3323 104.485 56.1921 105.07 56.9472C106.511 58.7835 107.965 60.6066 109.166 62.6251C110.077 64.1508 110.864 65.7337 111.219 67.5165C111.297 67.8974 111.438 68.2872 111.312 68.6865C111.003 68.7796 110.964 68.5829 110.925 68.411C110.073 64.9472 108.161 62.0567 106.2 59.2063C105.197 57.7296 104.114 56.3136 103.005 54.7997Z" fill="#FEFBF7"/>
<path d="M98.0611 137.452C97.5816 142.781 91.2799 151.214 87.422 153.343C92.2785 148.907 96.0837 143.798 98.0611 137.452Z" fill="#FEFBF7"/>
<path d="M122.995 109.826C123.558 109.07 124.273 108.579 124.887 107.957C126.661 106.151 127.923 104.028 128.997 101.778C129.877 99.9507 130.632 98.0687 131.225 96.1341C131.297 95.9056 131.25 95.6032 131.615 95.4258C131.608 95.9618 131.471 96.4495 131.327 96.9313C130.424 100.03 129.204 103.017 127.396 105.74C126.419 107.218 125.229 108.547 123.687 109.486C123.471 109.617 123.23 109.712 122.995 109.826Z" fill="#FEFBF7"/>
<path d="M144.287 84.9008C144.288 82.7476 144.211 80.8417 143.893 78.969C143.561 77.0473 143.119 75.1571 142.546 73.3058C141.98 71.4976 141.099 69.8265 140.439 67.9182C141.068 68.1606 141.179 68.658 141.37 69.0449C142.969 72.2599 143.907 75.7073 144.387 79.3066C144.589 80.8129 144.594 82.331 144.561 83.8514C144.545 84.1324 144.567 84.4235 144.287 84.9008Z" fill="#FEFBF7"/>
<path d="M49.8592 85.4415C50.215 85.0718 50.502 85.2165 50.7631 85.2631C52.1428 85.4795 53.4567 85.905 54.7341 86.4074C57.2829 87.4188 59.7832 88.5326 62.1441 89.9347C62.4876 90.1444 62.8004 90.3746 63.0278 90.7343C58.7494 88.7373 54.4719 86.815 49.8592 85.4415Z" fill="#FEFBF7"/>
<path d="M91.6575 111.321C95.2373 110.142 103.785 112.133 106.63 115.23C104.431 113.843 102.062 112.852 99.5292 112.201C96.9654 111.545 94.3151 111.485 91.6575 111.321Z" fill="#FEFBF7"/>
<path d="M104.929 49.9928C105.792 50.6257 106.582 51.3376 107.261 52.1555C108.223 53.3112 109.253 54.4193 110.123 55.6613C110.974 56.8733 111.782 58.1066 112.288 59.5257C112.602 60.3965 112.61 60.5764 112.383 61.3238C112.266 61.3494 112.154 61.3188 112.127 61.1959C111.631 59.0112 110.42 57.2173 109.172 55.4504C107.835 53.552 106.308 51.8328 104.929 49.9928Z" fill="#FEFBF7"/>
<path d="M92.0997 127.875C92.659 127.941 93.0529 128.21 93.4893 128.383C95.9762 129.348 98.5584 129.947 101.278 130.008C103.804 130.062 106.2 129.514 108.438 128.167C108.66 128.029 108.901 127.934 109.216 127.784C108.827 128.529 108.166 128.799 107.568 129.128C105.877 130.063 104.05 130.44 102.195 130.482C98.6583 130.569 95.3778 129.677 92.2949 128.131C92.2323 128.085 92.2004 128.006 92.0997 127.875Z" fill="#FEFBF7"/>
<path d="M112.635 122.781C112.254 122.07 111.788 121.401 111.278 120.778C111.077 120.529 110.851 120.281 110.607 120.078C108.165 118.071 105.51 116.444 102.472 115.43C101.993 115.266 101.543 115.031 101.082 114.822C101.026 114.794 101 114.709 100.874 114.53C103.247 115.39 105.556 116.068 107.659 117.243C109.182 118.098 110.516 119.194 111.745 120.415C112.273 120.943 112.596 121.577 112.821 122.279C112.879 122.431 112.962 122.619 112.635 122.781Z" fill="#FEFBF7"/>
<path d="M87.9598 56.5561C87.2401 56.5617 86.8643 56.2482 86.4587 56.0422C83.8001 54.6455 81.0746 53.3834 78.1135 52.6891C77.1991 52.4761 76.2671 52.3576 75.3408 52.1951C75.4048 51.8118 75.6788 51.9074 75.8649 51.8963C76.6403 51.8811 77.4048 52.0035 78.1573 52.1638C81.5096 52.8783 84.5529 54.277 87.4207 56.0657C87.5706 56.1563 87.6839 56.2988 87.9598 56.5561Z" fill="#FEFBF7"/>
<path d="M116.826 107.13C119.212 103.37 121.462 99.6927 122.919 95.5832C123.238 95.8195 123.117 96.0385 123.075 96.234C122.686 98.0381 121.878 99.699 121.021 101.326C120.042 103.196 118.919 104.969 117.559 106.594C117.418 106.771 117.296 106.965 116.826 107.13Z" fill="#FEFBF7"/>
<path d="M114.304 87.5542C114.635 89.9801 114.939 92.3204 115.282 94.6585C115.63 97.0149 116.362 99.2612 117.261 101.441C116.835 101.647 116.789 101.395 116.694 101.22C116.016 99.9353 115.523 98.5646 115.228 97.1198C114.625 94.2062 114.295 91.2389 114.138 88.2487C114.129 88.0563 114.04 87.8376 114.304 87.5542Z" fill="#FEFBF7"/>
<path d="M78.0019 108.174C81.8824 109.566 85.5704 110.939 88.9555 112.964C89.2802 113.157 89.6299 113.36 89.7217 113.802C89.3712 114.078 89.1016 113.827 88.8956 113.708C85.5222 111.62 81.8207 110.148 78.2345 108.452C78.2096 108.441 78.1968 108.405 78.0019 108.174Z" fill="#FEFBF7"/>
<path d="M111.166 74.7176C108.408 69.5517 110.29 70.8891 102.342 62.9589C106.124 65.0356 110.692 70.7223 111.166 74.7176Z" fill="#FEFBF7"/>
<path d="M137.727 67.5576C137.791 62.1146 136.865 56.8803 135.134 51.8186C136.886 54.2404 138.463 62.2238 137.727 67.5576Z" fill="#FEFBF7"/>
<path d="M131.554 99.5922C133.666 95.1957 134.068 90.5465 134.263 85.7417C135.469 88.1471 133.658 97.3063 131.554 99.5922Z" fill="#FEFBF7"/>
<path d="M49.9864 69.973C53.2778 72.5141 56.8556 74.6091 60.7851 76.5527C58.465 76.5037 51.2694 72.0673 49.9864 69.973Z" fill="#FEFBF7"/>
<path d="M107.381 110.524C105.334 109.427 103.553 108.245 101.583 107.392C99.5003 106.484 97.3292 105.972 95.015 105.98C94.711 105.979 94.3587 106.106 94.0567 105.726C94.5934 105.451 95.0901 105.484 95.5865 105.479C97.7268 105.457 99.682 106.087 101.584 106.926C103.367 107.715 104.998 108.769 106.617 109.823C106.854 109.983 107.043 110.208 107.381 110.524Z" fill="#FEFBF7"/>
<path d="M113.093 54.499C110.576 50.8989 108.137 47.5305 104.684 44.9241C106.958 45.3248 112.503 51.7738 113.093 54.499Z" fill="#FEFBF7"/>
<path d="M75.9591 145.206C78.3889 144.282 80.8187 143.359 83.1911 142.296C85.5883 141.231 87.8838 139.948 90.3729 138.772C88.5061 140.64 78.7877 144.974 75.9591 145.206Z" fill="#FEFBF7"/>
<path d="M79.4241 55.4455C77.5566 54.91 75.8132 54.3796 74.0642 53.9054C72.3402 53.4422 70.5396 53.3507 68.7707 53.3134C68.7036 52.8569 68.9518 52.8545 69.1686 52.8229C70.433 52.6851 71.681 52.7411 72.9063 52.9977C74.9837 53.4335 76.9889 54.0728 78.8673 55.037C79.0234 55.1211 79.1551 55.2438 79.4241 55.4455Z" fill="#FEFBF7"/>
<path d="M103.895 121.877C99.4289 122.019 95.5455 120.415 91.8962 118.095C92.0986 117.877 92.2546 117.961 92.392 118.04C95.8756 119.96 99.5639 121.32 103.584 121.808C103.689 121.82 103.789 121.852 103.895 121.877Z" fill="#FEFBF7"/>
<path d="M130.956 105.844C132.227 103.987 133.56 102.189 134.544 100.163C135.509 98.1687 136.218 96.084 137.044 93.7993C136.694 97.5625 133.683 103.707 130.956 105.844Z" fill="#FEFBF7"/>
<path d="M49.0824 124.586C44.4497 124.291 39.8815 123.661 35.4368 122.409C36.9705 122.485 38.4573 122.813 39.9554 123.041C41.4721 123.274 42.9832 123.551 44.5059 123.764C46.0412 123.99 47.5821 124.159 49.1296 124.359C49.1119 124.441 49.1003 124.516 49.0824 124.586Z" fill="#FEFBF7"/>
<path d="M92.6001 108.259C90.6191 108.663 84.7886 106.597 82.7091 104.83C83.8871 105.313 84.9092 105.725 85.9315 106.149C87.0286 106.607 88.1499 107.013 89.3014 107.336C90.4029 107.637 91.5704 107.729 92.6001 108.259Z" fill="#FEFBF7"/>
<path d="M34.4054 114.197C37.7581 113.2 43.6134 114.044 45.8018 115.531C45.5623 115.763 45.3308 115.597 45.1253 115.528C41.6984 114.289 38.1135 113.913 34.4054 114.197Z" fill="#FEFBF7"/>
<path d="M121.911 68.0364C121.488 64.5641 121.152 61.0867 120.445 57.6688C120.897 57.5982 120.887 57.8477 120.926 57.9947C121.669 61.2736 122.06 64.6171 121.911 68.0364Z" fill="#FEFBF7"/>
<path d="M53.1809 128.121C49.2537 128.804 45.4308 128.809 41.8076 127.215C43.7035 127.493 45.5639 127.936 47.4894 128.082C49.3839 128.224 51.2874 128.066 53.1809 128.121Z" fill="#FEFBF7"/>
<path d="M120.291 110.297C121.726 109.197 122.994 108.175 123.947 106.761C124.845 105.418 125.548 103.956 126.595 102.555C126.633 103.157 126.339 103.535 126.144 103.908C125.573 105.013 125.008 106.125 124.305 107.144C123.505 108.294 122.566 109.34 121.364 110.116C121.062 110.302 120.771 110.462 120.291 110.297Z" fill="#FEFBF7"/>
<path d="M61.2581 74.7373C59.2073 72.2223 56.2957 70.8711 53.6953 69.085C55.4389 69.7156 57.0246 70.6291 58.5674 71.5886C59.5668 72.2135 60.5057 72.9663 61.181 73.9771C61.3008 74.1503 61.3591 74.3645 61.4358 74.559C61.3807 74.6182 61.3256 74.6774 61.2581 74.7373Z" fill="#FEFBF7"/>
<path d="M38.2104 99.5457C39.0504 99.7883 44.9009 103.77 45.7158 104.517C43.0282 103.24 40.6304 101.815 38.4398 100.079C38.2834 99.958 38.0895 99.814 38.2104 99.5457Z" fill="#FEFBF7"/>
<path d="M79.7177 149.182C76.7186 151.397 73.3048 152.609 69.7761 153.53C70.5274 152.975 71.4451 152.87 72.267 152.516C73.0951 152.167 73.9424 151.874 74.7641 151.507C75.6229 151.126 76.4502 150.703 77.2773 150.268C78.0737 149.853 78.8448 149.402 79.6284 148.963C79.6665 149.035 79.6921 149.109 79.7177 149.182Z" fill="#FEFBF7"/>
<path d="M59.4811 80.5437C57.7229 80.3061 56.1636 79.553 54.5983 78.8188C53.5943 78.3498 52.7557 77.6906 52.0025 76.9144C51.8645 76.7733 51.646 76.6557 51.7842 76.2556C52.4125 76.411 52.686 77.0105 53.1548 77.3248C53.6298 77.6448 54.105 77.9773 54.6044 78.2586C55.1351 78.5567 55.6962 78.8095 56.2512 79.0688C56.7689 79.3179 57.2928 79.5729 57.8104 79.8096C58.3654 80.0689 58.9201 80.3033 59.4811 80.5437Z" fill="#FEFBF7"/>
<path d="M100.662 108.42C98.2844 107.815 95.9237 107.583 93.5867 107.25C93.5432 107.246 93.5233 107.129 93.4915 107.062C93.5075 106.819 93.7056 106.782 93.8854 106.765C94.2142 106.752 94.5553 106.737 94.8785 106.78C96.7304 107.018 98.5406 107.414 100.291 108.025C100.422 108.073 100.559 108.127 100.662 108.42Z" fill="#FEFBF7"/>
<path d="M101.567 134.686C102.071 136.448 101.137 140.183 99.5798 142.549C99.6284 141.88 100.032 141.308 100.217 140.68C100.409 140.034 100.638 139.398 100.786 138.748C100.946 138.059 101.019 137.352 101.173 136.658C101.296 136.022 101.208 135.348 101.567 134.686Z" fill="#FEFBF7"/>
<path d="M60.2394 69.4793C59.1195 68.644 57.8655 68.0157 56.6115 67.3875C55.3638 66.7651 54.0016 66.4419 52.6814 65.998C54.9 65.7912 58.6046 67.5363 60.2394 69.4793Z" fill="#FEFBF7"/>
<path d="M85.3481 132.723C82.5257 132.898 79.763 133.412 76.7665 134.126C77.5472 133.426 78.299 133.499 78.9611 133.304C79.6788 133.099 80.4097 132.956 81.1346 132.832C81.8285 132.715 82.5227 132.624 83.2236 132.576C83.943 132.52 84.6623 132.452 85.3481 132.723Z" fill="#FEFBF7"/>
<path d="M61.0442 72.6646C60.9333 72.7334 60.9089 72.7722 60.8779 72.7678C60.8096 72.7657 60.7165 72.765 60.6727 72.7241C59.3619 71.4523 57.9104 70.3569 56.3732 69.3661C58.1929 70.1037 59.9392 70.9327 61.0442 72.6646Z" fill="#FEFBF7"/>
<path d="M50.9736 74.812C51.1788 74.8558 51.3151 74.8477 51.3841 74.912C52.7623 76.1113 54.3239 77.0758 55.7203 78.2429C53.8588 77.6384 52.1077 76.3742 50.9736 74.812Z" fill="#FEFBF7"/>
<path d="M85.2214 56.3769C83.3668 55.8529 81.846 54.6682 80.0161 54.1428C81.4243 54.1273 84.2169 55.317 85.2214 56.3769Z" fill="#FEFBF7"/>
<path d="M108.903 135.416C108.716 133.604 108.151 131.933 107.176 130.174C108.508 131.047 109.305 133.588 108.903 135.416Z" fill="#FEFBF7"/>
<path d="M104.711 91.469C103.909 91.2616 103.69 90.5408 103.232 90.1016C102.743 89.6331 102.241 89.1777 101.665 88.6398C102.639 88.6878 104.043 90.0224 104.711 91.469Z" fill="#FEFBF7"/>
</g>
</svg>
