<svg width="87" height="87" viewBox="0 0 87 87" fill="none" xmlns="http://www.w3.org/2000/svg">
<path d="M76.6761 37.2191C75.5322 36.5132 73.9164 36.2963 72.4621 36.5429L69.6344 33.7149C67.1809 31.2611 63.9619 30.0321 60.743 30.0321C58.8848 30.0321 57.0265 30.4446 55.3129 31.2654C57.5496 26.5875 56.7331 20.8167 52.8594 16.9425L50.0316 14.1145C50.2783 12.6601 50.0614 11.0441 49.3555 9.90014L43.2621 0L37.2154 9.81084C36.5011 10.9718 36.2885 12.6261 36.5521 14.0975L33.7116 16.9383C29.8378 20.8124 29.0214 26.5832 31.2581 31.2611C29.5444 30.4404 27.6862 30.0279 25.828 30.0279C22.6091 30.0279 19.3901 31.2569 16.9366 33.7107L14.0961 36.5514C12.6248 36.2835 10.9707 36.4961 9.80987 37.2148L0 43.2621L9.89917 49.3646C11.043 50.0706 12.6589 50.2874 14.1131 50.0408L16.9409 52.8688C19.3944 55.3226 22.6133 56.5516 25.8322 56.5516C27.6905 56.5516 29.5487 56.1391 31.2623 55.3183C29.0257 59.9962 29.8421 65.767 33.7159 69.6412L36.5436 72.4692C36.297 73.9236 36.5138 75.5396 37.2197 76.6836L43.3216 86.5837L49.3683 76.7729C50.0827 75.6119 50.2953 73.9576 50.0316 72.4862L52.8721 69.6455C56.7459 65.7713 57.5623 60.0005 55.3256 55.3226C57.0393 56.1433 58.8975 56.5558 60.7557 56.5558C63.9747 56.5558 67.1936 55.3268 69.6471 52.8731L72.4876 50.0323C73.9589 50.3002 75.613 50.0876 76.7738 49.3689L86.5837 43.3216L76.6761 37.2191ZM34.6514 17.8823L37.0028 15.5306C37.0709 15.671 37.1346 15.8198 37.2154 15.9516L39.0311 18.8987L37.4493 20.4765C33.9412 23.9849 32.9377 29.054 34.4472 33.4555C34.2772 33.2939 34.1028 33.1408 33.9242 32.9877C32.2616 30.9762 31.3559 28.4757 31.3559 25.8348C31.3559 22.8282 32.5252 20.0044 34.6514 17.8823ZM28.694 42.4201C28.4559 42.4456 28.222 42.4668 27.9839 42.4966C27.9541 42.5009 27.9201 42.5051 27.8861 42.5094C26.1427 42.7263 24.3355 42.3903 23.0768 41.6163L20.0535 39.7537L21.4099 38.3971C23.536 36.2708 26.3595 35.1013 29.3616 35.1013C32.3637 35.1013 35.1914 36.2708 37.3132 38.3971L39.6009 40.685C35.9865 39.3582 31.8364 39.9323 28.694 42.4201ZM39.6052 45.903L37.3175 48.1909C35.1914 50.3172 32.3679 51.4867 29.3658 51.4867C26.3638 51.4867 23.536 50.3172 21.4142 48.1909L20.0917 46.8683L23.1448 44.9887C24.4078 44.2104 26.2149 43.8745 27.9669 44.0871L27.9924 44.0914C28.2305 44.1211 28.4644 44.1381 28.7025 44.1679C31.8364 46.6514 35.9865 47.2298 39.6052 45.903ZM17.8763 34.6547C20.0024 32.5284 22.8259 31.359 25.828 31.359C28.4686 31.359 30.9689 32.2648 32.9802 33.9276C33.1291 34.1062 33.2864 34.2805 33.448 34.4506C32.1255 33.9998 30.7436 33.7702 29.3616 33.7702C26.1427 33.7702 22.9237 34.9992 20.4702 37.453L18.8884 39.035L15.9416 37.2191C15.8098 37.1383 15.6652 37.0745 15.5206 37.0065L17.8763 34.6547ZM25.8322 55.2248C22.8302 55.2248 20.0024 54.0553 17.8806 51.929L15.5589 49.607C15.7205 49.5305 15.8863 49.4582 16.0351 49.3646L18.9266 47.5828L20.4744 49.1307C22.928 51.5845 26.1469 52.8135 29.3658 52.8135C30.7478 52.8135 32.1298 52.5839 33.4522 52.1331C33.2906 52.3032 33.1376 52.4776 32.9845 52.6562C30.9732 54.319 28.4729 55.2248 25.8322 55.2248ZM37.2154 70.5513C37.1219 70.7001 37.0496 70.866 36.9731 71.0276L34.6514 68.7056C30.5182 64.5721 30.2843 58.0017 33.937 53.5875C34.1113 53.4429 34.2814 53.2898 34.4472 53.1325C32.942 57.5339 33.9412 62.5988 37.4493 66.1115L38.9971 67.6595L37.2154 70.5513ZM41.5995 63.4366L39.7157 66.4943L38.3933 65.1717C36.2672 63.0454 35.0978 60.2216 35.0978 57.2193C35.0978 54.2169 36.2672 51.3889 38.3933 49.2668L40.681 46.9789C39.3586 50.5936 39.9326 54.74 42.4159 57.8827C42.4414 58.1208 42.4627 58.359 42.4924 58.5971C42.4924 58.6056 42.4925 58.6141 42.4967 58.6226C42.7093 60.3705 42.3734 62.1778 41.5995 63.4366ZM42.5052 27.8931C42.501 27.9271 42.4967 27.9611 42.4924 27.9909C42.4627 28.229 42.4457 28.4629 42.4159 28.7011C39.9284 31.8438 39.3501 35.9943 40.6767 39.6091L38.3891 37.3212C34.005 32.9367 34.005 25.8008 38.3891 21.4163L39.7455 20.0597L41.608 23.0833C42.3861 24.3421 42.7221 26.1495 42.5052 27.8931ZM60.743 31.359C63.7451 31.359 66.5728 32.5284 68.6946 34.6547L71.0163 36.9767C70.8548 37.0532 70.6889 37.1255 70.5401 37.2191L67.6486 39.0009L66.1008 37.453C63.6473 34.9992 60.4283 33.7702 57.2094 33.7702C55.8274 33.7702 54.4454 33.9998 53.123 34.4506C53.2846 34.2805 53.4377 34.1062 53.5907 33.9276C55.6021 32.2648 58.1024 31.359 60.743 31.359ZM57.8727 44.1679C58.1109 44.1424 58.349 44.1211 58.5871 44.0914C58.6169 44.0871 58.6509 44.0829 58.6849 44.0786C60.4326 43.8575 62.2398 44.1934 63.5027 44.9717L66.5218 46.8343L65.1653 48.1909C63.0392 50.3172 60.2157 51.4867 57.2136 51.4867C54.2116 51.4867 51.3838 50.3172 49.262 48.1909L46.9743 45.903C50.5844 47.2298 54.7303 46.6514 57.8727 44.1679ZM46.97 40.6807L49.2577 38.3928C51.3838 36.2665 54.2073 35.097 57.2094 35.097C60.2115 35.097 63.0392 36.2665 65.161 38.3928L66.4835 39.7154L63.4261 41.5993C62.1675 42.3775 60.356 42.7092 58.6126 42.4924C58.6041 42.4924 58.5956 42.4881 58.5871 42.4881C58.349 42.4583 58.1109 42.4371 57.8727 42.4116C54.7303 39.9323 50.5844 39.3582 46.97 40.6807ZM49.3598 16.0367C49.4533 15.8879 49.5256 15.722 49.6022 15.5604L51.9239 17.8823C54.05 20.0087 55.2193 22.8324 55.2193 25.8348C55.2193 28.4757 54.3136 30.9762 52.651 32.9877C52.4724 33.1366 52.2981 33.2939 52.128 33.4555C53.6333 29.054 52.634 23.9891 49.1259 20.4765L47.5781 18.9285L49.3598 16.0367ZM44.98 23.1429L46.8595 20.0895L48.1819 21.412C52.566 25.7965 52.566 32.9324 48.1819 37.3169L45.8942 39.6048C47.2167 35.9858 46.6426 31.8395 44.1551 28.6968C44.1296 28.4587 44.1083 28.2248 44.0785 27.9866L44.0743 27.9611C43.8659 26.2133 44.2018 24.4059 44.98 23.1429ZM44.9672 63.5089C44.1891 62.2501 43.8532 60.4385 44.0743 58.6907C44.0785 58.6566 44.0828 58.6226 44.087 58.5929C44.1168 58.3547 44.1381 58.1166 44.1636 57.8784C46.6469 54.7357 47.2209 50.5894 45.8985 46.9746L48.1862 49.2626C50.3123 51.3889 51.4816 54.2126 51.4816 57.215C51.4816 60.2174 50.3123 63.0454 48.1862 65.1674L46.8297 66.524L44.9672 63.5089ZM51.9239 68.7056L49.5724 71.0573C49.5044 70.917 49.4406 70.7682 49.3598 70.6363L47.5441 67.6892L49.1259 66.1073C52.634 62.5988 53.6375 57.5297 52.128 53.1282C52.2938 53.2856 52.4639 53.4387 52.6382 53.5832C56.2909 58.0017 56.057 64.5721 51.9239 68.7056ZM68.6989 51.929C66.5728 54.0553 63.7493 55.2248 60.7472 55.2248C58.1066 55.2248 55.6063 54.319 53.595 52.6562C53.4462 52.4776 53.2888 52.3032 53.1273 52.1331C54.4497 52.5839 55.8317 52.8135 57.2136 52.8135C60.4326 52.8135 63.6515 51.5845 66.105 49.1307L67.6869 47.5488L70.6336 49.3646C70.7655 49.4454 70.91 49.5092 71.0546 49.5773L68.6989 51.929Z" fill="#FEFBF7"/>
</svg>
