<svg width="96" height="45" viewBox="0 0 96 45" fill="none" xmlns="http://www.w3.org/2000/svg">
<path d="M35.5641 35.7971C27.9005 33.3313 17.6054 33.2415 9.39274 34.7221C6.96573 35.122 2.78637 34.3686 2.51768 33.1169C2.51768 32.4563 3.32668 31.9145 4.13568 31.9145C5.39446 31.9145 6.22682 31.8565 6.93068 31.8942C7.8127 31.9406 8.58374 31.9232 9.21459 31.6769C9.898 31.4103 10.6223 30.3528 11.113 29.9181C11.1422 29.8921 11.3729 29.5443 11.7789 29.4922C12.731 29.3734 13.0756 29.7819 13.134 29.8225C13.8525 30.3383 14.2205 30.6512 14.9506 30.7642C16.7176 31.0337 23.5372 28.6403 28.803 29.1039C31.5629 29.3473 31.5425 30.0949 34.869 31.109C40.1261 32.7142 45.3832 28.6954 50.6402 29.9065C51.7179 30.1557 54.399 29.95 55.4271 29.9123L52.194 32.4013C51.4989 32.7895 50.8476 33.1053 49.8195 33.4646C48.9492 33.7689 47.8744 34.0354 46.1075 34.4092C45.4328 34.5512 44.2938 34.7801 41.2534 35.2582C38.2861 35.7247 37.0828 36.0781 36.2096 35.9188C34.1885 35.5508 34.2353 35.4146 31.1657 34.6903C29.6207 34.3281 28.3912 34.218 26.7878 34.4063C26.5395 34.4353 25.2866 34.7714 22.7924 35.4436C21.6183 35.7594 20.4267 36.0086 19.2731 36.3882C18.3181 36.704 17.8858 36.8952 17.0856 36.9532C16.6241 36.988 16.0108 36.9126 14.8017 36.7649C13.4786 36.6026 12.8157 36.5215 12.5178 36.3882C11.6182 35.9854 11.3291 35.4407 10.7099 35.5392C10.3711 35.5943 10.155 35.8029 9.85419 36.1042C8.86703 37.0923 8.58666 37.4226 7.97041 37.8891C7.4856 38.257 7.0884 38.457 5.19001 38.2744C4.3372 38.1933 4.00718 38.1064 3.47855 38.2744C2.80973 38.4859 2.34828 38.9322 1.95692 39.3117C1.29103 39.9579 0.955161 40.2824 1.00481 40.5403C1.20049 41.5631 7.0037 41.2443 12.6083 40.4852C15.8618 40.0448 15.6486 40.1491 18.2275 39.8796C19.7784 39.7174 22.4332 39.5377 28.8847 40.1636C34.5069 40.7083 34.0892 40.9981 38.0203 41.2965C42.1851 41.6123 41.4754 41.1951 48.771 41.3921C52.5444 41.4935 56.3295 41.1169 60.0942 41.3921C60.6374 41.4327 62.0042 41.5428 63.6135 41.0154C64.5481 40.7083 65.0358 40.3577 66.277 39.5986C69.8898 37.3878 69.9511 37.7819 70.8448 36.9561C73.12 34.8554 72.1182 32.8793 73.6048 32.1405C75.3425 31.277 81.1545 37.0169 88.0997 39.5609C91.2393 40.7112 94.8024 41.2299 94.9689 40.0912C95.3369 38.6453 92.355 38.1006 90.4654 37.072C90.1441 36.8981 87.2469 35.8232 86.0494 35.1336C82.2059 32.9228 78.4793 28.8837 78.0616 28.6085C77.3548 28.142 76.5926 28.4085 76.1545 28.8953C75.6843 29.4169 75.547 30.8308 76.575 31.222C77.5534 31.5958 79.1685 29.7153 79.5044 28.9272C79.741 28.3738 81.2217 26.4962 80.0914 24.2941C79.6971 23.5292 79.7818 23.7146 78.3654 21.4691C77.5447 20.1681 76.8291 18.8672 76.6685 18.5021C75.9909 16.9722 75.9559 17.0736 75.7894 16.8505C74.7468 15.4713 72.9506 14.7383 71.3267 14.9585C70.9675 15.0077 69.1655 15.2859 67.8074 16.8476C67.5066 17.1924 66.8378 18.0472 66.5691 19.3018C66.277 20.6752 66.6801 21.5097 67.9973 25.1547C69.3437 28.8808 69.5715 29.8167 69.7087 30.4397C70.2111 32.7258 69.8898 32.7316 70.2782 33.6501C70.804 34.8844 71.7502 35.7247 76.6539 38.1817C80.6347 40.1752 80.1119 40.1201 83.5669 41.8673C86.1633 43.1828 86.9957 43.2929 88.6429 43.655C91.178 44.2143 94.0431 44.052 94.1628 43.4667C94.2154 43.2088 93.7306 42.9133 93.4005 42.7105C92.095 41.9079 90.9093 41.8209 90.3719 41.6529C87.1855 40.662 87.8865 40.8764 85.6376 39.6942C84.595 39.1466 83.6984 38.7322 78.4617 34.7801C78.3449 34.6903 78.1054 34.4729 77.7812 34.1832C77.7812 34.1832 77.6323 34.0499 77.4863 33.9137C76.9985 33.4675 75.3163 31.787 75.0359 31.4741C73.8881 30.1905 74.5803 27.5944 74.7497 22.602C74.8081 20.9186 74.7438 20.7505 74.846 15.4279C74.8957 12.8028 74.9278 11.9393 75.4156 10.8035C75.731 10.0675 76.1399 9.45328 76.2713 8.34934C76.3239 7.90892 76.4495 6.85713 75.9851 5.79955C75.8595 5.5156 75.5265 4.85497 72.9389 3.15705C71.28 2.0676 70.4535 1.52579 69.5131 1.26791C68.1579 0.899933 67.013 0.989748 65.8974 1.07957C64.7145 1.17519 64.0048 1.23024 63.1374 1.64458C62.7198 1.84451 61.5515 2.47036 60.7601 3.81479C60.1058 4.92452 60.0533 5.94443 59.9978 7.02519C59.9627 7.71479 59.9131 8.86219 60.3775 10.2356C60.6549 11.0556 61.1368 12.4782 62.4715 13.2577C63.1111 13.6285 64.1742 13.9849 64.4692 13.6343C64.8226 13.2142 64.1976 11.638 63.041 11.3685C62.4277 11.2236 61.7151 11.4641 61.3296 11.9335C60.4797 12.9737 61.02 15.396 62.6614 16.0856C64.0486 16.668 65.6374 15.7698 66.3734 14.6687C67.1707 13.475 67.162 11.7481 66.277 10.7977C65.69 10.166 64.6444 9.80966 64.2794 10.1371C63.8617 10.5108 64.3816 11.7278 64.4692 11.9306C64.6853 12.4319 64.9657 12.7506 65.0884 12.8781C65.0884 12.8781 65.4067 13.2142 65.801 13.4402C66.832 14.0313 69.2969 13.4923 70.8448 11.835C71.2625 11.3888 72.1124 10.479 71.797 9.75751C71.5867 9.27942 70.9179 9.01285 70.3688 9.09687C69.5481 9.22436 69.1684 10.111 69.037 10.4181C68.8004 10.9715 68.818 11.3888 68.9961 13.333C69.183 15.3554 69.2385 15.6741 69.1305 16.271C68.9552 17.2562 68.5347 17.9052 68.2747 18.3485C67.8629 19.0468 67.8658 19.2004 65.8974 25.711C65.7835 26.0906 65.2432 27.8696 64.5656 30.2426C63.9902 32.2535 63.6573 33.4936 63.7098 35.151C63.7186 35.4088 63.815 37.9789 64.4721 38.0774C64.8868 38.1412 65.4593 37.2024 65.6141 36.3795C65.7776 35.4958 65.4651 34.7279 65.138 33.9253C65.0708 33.7602 64.8547 33.2473 64.4546 32.6128C64.2618 32.3085 63.5258 31.1843 62.0948 30.0543C61.2449 29.385 60.8214 29.0518 60.0971 28.8258C59.881 28.7591 58.7302 28.4201 57.3371 28.8258C56.2069 29.1561 55.5147 29.8022 55.0532 30.2426C54.2939 30.9699 52.5561 32.1463 51.9866 32.5027" stroke="#789776"/>
</svg>
